<svg width="100" height="100" viewBox="0 0 100 100" fill="none" xmlns="http://www.w3.org/2000/svg">
<path d="M65.89 18.4C62.1915 16.3527 58.1702 14.9526 54 14.26C53.7952 12.9154 53.292 11.6336 52.5271 10.5088C51.7623 9.38403 50.7552 8.4448 49.58 7.76005L41.49 3.05005C41.3486 2.97225 41.1912 2.92779 41.03 2.92004C32.71 2.59004 24.57 4.37005 18.67 7.78005C12.56 11.31 9.38999 16.26 9.97999 21.36V78.03C9.9864 78.1537 10.0134 78.2753 10.06 78.39C10.1036 78.4846 10.1609 78.5722 10.23 78.65L10.31 78.71C10.3519 78.7552 10.3989 78.7955 10.45 78.83L16.83 82.52C16.83 82.52 16.89 82.52 16.92 82.52C18.09 85.83 20.92 88.86 25.03 91.26C30.66 94.51 38.03 96.14 45.44 96.14C52.85 96.14 60.23 94.51 65.86 91.26C71.49 88.01 74.6 83.62 74.6 78.9V71.23C74.6 71.23 74.6 71.23 74.6 71.16C74.5735 68.4743 73.6317 65.878 71.93 63.8L71.78 63.67L71.69 44.11C73.3842 42.1492 74.4011 39.6945 74.59 37.11C74.59 37.11 74.59 37.04 74.59 37V31.24C74.88 26.44 71.79 21.81 65.89 18.4ZM72.07 33.84C71.8209 34.495 71.5095 35.1246 71.14 35.72C70.8351 36.1904 70.5011 36.6413 70.14 37.07C69.3882 37.9758 68.5436 38.8003 67.62 39.53C66.7439 40.2128 65.8217 40.8343 64.86 41.39C54.15 47.58 36.74 47.57 26.03 41.39C21.97 39.05 19.39 36.12 18.56 32.92C18.5191 32.7742 18.4437 32.6404 18.34 32.53V31C21.5969 32.5968 25.1548 33.4862 28.78 33.61L42.78 34.1H43.33C47.28 34.1 51.26 32.63 53.39 30.35C53.8819 29.8785 54.2667 29.3068 54.5186 28.6736C54.7705 28.0405 54.8835 27.3606 54.85 26.68V22.87C54.865 22.6904 54.865 22.5097 54.85 22.33V21.33C54.8451 21.153 54.7934 20.9805 54.7 20.83L54.24 16.35C57.9697 17.0243 61.5639 18.3046 64.88 20.14C71.21 23.79 73.9 28.91 72.07 33.84ZM19.67 9.51005C25.2 6.32004 32.86 4.66005 40.67 4.91005L48.55 9.48005C49.5179 10.0453 50.3391 10.8306 50.9471 11.7722C51.5551 12.7138 51.933 13.7853 52.05 14.9L52.83 22.37V22.81C52.7184 23.4826 52.3963 24.1023 51.91 24.58C50.08 26.58 46.33 27.79 42.83 27.69L28.54 27.19C24.8748 27.0497 21.2987 26.0201 18.12 24.19L12 20.68V20.25C11.999 20.1268 11.9753 20.0047 11.93 19.89C12 16.05 14.8 12.32 19.67 9.51005ZM11.99 77.51V23L17.16 26C20.6193 27.9872 24.5128 29.0962 28.5 29.23L42.79 29.73H43.34C46.796 29.7949 50.1651 28.6447 52.86 26.48V26.78C52.8556 26.8132 52.8556 26.8469 52.86 26.88C52.862 27.2847 52.7804 27.6854 52.6204 28.0571C52.4603 28.4288 52.2253 28.7634 51.93 29.04C50.1 31.04 46.35 32.25 42.85 32.14L28.85 31.66C24.9825 31.5154 21.2078 30.4345 17.85 28.51H17.79C17.7287 28.4841 17.6651 28.464 17.6 28.45H17.23C17.1603 28.4408 17.0897 28.4408 17.02 28.45L16.86 28.53C16.8008 28.5573 16.7466 28.5945 16.7 28.64C16.6491 28.683 16.6053 28.7336 16.57 28.79C16.57 28.79 16.5 28.79 16.48 28.88C16.46 28.97 16.48 28.88 16.48 28.94C16.4541 29.0014 16.434 29.065 16.42 29.13C16.4107 29.193 16.4107 29.2571 16.42 29.32C16.42 29.32 16.42 29.32 16.42 29.38L16.36 79.52C16.3552 79.5599 16.3552 79.6002 16.36 79.64C16.36 79.78 16.36 79.91 16.36 80.05L11.99 77.51ZM64.89 89.68C54.18 95.86 36.76 95.86 26.06 89.68C21.06 86.8 18.32 83.0201 18.32 79.05L18.37 37.19C20.1077 39.679 22.3973 41.7325 25.06 43.19C30.69 46.44 38.06 48.06 45.47 48.06C52.88 48.06 60.26 46.43 65.89 43.19C66.9344 42.5926 67.9368 41.9244 68.89 41.19C69.9258 40.3733 70.8712 39.4481 71.71 38.43C72.0306 38.0449 72.3278 37.6408 72.6 37.22C72.39 41.01 69.67 44.6 64.88 47.37C54.17 53.55 36.76 53.55 26.05 47.37C25.8886 47.2824 25.7062 47.2408 25.5228 47.25C25.3394 47.2591 25.162 47.3186 25.0101 47.4219C24.8583 47.5252 24.7378 47.6683 24.6619 47.8356C24.5861 48.0028 24.5577 48.1878 24.58 48.37C24.5266 48.4896 24.4993 48.6191 24.5 48.75L24.55 81.75C24.55 81.9053 24.5861 82.0584 24.6556 82.1973C24.725 82.3361 24.8258 82.4569 24.95 82.55C30.17 86.47 37.95 88.47 45.89 88.47C53.01 88.47 60.25 86.87 65.89 83.62C68.5704 82.1682 70.8775 80.1143 72.63 77.62L72.6301 79C72.6301 83 69.88 86.77 64.89 89.65V89.68ZM72.47 72.88C71.82 76.23 69.13 79.43 64.89 81.88C53.95 88.2 35.89 87.88 26.56 81.24V49.8C27.13 50.09 27.72 50.3601 28.33 50.62V80.35C28.33 80.6153 28.4353 80.8696 28.6229 81.0572C28.8104 81.2447 29.0648 81.35 29.33 81.35C29.5952 81.35 29.8496 81.2447 30.0371 81.0572C30.2246 80.8696 30.33 80.6153 30.33 80.35V51.37C35.2119 53.0571 40.3449 53.9025 45.51 53.87C52.9 53.87 60.3 52.25 65.93 49C67.2899 48.2167 68.5723 47.3059 69.76 46.28L69.85 67.46C69.85 67.7253 69.9553 67.9796 70.1429 68.1672C70.3304 68.3547 70.5848 68.46 70.85 68.46C71.1051 68.4605 71.3508 68.3634 71.5367 68.1887C71.7226 68.0139 71.8347 67.7747 71.85 67.52C72.6098 69.1879 72.8266 71.0523 72.47 72.85V72.88Z" fill="#28CDCD"/>
<path d="M70.3601 70.72C70.2307 70.6954 70.0977 70.6966 69.9688 70.7235C69.8399 70.7505 69.7176 70.8026 69.6089 70.8769C69.5001 70.9512 69.4072 71.0463 69.3353 71.1567C69.2634 71.267 69.2141 71.3905 69.1901 71.52C69.1901 71.52 68.5201 74.76 64.6501 77.71C57.5 83.15 43.9501 84.51 33.1201 80.88C32.9953 80.838 32.8635 80.8209 32.7321 80.8298C32.6008 80.8388 32.4725 80.8735 32.3546 80.932C32.2367 80.9905 32.1314 81.0716 32.0448 81.1708C31.9583 81.27 31.8921 81.3852 31.8501 81.51C31.808 81.6347 31.791 81.7666 31.7999 81.8979C31.8088 82.0292 31.8435 82.1575 31.902 82.2755C31.9605 82.3934 32.0417 82.4986 32.1409 82.5852C32.24 82.6718 32.3553 82.738 32.4801 82.78C36.8449 84.2016 41.4096 84.914 46.0001 84.89C53.6901 84.89 61.1301 82.89 65.9101 79.3C70.4401 75.85 71.1801 72.04 71.2101 71.88C71.2328 71.7477 71.2286 71.6123 71.1979 71.4816C71.1671 71.351 71.1104 71.2279 71.0311 71.1197C70.9518 71.0115 70.8515 70.9203 70.7362 70.8516C70.6209 70.7829 70.493 70.7382 70.3601 70.72Z" fill="#28CDCD"/>
<path d="M87.49 20C86.3324 17.401 84.6211 15.0862 82.4759 13.2173C80.3306 11.3484 77.8031 9.97055 75.07 9.18C74.9417 9.13579 74.8057 9.11818 74.6703 9.12824C74.5349 9.1383 74.403 9.17582 74.2826 9.23852C74.1621 9.30122 74.0558 9.38778 73.9699 9.49292C73.884 9.59807 73.8204 9.7196 73.7831 9.85011C73.7457 9.98061 73.7352 10.1174 73.7524 10.252C73.7696 10.3867 73.814 10.5165 73.883 10.6334C73.9519 10.7503 74.044 10.852 74.1535 10.9322C74.263 11.0125 74.3877 11.0695 74.52 11.1C76.9684 11.8228 79.2315 13.0667 81.154 14.7464C83.0764 16.426 84.6128 18.5016 85.6578 20.8308C86.7027 23.1601 87.2314 25.6877 87.2076 28.2405C87.1838 30.7932 86.6081 33.3106 85.52 35.62C85.4562 35.7412 85.418 35.8743 85.4078 36.0109C85.3976 36.1475 85.4155 36.2848 85.4605 36.4142C85.5055 36.5436 85.5766 36.6623 85.6694 36.7631C85.7622 36.8639 85.8748 36.9445 86 37C86.1341 37.0649 86.281 37.0991 86.43 37.1C86.6202 37.1014 86.8069 37.0485 86.968 36.9475C87.1292 36.8465 87.2582 36.7017 87.34 36.53C88.5716 33.9531 89.2232 31.1376 89.2491 28.2816C89.2751 25.4257 88.6746 22.5988 87.49 20Z" fill="#28CDCD"/>
<path d="M73.42 13.8101C73.2953 13.7677 73.1634 13.7504 73.032 13.7592C72.9005 13.7679 72.7721 13.8026 72.6541 13.8611C72.5361 13.9197 72.4308 14.0009 72.3443 14.1003C72.2578 14.1997 72.1918 14.3151 72.15 14.4401C72.1077 14.5648 72.0904 14.6967 72.0991 14.8281C72.1079 14.9596 72.1426 15.088 72.2011 15.206C72.2596 15.324 72.3409 15.4293 72.4403 15.5158C72.5396 15.6023 72.6551 15.6683 72.78 15.7101C74.5493 16.3095 76.1766 17.266 77.5611 18.5203C78.9455 19.7745 80.0575 21.2998 80.8282 23.0015C81.5989 24.7032 82.0118 26.5451 82.0414 28.4129C82.0709 30.2808 81.7165 32.1348 81 33.8601C80.8968 34.1041 80.8946 34.3791 80.994 34.6247C81.0934 34.8703 81.2862 35.0665 81.53 35.1701C81.654 35.2204 81.7862 35.2476 81.92 35.2501C82.1163 35.2499 82.3082 35.192 82.4718 35.0835C82.6354 34.975 82.7635 34.8208 82.84 34.6401C83.6643 32.6642 84.0743 30.5403 84.0449 28.3996C84.0155 26.2589 83.5471 24.147 82.6689 22.1946C81.7906 20.2422 80.5211 18.4907 78.9388 17.0485C77.3566 15.6063 75.4953 14.5041 73.47 13.8101H73.42Z" fill="#28CDCD"/>
</svg>
