<svg width="1024" height="1024" viewBox="0 0 1024 1024" fill="none" xmlns="http://www.w3.org/2000/svg">
<path fill-rule="evenodd" clip-rule="evenodd" d="M868.481 154.227C870.678 154.485 872.732 155.448 874.336 156.97C875.964 158.521 877.037 160.564 877.389 162.785C877.74 165.006 877.351 167.281 876.281 169.259L687.968 527.659C687.097 529.294 685.799 530.662 684.212 531.617C682.625 532.573 680.809 533.08 678.957 533.085C677.658 533.104 676.369 532.861 675.168 532.369C672.822 531.427 670.906 529.651 669.791 527.383C668.676 525.114 668.439 522.514 669.126 520.081L722.169 332.074L672.71 360.644C670.948 361.649 668.926 362.108 666.902 361.962C664.879 361.816 662.944 361.072 661.344 359.825C659.735 358.577 658.535 356.878 657.896 354.944C657.258 353.011 657.21 350.931 657.76 348.97L717.766 140.074C718.496 137.527 720.184 135.361 722.477 134.033L827.949 73.1048C829.803 72.0085 831.957 71.525 834.102 71.7235C836.248 71.9221 838.276 72.7924 839.898 74.2104C841.52 75.6284 842.654 77.522 843.138 79.6217C843.621 81.7213 843.43 83.92 842.592 85.9048L799.584 191.479L862.15 155.537C864.064 154.428 866.285 153.968 868.481 154.227ZM748.793 313.54L715.411 431.402L841.773 191.377L783.917 224.759C782.078 225.813 779.959 226.27 777.849 226.069C775.74 225.867 773.746 225.016 772.141 223.633C770.511 222.225 769.366 220.339 768.87 218.244C768.373 216.148 768.55 213.949 769.376 211.959L812.896 105.873L736.813 149.802L684.486 330.334L733.741 301.867C735.508 300.819 737.549 300.327 739.599 300.455C741.65 300.583 743.614 301.324 745.238 302.583C746.861 303.842 748.068 305.56 748.702 307.514C749.336 309.468 749.368 311.568 748.793 313.54ZM220.815 279.135C219.727 290.508 221.298 301.979 225.403 312.642C229.508 323.304 236.035 332.867 244.469 340.575C246.388 342.482 248.983 343.552 251.688 343.552C254.394 343.552 256.989 342.482 258.907 340.575C259.867 339.623 260.629 338.49 261.149 337.242C261.669 335.994 261.936 334.656 261.936 333.304C261.936 331.952 261.669 330.614 261.149 329.366C260.629 328.118 259.867 326.986 258.907 326.034C252.615 320.552 247.711 313.657 244.596 305.915C241.481 298.172 240.244 289.802 240.987 281.49C243.547 262.853 258.191 244.933 281.947 231.109C341.851 196.703 439.746 196.908 500.162 231.109C527.605 246.776 542.658 267.052 542.658 288.044C542.658 309.036 527.81 329.003 500.879 344.261C459.919 367.403 400.936 375.596 345.538 365.663C344.193 365.421 342.814 365.446 341.479 365.737C340.144 366.028 338.879 366.579 337.757 367.359C336.635 368.138 335.678 369.131 334.94 370.281C334.201 371.431 333.697 372.715 333.455 374.06C333.213 375.405 333.238 376.784 333.529 378.119C333.82 379.454 334.371 380.718 335.151 381.84C335.93 382.962 336.923 383.92 338.073 384.658C339.223 385.396 340.507 385.901 341.851 386.143C358.552 389.091 375.479 390.564 392.437 390.546C433.847 391.562 474.833 382.012 511.528 362.795C545.115 343.544 563.547 317.33 563.547 288.863C563.547 260.396 544.808 233.669 510.811 214.111C444.763 176.325 337.755 176.121 272.117 214.111C242.523 230.802 224.194 254.047 220.815 279.135ZM550.745 206.431C549.58 205.69 548.276 205.193 546.913 204.969C545.551 204.744 544.157 204.798 542.815 205.127C541.474 205.455 540.213 206.052 539.108 206.88C538.003 207.709 537.077 208.752 536.386 209.948C535.695 211.144 535.253 212.467 535.086 213.838C534.92 215.209 535.032 216.599 535.417 217.925C535.802 219.252 536.451 220.487 537.325 221.556C538.2 222.625 539.281 223.506 540.505 224.146C578.291 245.957 599.18 274.219 599.59 303.813V305.657C599.59 334.943 578.495 362.796 541.427 384.197C459.507 431.404 326.387 431.199 243.545 383.583C205.452 361.567 184.358 332.997 184.358 302.994C184.358 272.991 204.838 245.138 242.624 223.429C244.852 222.012 246.448 219.789 247.076 217.224C247.704 214.658 247.317 211.95 245.995 209.663C244.674 207.376 242.52 205.689 239.983 204.953C237.447 204.217 234.724 204.49 232.384 205.714C188.249 231.212 163.878 265.721 163.878 302.994V303.609V821.24C163.827 821.614 163.827 821.993 163.878 822.367C164.697 859.231 189.273 893.433 233.203 918.726C282.409 944.946 337.509 958.13 393.254 957.023C448.341 958.163 502.804 945.19 551.462 919.34C595.596 893.842 619.865 859.334 619.865 822.162C619.915 821.857 619.915 821.546 619.865 821.24V305.861V304.735C620.172 267.154 595.494 232.441 550.745 206.431ZM599.59 388.6V820.114C599.545 820.454 599.545 820.798 599.59 821.138C599.59 851.039 579.11 879.506 541.427 901.42C459.507 948.626 326.387 948.421 243.647 900.806C205.862 878.994 184.87 850.629 184.563 820.933V820.114V359.314C197.936 376.331 214.579 390.501 233.51 400.991C282.743 427.129 337.83 440.275 393.561 439.186C448.682 440.334 503.18 427.362 551.871 401.503C570.399 391.155 586.688 377.233 599.795 360.543L599.59 388.6ZM391.671 214.842C409.242 214.842 426.561 219.013 442.206 227.012C449.055 230.076 454.931 234.963 459.193 241.139C463.455 247.315 465.938 254.543 466.372 262.034V299.409C466.012 306.892 463.607 314.133 459.418 320.344C455.229 326.555 449.418 331.497 442.615 334.635C426.993 342.707 409.665 346.92 392.081 346.92C374.497 346.92 357.168 342.707 341.546 334.635C334.784 331.48 328.983 326.583 324.736 320.448C320.49 314.312 317.951 307.157 317.38 299.717V259.678C318.363 252.704 321.043 246.079 325.185 240.383C329.327 234.687 334.805 230.096 341.137 227.012C356.781 219.013 374.101 214.842 391.671 214.842ZM442.922 296.849C423.814 306.795 402.165 310.79 380.766 308.318H380.663C377.947 308.06 375.445 306.734 373.707 304.631C371.969 302.528 371.138 299.821 371.396 297.106C371.654 294.39 372.98 291.888 375.083 290.15C377.186 288.412 379.893 287.58 382.609 287.838C399.78 289.85 417.162 286.751 432.58 278.929C441.182 274.014 446.097 267.87 446.097 261.931C446.097 255.992 441.079 249.643 432.273 244.626C419.704 238.506 405.907 235.325 391.927 235.325C377.947 235.325 364.151 238.506 351.582 244.626C348.265 246.073 345.328 248.268 343 251.039C340.673 253.811 339.019 257.083 338.167 260.6V299.512C338.27 305.451 343.287 311.8 352.094 316.817C364.609 323.057 378.403 326.304 392.388 326.304C406.373 326.304 420.167 323.057 432.682 316.817C441.386 311.902 446.199 305.553 446.199 299.512V294.802L442.922 296.849ZM541.222 453.009C539.665 452.111 537.9 451.638 536.102 451.638C534.305 451.638 532.539 452.111 530.982 453.009C500.658 467.668 468.02 476.954 434.521 480.453C432.024 480.754 429.725 481.965 428.063 483.854C426.401 485.742 425.492 488.177 425.51 490.692V875.205C425.51 877.921 426.589 880.525 428.509 882.446C430.43 884.366 433.034 885.445 435.75 885.445H436.877C472.778 881.738 507.749 871.756 540.198 855.954C541.887 855.103 543.307 853.8 544.301 852.192C545.295 850.583 545.824 848.731 545.83 846.84V461.714C545.856 459.993 545.447 458.293 544.641 456.771C543.836 455.25 542.66 453.956 541.222 453.009ZM525.657 653.918C500.469 665.447 473.735 673.243 446.297 677.061V599.646C473.553 595.917 500.222 588.725 525.657 578.245V653.918ZM446.297 697.951C473.573 694.318 500.254 687.123 525.657 676.549V741.368C500.435 752.805 473.714 760.597 446.297 764.511V697.951ZM446.297 499.192C473.563 495.512 500.238 488.318 525.657 477.791V555.614C500.452 567.097 473.724 574.891 446.297 578.757V499.192ZM446.297 863.019V785.4C473.559 781.753 500.233 774.593 525.657 764.101V840.082C500.447 851.509 473.717 859.234 446.297 863.019Z" fill="#28CDCD"/>
</svg>
