<svg width="1024" height="1024" viewBox="0 0 1024 1024" fill="none" xmlns="http://www.w3.org/2000/svg">
<path fill-rule="evenodd" clip-rule="evenodd" d="M838.666 149.556C843.506 156.465 846.147 164.674 846.244 173.108C852.183 267.624 857.918 368.488 857.918 468.123C857.918 518.708 856.586 570.523 854.026 621.723C852.593 651.112 851.159 675.585 849.521 698.728C849.907 720.063 847.393 741.353 842.046 762.011C829.246 795.7 798.014 816.692 770.366 835.227L758.078 843.624C724.761 867.193 690.277 889.066 654.756 909.16C593.726 943.976 529.623 974.286 467.569 1003.57L456.202 1008.9C451.632 1011.45 446.486 1012.79 441.252 1012.79C439.923 1012.89 438.588 1012.89 437.258 1012.79H435.415L432.548 1011.76C431.324 1011.63 430.14 1011.24 429.066 1010.64L190.27 882.024L189.246 881.307C184.01 877.599 179.863 872.557 177.234 866.705C174.605 860.853 173.59 854.404 174.295 848.027V284.827C174.489 271.989 177.672 259.373 183.591 247.979C189.51 236.586 198.002 226.728 208.394 219.188L209.316 218.574L561.572 15.5148C565.772 12.5819 570.668 10.802 575.771 10.3528C580.874 9.9036 586.006 10.8008 590.654 12.9548L688.138 65.998L735.345 91.598L755.825 102.657H757.566C758.959 103.198 760.217 104.036 761.252 105.115C780.708 115.969 800.266 126.209 819.927 136.449C826.645 139.037 832.698 143.096 837.642 148.328C838.061 148.666 838.409 149.084 838.666 149.556ZM797.604 703.643L829.553 685.108V685.211C830.065 677.224 830.577 669.134 831.089 660.737L807.742 674.152C803.259 677.181 799.54 681.208 796.875 685.916C794.21 690.624 792.672 695.885 792.382 701.288C792.297 702.615 792.619 703.936 793.303 705.077C794.826 704.926 796.295 704.436 797.604 703.643ZM797.604 278.171L830.782 258.817L829.45 236.494L807.639 249.192C803.151 252.215 799.428 256.241 796.762 260.95C794.096 265.659 792.562 270.924 792.279 276.328C792.301 277.511 792.695 278.658 793.406 279.604C794.901 279.476 796.342 278.983 797.604 278.171ZM837.028 469.966V468.328C837.028 461.16 836.823 453.889 836.414 446.619L816.548 458.088C812.072 461.051 808.352 465.021 805.685 469.68C803.018 474.338 801.478 479.556 801.188 484.916C801.081 486.31 801.403 487.704 802.11 488.91C803.597 488.745 805.03 488.255 806.308 487.476L837.028 469.966ZM572.222 33.0252L219.966 236.084C212.303 241.75 206.047 249.102 201.679 257.572C197.311 266.041 194.949 275.401 194.775 284.929V369L341.719 453.787V374.939C341.947 362.081 345.2 349.457 351.213 338.09C357.225 326.722 365.83 316.93 376.33 309.505L724.49 108.494L678.615 83.5084L581.54 31.2844C580.16 30.7415 578.665 30.5599 577.195 30.7571C575.726 30.9542 574.331 31.5235 573.143 32.4108L572.222 33.0252ZM194.673 848.539C194.723 848.947 194.723 849.36 194.673 849.768C194.307 852.509 194.673 855.298 195.734 857.852C196.795 860.406 198.514 862.634 200.714 864.308L342.743 940.597V938.753V805.428V804.814C342.647 804.135 342.647 803.445 342.743 802.766C342.901 802.104 343.106 801.454 343.358 800.82V800.308L374.078 747.368V586.804L343.358 497.716C342.348 496.157 341.781 494.351 341.719 492.494V477.441L194.673 392.654V848.539ZM470.948 870.248L438.794 888.782V888.885C438.594 892.841 438.418 896.798 438.243 900.743C438.06 904.863 437.877 908.971 437.668 913.051L460.81 899.739C465.293 896.709 469.012 892.683 471.677 887.975C474.342 883.267 475.88 878.005 476.17 872.603C476.255 871.276 475.933 869.954 475.249 868.814C473.726 868.965 472.256 869.455 470.948 870.248ZM445.246 673.742H444.119V687.054V697.294L468.183 683.982C472.703 681.016 476.453 677.018 479.124 672.318C481.794 667.617 483.309 662.349 483.543 656.948C483.636 655.588 483.314 654.232 482.622 653.057C481.132 653.335 479.707 653.891 478.423 654.696L445.246 673.742ZM437.182 464.533C437.835 464.376 438.477 464.172 439.102 463.924L472.484 444.571C473.773 443.817 475.201 443.329 476.682 443.137C477.367 444.277 477.688 445.599 477.604 446.926C477.33 452.318 475.797 457.571 473.13 462.265C470.463 466.959 466.735 470.964 462.244 473.96L438.487 487.272C438.44 486.412 438.393 485.549 438.346 484.683C437.989 478.152 437.623 471.457 437.182 464.533ZM753.481 822.783C755.315 821.554 757.157 820.32 758.999 819.048C759.476 818.725 759.954 818.402 760.433 818.078C785.075 801.422 812.923 782.599 821.361 756.584C825.203 741.161 827.366 725.368 827.812 709.48L807.332 721.563C802.968 724.085 798.035 725.459 792.996 725.557C789.399 725.55 785.867 724.596 782.756 722.792C779.142 720.423 776.222 717.136 774.297 713.267C772.372 709.398 771.51 705.087 771.799 700.776C772.167 691.923 774.622 683.283 778.964 675.56C783.306 667.836 789.413 661.249 796.785 656.334L830.474 636.878C831.02 636.834 831.567 636.834 832.113 636.878C832.932 631.656 832.932 626.74 832.932 621.416C835.082 579.022 836.516 536.321 836.516 493.825L816.753 505.294C812.451 507.887 807.541 509.3 802.519 509.39C798.932 509.415 795.4 508.497 792.279 506.728C788.573 504.376 785.564 501.075 783.565 497.168C781.566 493.26 780.65 488.888 780.913 484.507C781.309 475.721 783.802 467.158 788.184 459.533C792.567 451.909 798.711 445.444 806.103 440.68L836.311 423.169C835.697 375.86 834.058 328.654 831.703 281.96L807.537 295.886C803.225 298.555 798.271 300.006 793.201 300.084C789.613 300.109 786.082 299.191 782.961 297.422C779.286 295.102 776.307 291.83 774.342 287.954C772.377 284.078 771.498 279.742 771.799 275.406C772.307 266.585 774.89 258.009 779.338 250.375C783.787 242.742 789.975 236.266 797.399 231.476L828.119 213.454C827.731 207.195 827.366 200.913 827.002 194.652C826.598 187.699 826.195 180.771 825.764 173.928C826.027 169.529 824.995 165.15 822.794 161.332C819.881 158.475 816.389 156.276 812.554 154.881H811.428C790.231 143.924 768.625 132.456 748.145 121.089C745.669 120.755 743.156 121.338 741.079 122.728L387.082 326.708C379.483 332.288 373.288 339.561 368.987 347.95C364.686 356.339 362.397 365.614 362.302 375.041V469.044C362.718 470.691 362.718 472.415 362.302 474.062V489.524L394.25 581.684C394.644 582.768 394.852 583.911 394.865 585.064V749.723C394.846 751.526 394.351 753.292 393.431 754.843L362.711 807.784V938.753C362.711 946.945 364.964 953.089 368.343 954.318C369.609 954.787 370.761 955.52 371.722 956.468L413.399 978.894C412.76 970.725 413.104 962.508 414.423 954.421L416.881 916.43C418.314 890.83 419.543 865.128 420.567 839.63C422.615 789.249 423.639 738.971 423.639 686.849C423.639 634.728 422.615 585.473 420.874 536.936C419.953 513.998 418.622 489.217 416.778 461.057C412.169 437.111 412.169 412.505 416.778 388.558C419.744 377.99 425.265 368.314 432.855 360.385C440.445 352.456 449.87 346.517 460.298 343.092C472.299 339.315 484.092 334.906 495.626 329.883C524.665 317.897 552.976 304.221 580.414 288.923C636.166 261.054 689.556 228.691 740.055 192.155L741.079 191.54C755.793 183.215 768.459 171.704 778.148 157.851C779.71 155.624 782.092 154.108 784.771 153.638C787.45 153.167 790.206 153.78 792.433 155.342C794.66 156.904 796.175 159.286 796.646 161.965C797.116 164.644 796.503 167.4 794.942 169.627C783.521 185.855 768.617 199.325 751.319 209.051C700.24 246.368 646.198 279.45 589.732 307.969C561.718 323.239 532.863 336.914 503.306 348.929C491.428 354.049 478.935 358.657 466.34 362.651C459.244 364.973 452.817 368.981 447.609 374.331C442.401 379.682 438.569 386.215 436.439 393.371C433.375 409.708 432.72 426.406 434.494 442.932L462.244 426.856C465.759 424.243 469.96 422.711 474.332 422.448C478.704 422.185 483.058 423.202 486.861 425.375C490.664 427.549 493.751 430.783 495.744 434.683C497.738 438.584 498.551 442.981 498.084 447.336C497.679 456.147 495.183 464.735 490.803 472.392C486.423 480.048 480.284 486.552 472.894 491.368L439.818 510.209C439.938 512.249 440.07 514.284 440.2 516.309C440.627 522.923 441.047 529.435 441.047 535.707C442.686 573.288 444.119 610.971 444.119 650.088L468.183 636.161C471.826 633.725 476.054 632.308 480.43 632.056C484.805 631.804 489.168 632.726 493.066 634.728C496.823 637.114 499.851 640.487 501.82 644.478C503.788 648.469 504.621 652.925 504.228 657.358C503.864 666.179 501.386 674.783 497.002 682.446C492.618 690.109 486.457 696.606 479.038 701.39L445.45 720.948H444.017C443.71 760.885 442.89 801.025 441.354 840.552C441.237 843.615 441.043 846.693 440.85 849.775C440.539 854.729 440.228 859.692 440.228 864.616L460.708 852.532C464.358 850.148 468.577 848.777 472.932 848.561C477.287 848.345 481.621 849.292 485.489 851.304C489.129 853.652 492.075 856.932 494.02 860.804C495.965 864.675 496.838 868.997 496.548 873.32C496.081 882.105 493.57 890.661 489.215 898.305C484.86 905.949 478.78 912.471 471.46 917.352L437.77 936.705C437.214 936.971 436.63 937.177 436.03 937.32L434.903 956.264V957.39C433.162 967.075 433.162 976.992 434.903 986.677C435.345 988.086 436.086 989.383 437.076 990.479C438.065 991.574 439.28 992.443 440.638 993.025C442.782 993.166 444.921 992.667 446.782 991.592L458.865 985.857C520.51 956.776 584.305 926.67 644.516 892.264C679.504 872.535 713.445 851.002 746.199 827.752C748.599 826.054 751.033 824.423 753.481 822.783ZM703.779 375.962C708.192 375.728 712.587 376.683 716.505 378.728C720.934 381.74 724.476 385.884 726.763 390.728C729.05 395.571 729.998 400.939 729.51 406.274V478.773C729.241 488.811 726.663 498.651 721.974 507.531C717.286 516.411 710.614 524.09 702.476 529.973L701.657 530.587L567.718 608.002C563.36 610.551 558.429 611.96 553.382 612.098C549.546 612.082 545.777 611.095 542.425 609.23C538.042 606.234 534.543 602.117 532.291 597.308C530.04 592.499 529.119 587.175 529.625 581.89V508.162C529.92 498.14 532.499 488.319 537.166 479.445C541.833 470.572 548.465 462.882 556.556 456.962L557.478 456.347L691.417 380.059C695.096 377.611 699.366 376.196 703.779 375.962ZM663.155 432.386L565.465 488.808V529.256L663.155 472.834V432.386ZM557.785 590.696L690.905 513.589C696.35 509.64 700.835 504.514 704.026 498.593C707.218 492.671 709.033 486.107 709.337 479.387V406.274C709.337 400.334 707.187 396.853 706.675 396.546C706.163 396.238 704.524 396.443 702.067 397.877L682.303 409.141C683.368 410.789 683.937 412.708 683.942 414.67V478.773C683.949 480.577 683.479 482.351 682.58 483.916C681.681 485.48 680.384 486.779 678.822 487.682L560.652 555.88C559.071 556.713 557.319 557.169 555.532 557.211C553.743 557.184 551.987 556.728 550.412 555.88V582.402C550.412 588.955 552.46 591.515 553.075 591.925C553.689 592.334 555.43 592.13 557.785 590.696Z" fill="#28CDCD"/>
</svg>
