<svg width="100" height="100" viewBox="0 0 100 100" fill="none" xmlns="http://www.w3.org/2000/svg">
<path fill-rule="evenodd" clip-rule="evenodd" d="M39.2236 16.6644C39.3136 18.3944 40.4736 19.9944 42.4736 21.1544C44.6712 22.3294 47.132 22.9248 49.6236 22.8844C52.0877 22.9279 54.5218 22.3392 56.6936 21.1744C58.8236 19.9444 59.9636 18.2444 59.9136 16.4244V8.42441V8.36441C59.9136 6.56441 58.7336 4.92441 56.6536 3.72441C54.4549 2.59123 52.0172 2 49.5436 2C47.0701 2 44.6324 2.59123 42.4336 3.72441C40.3636 4.92441 39.2236 6.57441 39.2236 8.38441V16.6644ZM55.6936 19.4444C53.8005 20.4062 51.7071 20.9074 49.5836 20.9074C47.4602 20.9074 45.3668 20.4062 43.4736 19.4444C42.0736 18.6444 41.2736 17.6244 41.2236 16.6344V12.2144C41.6132 12.5474 42.0315 12.8453 42.4736 13.1044C44.676 14.2741 47.1404 14.8627 49.6336 14.8144C52.0977 14.8579 54.5318 14.2692 56.7036 13.1044C57.1352 12.8586 57.5435 12.5741 57.9236 12.2544V16.4344C57.9536 17.5344 57.2236 18.5944 55.7036 19.4444H55.6936ZM43.4336 5.44441C45.3284 4.48806 47.4212 3.98985 49.5436 3.98985C51.6661 3.98985 53.7589 4.48806 55.6536 5.44441C57.1136 6.28441 57.9136 7.33441 57.9136 8.44441C57.9136 9.50441 57.1236 10.5444 55.6936 11.3744C53.8005 12.3362 51.7071 12.8374 49.5836 12.8374C47.4602 12.8374 45.3668 12.3362 43.4736 11.3744C42.0236 10.5344 41.2236 9.48441 41.2236 8.37441C41.2236 7.26441 42.0136 6.29441 43.4436 5.46441L43.4336 5.44441ZM76.3036 13.2045V13.2845C76.3036 13.3145 76.4136 13.3745 76.4136 13.3745V73.8045C76.4143 73.9807 76.3685 74.1539 76.2807 74.3067C76.1929 74.4595 76.0662 74.5864 75.9136 74.6745L61.4836 83.0045V89.0545V89.2045C61.405 89.64 61.2329 90.0533 60.9791 90.4158C60.7253 90.7784 60.3959 91.0816 60.0136 91.3045C59.3711 91.715 58.6261 91.9367 57.8636 91.9445C57.5554 91.9481 57.2485 91.9043 56.9536 91.8145C56.7411 91.7503 56.5559 91.6171 56.4273 91.4361C56.2988 91.255 56.2342 91.0363 56.2436 90.8145V85.9945L50.7136 89.1845V94.8945V95.0345C50.639 95.4714 50.4684 95.8863 50.2142 96.2494C49.9601 96.6125 49.6286 96.9148 49.2436 97.1345C48.6017 97.5475 47.8569 97.7727 47.0936 97.7845C46.7858 97.7826 46.4797 97.7389 46.1836 97.6545C45.9711 97.5903 45.7859 97.4571 45.6573 97.2761C45.5288 97.095 45.4642 96.8763 45.4736 96.6545V92.1745L43.7936 93.1745H43.7236H43.6336C43.5263 93.2207 43.4106 93.2445 43.2936 93.2445C43.1767 93.2445 43.061 93.2207 42.9536 93.1745H42.8636H42.7936L23.5036 82.0445C23.351 81.9564 23.2244 81.8295 23.1366 81.6767C23.0488 81.5239 23.0029 81.3507 23.0036 81.1745V20.7445C22.999 20.7146 22.999 20.6843 23.0036 20.6545C22.9988 20.6247 22.9988 20.5943 23.0036 20.5645C23.0221 20.4492 23.0592 20.3377 23.1136 20.2345C23.1673 20.1357 23.2425 20.0503 23.3336 19.9845C23.3526 19.9624 23.3766 19.9452 23.4036 19.9345L36.8736 12.1645C36.9875 12.0921 37.1147 12.0435 37.2478 12.0216C37.3809 11.9998 37.517 12.005 37.648 12.0371C37.779 12.0692 37.9022 12.1274 38.0101 12.2084C38.118 12.2893 38.2084 12.3912 38.2759 12.5079C38.3434 12.6247 38.3866 12.7539 38.4028 12.8878C38.4191 13.0217 38.4081 13.1575 38.3705 13.287C38.3329 13.4165 38.2696 13.5371 38.1842 13.6415C38.0988 13.7459 37.9931 13.832 37.8736 13.8945L25.8736 20.8145L43.2236 31.0545L73.3336 13.4045L61.1736 6.40446C60.956 6.2661 60.8002 6.04897 60.7388 5.79846C60.6775 5.54794 60.7153 5.28341 60.8444 5.0601C60.9734 4.8368 61.1838 4.67201 61.4315 4.60015C61.6792 4.52828 61.9451 4.55491 62.1736 4.67446L75.8236 12.5545L75.8836 12.6045H75.9536C76.0432 12.6788 76.1208 12.7665 76.1836 12.8645C76.2428 12.9701 76.2834 13.0851 76.3036 13.2045ZM42.2236 32.8145L24.8836 22.5445L24.9336 80.6645L42.2236 90.6645V32.8145ZM48.0436 95.4645C48.3017 95.3213 48.5003 95.0909 48.6036 94.8145V90.3545L47.3536 91.0745V95.7545C47.5979 95.6959 47.8309 95.598 48.0436 95.4645ZM58.8236 89.5845C59.0817 89.4413 59.2803 89.2109 59.3836 88.9345V84.1445L58.1336 84.8745V89.8745C58.3798 89.8221 58.6139 89.7237 58.8236 89.5845ZM44.2236 32.8145V90.6345L74.3136 73.2245V15.1145L44.2236 32.8145ZM57.3433 74.0136C57.7898 73.9873 58.2354 74.0807 58.6337 74.2843C58.9932 74.5331 59.2812 74.8718 59.4689 75.2666C59.6567 75.6614 59.7376 76.0985 59.7037 76.5343C59.6597 77.4578 59.3953 78.3572 58.9325 79.1575C58.4698 79.9578 57.8221 80.6356 57.0437 81.1343C56.5962 81.4041 56.086 81.5523 55.5637 81.5643C55.2131 81.5588 54.8694 81.466 54.5637 81.2943C54.1916 81.052 53.8907 80.7148 53.6921 80.3176C53.4935 79.9204 53.4043 79.4775 53.4337 79.0343C53.4801 78.1115 53.7455 77.213 54.2081 76.4131C54.6706 75.6132 55.317 74.9349 56.0937 74.4343C56.4653 74.1853 56.8967 74.04 57.3433 74.0136ZM55.5537 79.5543C55.5837 79.5743 55.7637 79.5943 56.0937 79.4043C56.5726 79.0836 56.9714 78.6571 57.2592 78.1578C57.5471 77.6584 57.7162 77.0995 57.7537 76.5243C57.7537 76.1643 57.6237 76.0043 57.6237 76.0043H57.5637C57.3951 76.0203 57.2334 76.0788 57.0937 76.1743C56.6173 76.493 56.2201 76.9164 55.9324 77.4121C55.6447 77.9078 55.4741 78.4626 55.4337 79.0343C55.4337 79.4044 55.5237 79.5343 55.5537 79.5543ZM66.5436 69.6943C66.1471 69.4905 65.7032 69.3969 65.2581 69.4233C64.8131 69.4497 64.3833 69.5951 64.0136 69.8443C63.2369 70.3448 62.5906 71.0231 62.128 71.823C61.6655 72.6229 61.4 73.5214 61.3536 74.4443C61.323 74.8851 61.4106 75.3261 61.6075 75.7217C61.8044 76.1172 62.1034 76.453 62.4736 76.6943C62.795 76.8821 63.1614 76.9789 63.5336 76.9743C64.056 76.9623 64.5662 76.8141 65.0136 76.5443C65.792 76.0456 66.4397 75.3677 66.9025 74.5675C67.3653 73.7672 67.6297 72.8677 67.6736 71.9443C67.7033 71.5025 67.6141 71.0609 67.4154 70.6652C67.2167 70.2696 66.9157 69.9343 66.5436 69.6943ZM64.0136 74.8143C63.6836 75.0043 63.5036 74.9843 63.4736 74.9643C63.4436 74.9443 63.3536 74.8143 63.3536 74.4443C63.3941 73.8726 63.5646 73.3177 63.8523 72.822C64.1401 72.3263 64.5373 71.903 65.0136 71.5843C65.1534 71.4887 65.3151 71.4303 65.4836 71.4143H65.5436C65.5436 71.4143 65.6736 71.5743 65.6736 71.9343C65.634 72.5089 65.4639 73.0669 65.1762 73.566C64.8886 74.065 64.491 74.4919 64.0136 74.8143ZM68.736 62.9595C68.8411 63.0525 68.9255 63.1666 68.9835 63.2944L72.3435 70.8244C72.411 70.9457 72.4525 71.0797 72.4653 71.2179C72.4782 71.3561 72.4621 71.4955 72.4182 71.6272C72.3742 71.7588 72.3033 71.8799 72.21 71.9827C72.1167 72.0854 72.003 72.1676 71.8762 72.2241C71.7494 72.2805 71.6123 72.3099 71.4735 72.3105C71.3347 72.311 71.1973 72.2826 71.07 72.2272C70.9428 72.1717 70.8285 72.0903 70.7344 71.9883C70.6403 71.8862 70.5685 71.7657 70.5236 71.6344L67.6336 65.1544L51.8336 74.3744L49.2736 84.2844C49.2169 84.5044 49.0869 84.6986 48.9052 84.8349C48.7234 84.9712 48.5006 85.0416 48.2736 85.0344C48.1905 85.0442 48.1066 85.0442 48.0236 85.0344C47.8961 85.0018 47.7763 84.9443 47.671 84.8653C47.5658 84.7862 47.4772 84.6872 47.4103 84.5739C47.3434 84.4605 47.2995 84.3351 47.2812 84.2048C47.2629 84.0744 47.2705 83.9418 47.3036 83.8144L49.9736 73.4544C50.0401 73.1982 50.2055 72.9788 50.4336 72.8444L67.5635 62.8444C67.6847 62.7734 67.8194 62.7287 67.959 62.7131C68.0985 62.6976 68.2398 62.7117 68.3735 62.7544C68.5074 62.7966 68.6309 62.8664 68.736 62.9595ZM39.2239 83.1445L28.7238 77.0845C28.4942 76.9541 28.2224 76.9199 27.9676 76.9892C27.7128 77.0585 27.4958 77.2258 27.3638 77.4545C27.2326 77.6829 27.1968 77.9539 27.2643 78.2085C27.3317 78.4632 27.4968 78.6809 27.7238 78.8145L38.2238 84.8745C38.3374 84.941 38.4629 84.9845 38.5933 85.0024C38.7237 85.0203 38.8563 85.0123 38.9836 84.9789C39.1109 84.9454 39.2303 84.8872 39.335 84.8075C39.4397 84.7278 39.5277 84.6283 39.5938 84.5145C39.66 84.4004 39.7029 84.2743 39.72 84.1435C39.7372 84.0127 39.7284 83.8798 39.694 83.7525C39.6596 83.6252 39.6003 83.5059 39.5197 83.4015C39.439 83.2972 39.3384 83.2098 39.2239 83.1445ZM28.784 72.8145L39.274 78.8145V78.8745C39.4617 78.9858 39.6078 79.1555 39.6901 79.3577C39.7723 79.5598 39.7862 79.7833 39.7295 79.9941C39.6729 80.2049 39.5488 80.3913 39.3763 80.525C39.2038 80.6587 38.9922 80.7322 38.774 80.7345C38.5988 80.7357 38.4264 80.6908 38.274 80.6045L27.784 74.5445C27.6694 74.4791 27.5689 74.3918 27.4882 74.2874C27.4075 74.1831 27.3483 74.0638 27.3139 73.9365C27.2795 73.8091 27.2706 73.6762 27.2878 73.5455C27.305 73.4147 27.3479 73.2886 27.414 73.1745C27.4802 73.0607 27.5681 72.9611 27.6729 72.8814C27.7776 72.8018 27.897 72.7435 28.0243 72.7101C28.1516 72.6766 28.2842 72.6686 28.4145 72.6866C28.5449 72.7045 28.6705 72.7479 28.784 72.8145ZM27.8136 70.2043L38.3136 76.2643C38.4651 76.3541 38.6375 76.4024 38.8136 76.4043C39.035 76.4058 39.2507 76.3338 39.4268 76.1996C39.6029 76.0654 39.7295 75.8765 39.7867 75.6626C39.8439 75.4487 39.8285 75.2218 39.7429 75.0176C39.6572 74.8134 39.5063 74.6434 39.3136 74.5343L28.8136 68.4743C28.5851 68.3547 28.3192 68.3281 28.0715 68.3999C27.8238 68.4718 27.6134 68.6366 27.4843 68.8599C27.3553 69.0832 27.3174 69.3477 27.3788 69.5983C27.4402 69.8488 27.596 70.0659 27.8136 70.2043ZM56.8534 58.8843C56.1031 59.105 55.3255 59.2194 54.5434 59.2243C53.8841 59.2347 53.2292 59.1146 52.6166 58.8709C52.0039 58.6272 51.4454 58.2647 50.9734 57.8043C48.9934 55.8343 48.9334 51.9543 50.8034 46.2643L50.8148 46.2373L50.8149 46.2373C51.078 45.6174 55.4076 35.4187 56.4934 29.7843C56.5381 29.5532 56.6629 29.3452 56.8458 29.1971C57.0287 29.0489 57.258 28.97 57.4934 28.9743C57.6034 28.9743 68.4434 29.3943 69.0034 40.4543C69.3677 43.3322 68.9531 46.2551 67.8027 48.9182C66.6524 51.5812 64.8085 53.8867 62.4634 55.5943C62.2763 55.7294 62.0482 55.7956 61.8179 55.7817C61.5875 55.7678 61.3691 55.6747 61.1995 55.5181C61.03 55.3615 60.9199 55.1512 60.8877 54.9226C60.8556 54.6941 60.9036 54.4615 61.0234 54.2643L61.0306 54.2522C61.2218 53.9325 64.9841 47.6446 63.5734 42.8443C63.202 41.5478 62.4194 40.4072 61.3434 39.5943C61.4085 42.7947 60.7236 45.966 59.3434 48.8543C59.2436 49.061 59.0758 49.2271 58.8681 49.3247C58.6604 49.4223 58.4254 49.4455 58.2026 49.3904C57.9798 49.3353 57.7828 49.2052 57.6445 49.022C57.5063 48.8388 57.4353 48.6137 57.4434 48.3843C57.4398 47.9737 57.3619 47.5671 57.2134 47.1843C56.8334 48.4443 56.3034 50.1143 55.9634 51.1843C55.9134 51.2443 54.4034 55.7643 56.9634 56.9943C57.1499 57.0819 57.3047 57.2251 57.4067 57.4041C57.5087 57.583 57.553 57.7892 57.5334 57.9943C57.5218 58.1936 57.4509 58.3848 57.3297 58.5434C57.2085 58.702 57.0426 58.8207 56.8534 58.8843ZM58.2234 31.1343C56.8434 37.1843 52.8134 46.6243 52.6334 47.0443C51.1034 51.7343 50.9834 55.1043 52.3234 56.5043C52.851 56.9869 53.5384 57.2576 54.2534 57.2643C52.6513 54.7069 53.9307 50.8723 54.0123 50.6277L54.0134 50.6243C54.6034 48.8243 55.7234 45.2143 55.7234 45.2143C55.7628 45.084 55.8283 44.9632 55.916 44.8592C56.0037 44.7552 56.1117 44.6701 56.2334 44.6093C56.3551 44.5484 56.4879 44.513 56.6238 44.5053C56.7596 44.4976 56.8956 44.5176 57.0234 44.5643C57.5857 44.7599 58.0837 45.1057 58.4634 45.5643C59.2501 43.1229 59.4824 40.5368 59.1434 37.9943C59.1091 37.813 59.1256 37.6259 59.1911 37.4534C59.2565 37.281 59.3684 37.13 59.5144 37.0172C59.6603 36.9044 59.8346 36.8341 60.018 36.8142C60.2013 36.7943 60.3866 36.8254 60.5534 36.9043C61.7207 37.4002 62.7642 38.1475 63.6094 39.093C64.4547 40.0386 65.0809 41.1589 65.4434 42.3743C66.0433 44.852 65.9289 47.449 65.1134 49.8643C66.7009 47.1264 67.3538 43.9461 66.9734 40.8043V40.6843C66.6134 33.0043 60.4934 31.4443 58.2234 31.1343ZM49.5936 16.4026C51.7164 16.4026 53.8095 15.9031 55.7036 14.9444C55.8189 14.8791 55.946 14.8374 56.0777 14.8216C56.2093 14.8059 56.3427 14.8165 56.4702 14.8528C56.5976 14.8891 56.7166 14.9503 56.8202 15.033C56.9238 15.1157 57.0099 15.2182 57.0736 15.3344C57.2039 15.564 57.2382 15.8359 57.1689 16.0907C57.0996 16.3455 56.9323 16.5625 56.7036 16.6944C54.5343 17.8669 52.099 18.4594 49.6336 18.4144C47.1406 18.4562 44.6786 17.8571 42.4836 16.6744C42.3698 16.6083 42.2702 16.5203 42.1905 16.4156C42.1108 16.3108 42.0526 16.1914 42.0192 16.0641C41.9857 15.9369 41.9777 15.8042 41.9956 15.6739C42.0135 15.5435 42.057 15.418 42.1236 15.3044C42.2571 15.0774 42.4749 14.9122 42.7296 14.8448C42.9842 14.7774 43.2551 14.8132 43.4836 14.9444C45.3776 15.9031 47.4707 16.4026 49.5936 16.4026Z" fill="#28CDCD"/>
</svg>