<svg width="100" height="100" viewBox="0 0 100 100" fill="none" xmlns="http://www.w3.org/2000/svg">
<path d="M90.2701 16.7077C90.2201 16.6577 90.1701 16.5977 90.1101 16.5677L65.6801 2.08771C63.2601 0.657712 60.2401 0.637714 57.8001 2.02771L18.5001 24.5277C11.3801 28.5477 6.98007 36.1177 7.00007 44.2877L7.19007 80.8077C7.19007 81.1677 7.38007 81.4877 7.69007 81.6677L35.9101 98.0077C35.9101 98.0077 36.0001 98.0477 36.0401 98.0577C36.2001 98.1777 36.3701 98.2977 36.5501 98.3977C37.2401 98.7977 38.0001 98.9977 38.7601 98.9977C39.5201 98.9977 40.2801 98.7977 40.9701 98.3977L81.3301 74.6377C88.2001 70.5977 92.4701 63.1277 92.4701 55.1577V20.5377C92.4701 18.9377 91.6501 17.5177 90.2601 16.7177L90.2701 16.7077ZM9.01007 44.2777C9.00007 41.0277 9.76007 37.8877 11.1501 35.0677L29.8201 45.9177C29.9801 46.0077 30.1501 46.0577 30.3201 46.0577C30.6601 46.0577 31.0001 45.8777 31.1901 45.5577C31.4701 45.0777 31.3101 44.4677 30.8301 44.1877L12.1301 33.3177C13.9301 30.4277 16.4301 27.9777 19.4901 26.2477L58.7901 3.74771C60.6001 2.70771 62.8501 2.72771 64.6501 3.78771L86.1601 16.5377C86.0401 16.5977 85.9301 16.6477 85.8201 16.7077L45.6501 40.4077C38.6801 44.4377 34.3501 51.9377 34.3501 59.9877V94.5577C34.3501 94.6277 34.3601 94.6977 34.3601 94.7677L9.19007 80.1977L9.01007 44.2577V44.2777ZM90.4801 55.1577C90.4801 62.4277 86.5901 69.2277 80.3301 72.9177L39.9701 96.6677C39.2201 97.0977 38.3201 97.0977 37.5601 96.6677C36.8101 96.2277 36.3501 95.4477 36.3501 94.5777V60.0077C36.3501 52.6677 40.3001 45.8277 46.6601 42.1577L86.8401 18.4477C87.2201 18.2177 87.6401 18.1077 88.0701 18.1077C88.5001 18.1077 88.8901 18.2177 89.2701 18.4277C90.0301 18.8577 90.4901 19.6477 90.4901 20.5177V55.1377L90.4801 55.1577Z" fill="#2FCACA"/>
<path d="M28.9801 64.6877L15.4601 56.9177C15.1501 56.7377 14.7701 56.7377 14.4601 56.9177C14.1501 57.0977 13.9601 57.4277 13.9601 57.7877V76.4777C13.9601 76.8377 14.1501 77.1677 14.4601 77.3477L27.9801 85.1177C28.1301 85.2077 28.3101 85.2477 28.4801 85.2477C28.6501 85.2477 28.8301 85.2077 28.9801 85.1177C29.2901 84.9377 29.4801 84.6077 29.4801 84.2477V65.5577C29.4801 65.1977 29.2901 64.8677 28.9801 64.6877ZM15.9601 66.3177L27.4801 72.9377V76.5877L15.9601 69.9677V66.3177ZM27.4801 66.1277V70.6277L15.9601 64.0077V59.5077L27.4801 66.1277ZM15.9601 75.8977V72.2677L27.4801 78.8877V82.5177L15.9601 75.8977Z" fill="#2FCACA"/>
<path d="M54.4501 48.9477C54.0101 48.6177 53.3801 48.6977 53.0501 49.1377C52.5101 49.8477 52.0901 50.8377 51.6901 51.8077C51.3601 52.6177 50.9401 53.6177 50.6201 53.9077C50.4901 54.0177 49.9501 53.9577 49.5901 53.9177C48.7501 53.8277 47.5901 53.6977 46.8101 54.6677C46.1401 55.4977 46.1501 56.6877 46.1701 57.8277C46.1701 58.4977 46.1901 59.3277 46.0001 59.6577C45.8101 59.9877 45.0801 60.3977 44.5001 60.7177C43.5001 61.2777 42.4701 61.8577 42.0801 62.8577C41.6301 64.0177 42.3201 64.9577 42.8201 65.6477C43.0301 65.9377 43.3601 66.3777 43.3201 66.5477C43.2501 66.8777 42.5501 67.7377 42.0801 68.3077C41.1401 69.4577 40.3301 70.4377 40.3301 71.4077C40.3301 72.9577 41.9901 73.0677 42.7801 73.1177C42.9201 73.1177 43.1001 73.1377 43.2601 73.1577C43.1401 73.5977 42.8701 74.2877 42.6901 74.7477C42.0701 76.3077 41.6201 77.4377 42.1901 78.2377C42.9801 79.3577 44.3701 78.5277 45.4901 77.8677C45.6801 77.7577 45.9301 77.6077 46.1601 77.4777C46.1601 77.7377 46.1601 78.0377 46.1601 78.2577C46.1401 79.5577 46.1201 81.1777 47.4901 81.2977C47.5301 81.2977 47.5701 81.2977 47.6201 81.2977C48.5401 81.2977 49.2701 80.3677 50.2701 79.1077C50.6401 78.6477 51.2301 77.8877 51.4901 77.6777C51.8301 77.8477 52.5401 78.5377 53.0501 79.2177C53.3801 79.6577 54.0001 79.7577 54.4501 79.4177C54.8901 79.0877 54.9801 78.4577 54.6601 78.0177C53.9001 76.9977 52.4101 75.3277 51.0401 75.6977C50.3001 75.8977 49.6801 76.6477 48.7101 77.8677C48.5601 78.0577 48.3601 78.3077 48.1701 78.5377C48.1701 78.4377 48.1701 78.3477 48.1701 78.2677C48.1901 76.9877 48.2001 75.8777 47.3601 75.3977C46.5301 74.9177 45.5801 75.4777 44.4701 76.1377C44.4001 76.1777 44.3201 76.2277 44.2401 76.2777C44.3501 75.9977 44.4601 75.7077 44.5501 75.4777C45.1201 74.0377 45.4601 73.1177 45.2601 72.3777C44.9601 71.2477 43.7301 71.1677 42.9201 71.1177C42.8001 71.1177 42.6301 71.0977 42.4801 71.0777C42.7401 70.6377 43.2701 69.9877 43.6301 69.5577C44.4301 68.5777 45.1201 67.7377 45.2801 66.9277C45.4901 65.8977 44.9001 65.0977 44.4301 64.4477C44.2101 64.1477 43.8901 63.7077 43.9401 63.5677C44.0701 63.2377 44.8801 62.7777 45.4701 62.4477C46.3501 61.9577 47.2601 61.4477 47.7201 60.6377C48.1801 59.8377 48.1701 58.7877 48.1601 57.7877C48.1601 57.1077 48.1401 56.1777 48.3601 55.8977C48.4501 55.7777 49.0301 55.8477 49.3701 55.8777C50.1701 55.9677 51.1601 56.0677 51.9401 55.3777C52.6001 54.7877 53.0601 53.7077 53.5301 52.5477C53.8801 51.7077 54.2401 50.8277 54.6301 50.3277C54.9701 49.8877 54.8801 49.2577 54.4401 48.9277L54.4501 48.9477Z" fill="#2FCACA"/>
<path d="M54.3201 59.3177C54.8001 59.0377 54.9601 58.4277 54.6901 57.9477C54.4101 57.4677 53.8001 57.3077 53.3201 57.5777C49.7901 59.6177 47.0301 64.3977 47.0301 68.4777C47.0301 70.6377 47.8101 72.2777 49.2301 73.0977C49.8401 73.4477 50.5101 73.6177 51.2401 73.6177C52.2101 73.6177 53.2601 73.3077 54.3301 72.6877C54.8101 72.4077 54.9701 71.7977 54.7001 71.3177C54.4201 70.8377 53.8101 70.6777 53.3301 70.9477C52.1101 71.6577 51.0101 71.7977 50.2301 71.3577C49.4601 70.9077 49.0301 69.8877 49.0301 68.4777C49.0301 65.1677 51.4501 60.9677 54.3201 59.3077V59.3177Z" fill="#2FCACA"/>
<path d="M71.8101 53.3177L69.4501 54.6777L70.2301 53.3277C70.5101 52.8477 70.3401 52.2377 69.8601 51.9577C69.3801 51.6777 68.7701 51.8477 68.4901 52.3277L65.9801 56.6777L60.5701 59.7977L64.8401 52.3977L68.3601 50.3677C68.8401 50.0877 69.0001 49.4777 68.7301 48.9977C68.4501 48.5177 67.8401 48.3577 67.3601 48.6277L66.8401 48.9277L68.9301 45.2977C69.2101 44.8177 69.0401 44.2077 68.5601 43.9277C68.0801 43.6477 67.4701 43.8177 67.1901 44.2977L65.1001 47.9177V47.3277C65.1001 46.7777 64.6501 46.3277 64.1001 46.3277C63.5501 46.3277 63.1001 46.7777 63.1001 47.3277V51.3777L58.8201 58.7877V52.5477L61.3401 48.1877C61.6201 47.7077 61.4501 47.0977 60.9701 46.8177C60.4901 46.5377 59.8801 46.7077 59.6001 47.1877L58.8101 48.5477V45.8077C58.8101 45.2577 58.3601 44.8077 57.8101 44.8077C57.2601 44.8077 56.8101 45.2577 56.8101 45.8077V79.2177C56.8101 79.7677 57.2601 80.2177 57.8101 80.2177C58.3601 80.2177 58.8101 79.7677 58.8101 79.2177V74.4877L59.9601 75.1477C60.1201 75.2377 60.2901 75.2777 60.4601 75.2777C60.8101 75.2777 61.1401 75.0977 61.3301 74.7777C61.6101 74.2977 61.4401 73.6877 60.9601 73.4077L58.8101 72.1677V64.2277L63.0801 66.6977V70.4477C63.0801 70.9977 63.5301 71.4477 64.0801 71.4477C64.6301 71.4477 65.0801 70.9977 65.0801 70.4477V67.8477L67.5401 69.2677C67.7001 69.3577 67.8701 69.3977 68.0401 69.3977C68.3901 69.3977 68.7201 69.2177 68.9101 68.8977C69.1901 68.4177 69.0201 67.8077 68.5401 67.5277L66.0801 66.1077L68.3201 64.8177C68.8001 64.5377 68.9601 63.9277 68.6901 63.4477C68.4101 62.9677 67.8001 62.8077 67.3201 63.0777L64.0801 64.9477L59.8001 62.4777L66.6701 58.5077L68.8201 59.7477C68.9801 59.8377 69.1501 59.8777 69.3201 59.8777C69.6701 59.8777 70.0001 59.6977 70.1901 59.3777C70.4701 58.8977 70.3001 58.2877 69.8201 58.0077L68.6701 57.3477L72.7701 54.9777C73.2501 54.6977 73.4101 54.0877 73.1401 53.6077C72.8601 53.1277 72.2501 52.9677 71.7701 53.2377L71.8101 53.3177Z" fill="#2FCACA"/>
<path d="M83.8801 44.1477V28.3877C83.8801 27.4977 83.5101 26.7677 82.8701 26.3977C82.2301 26.0277 81.4201 26.0677 80.6401 26.5177C79.3701 27.2577 78.4001 28.9177 78.4001 30.3877V46.6677C76.8701 48.4877 75.9301 50.8377 75.9301 52.8877C75.9301 54.5577 76.5401 55.8277 77.6601 56.4777C78.1401 56.7577 78.6801 56.8977 79.2501 56.8977C80.0001 56.8977 80.8101 56.6577 81.6301 56.1877C84.2701 54.6677 86.3301 51.0877 86.3301 48.0377C86.3301 46.6977 85.9301 45.6077 85.1701 44.8877C84.7901 44.5277 84.3501 44.2877 83.8601 44.1577L83.8801 44.1477ZM80.1501 47.7177C80.3201 47.5377 80.4101 47.2977 80.4101 47.0477V30.3877C80.4101 29.6377 81.0001 28.6177 81.6501 28.2477C81.7401 28.1977 81.8101 28.1677 81.8601 28.1577C81.8701 28.2077 81.8901 28.2777 81.8901 28.3877V45.0477C81.8901 45.3177 82.0001 45.5877 82.2001 45.7777C82.4001 45.9677 82.6601 46.0577 82.9401 46.0477C83.3101 46.0277 83.6001 46.1277 83.8201 46.3377C84.1601 46.6677 84.3601 47.2677 84.3601 48.0377C84.3601 48.2377 84.3301 48.4377 84.3101 48.6477L77.9901 52.2977C78.1601 50.7677 78.9801 49.0377 80.1601 47.7277L80.1501 47.7177Z" fill="#2FCACA"/>
</svg>
