<svg width="1024" height="1024" viewBox="0 0 1024 1024" fill="none" xmlns="http://www.w3.org/2000/svg">
<g clip-path="url(#clip0_3585_22413)">
<path fill-rule="evenodd" clip-rule="evenodd" d="M884.736 279.757L946.893 317.44C974.336 334.746 989.491 368.64 989.491 412.16C989.491 500.634 927.129 608.666 850.432 653.005L336.077 949.965C316.112 962.519 293.188 969.584 269.619 970.445C254.607 970.613 239.849 966.569 227.021 958.771L78.1311 867.226C49.9711 850.023 34.5087 815.616 34.5087 770.56C34.5087 679.834 98.4063 569.139 176.947 523.776C183.2 520.214 189.663 517.034 196.301 514.253C197.222 448.922 243.405 370.279 299.622 337.715C305.102 334.614 310.781 331.878 316.621 329.523C347.443 225.28 419.123 128.512 500.429 81.5105C556.851 48.8449 610.099 44.6465 650.24 69.3249L799.027 160.358C837.325 184.013 858.521 231.322 858.521 293.479C858.521 300.954 858.112 308.736 857.395 316.928C868.066 312.189 879.33 308.916 890.88 307.2L874.496 297.165C873.106 296.633 871.848 295.805 870.81 294.738C869.773 293.671 868.98 292.39 868.488 290.986C867.996 289.581 867.816 288.086 867.961 286.604C868.105 285.123 868.571 283.691 869.326 282.408C870.081 281.125 871.106 280.022 872.33 279.176C873.555 278.33 874.949 277.761 876.416 277.508C877.883 277.256 879.387 277.326 880.824 277.715C882.261 278.103 883.596 278.8 884.736 279.757ZM325.837 931.84L840.192 634.88V635.597C911.36 594.535 969.011 494.49 969.011 412.877C969.011 376.115 958.259 349.389 936.141 335.77C914.022 322.151 883.61 325.223 850.432 344.371C848.804 345.388 846.924 345.928 845.005 345.928C843.085 345.928 841.205 345.388 839.577 344.371C837.933 343.272 836.642 341.72 835.861 339.903C835.079 338.086 834.841 336.081 835.174 334.131C837.123 320.975 838.149 307.699 838.246 294.4C838.246 239.616 821.965 199.373 788.48 178.79C754.995 158.208 709.222 162.714 659.661 191.283C652.595 195.277 645.53 199.885 638.464 204.8C636.183 206.362 633.374 206.953 630.657 206.444C627.94 205.935 625.536 204.368 623.974 202.086C622.413 199.805 621.821 196.997 622.33 194.28C622.839 191.562 624.407 189.158 626.688 187.597C634.013 182.366 641.601 177.513 649.421 173.056C675.241 157.151 704.484 147.637 734.72 145.306L639.59 86.8353C606.003 66.2529 560.23 70.6561 510.669 99.2257C433.664 143.36 363.008 240.538 335.053 339.866C334.609 341.472 333.781 342.946 332.639 344.159C331.497 345.373 330.076 346.289 328.499 346.829C322.08 348.98 315.903 351.794 310.067 355.226C258.765 384.819 216.986 457.216 216.986 516.506V518.554V520.499C217.116 522.707 216.528 524.898 215.31 526.744C214.091 528.589 212.308 529.991 210.227 530.739C202.249 533.688 194.54 537.319 187.187 541.594C114.278 583.68 54.9887 686.08 54.9887 770.663C54.9887 808.346 66.9695 836.506 88.7807 849.92L192.41 913.203C186.619 896.764 183.776 879.431 184.013 862.003V860.775L178.278 863.847C176.844 864.557 175.271 864.942 173.67 864.973C171.331 865.031 169.042 864.286 167.185 862.861C165.328 861.437 164.015 859.42 163.464 857.146C162.914 854.871 163.159 852.477 164.159 850.361C165.159 848.245 166.853 846.535 168.96 845.517C171.827 844.186 174.694 842.65 177.459 841.011L185.754 836.199C196.198 751.309 255.181 656.282 326.349 615.322C328.909 613.888 331.571 612.455 334.131 611.226L228.454 546.304C227.101 545.746 225.883 544.905 224.882 543.836C223.882 542.768 223.122 541.497 222.654 540.11C222.186 538.723 222.021 537.251 222.17 535.795C222.319 534.339 222.778 532.931 223.517 531.668C224.256 530.404 225.258 529.313 226.454 528.469C227.65 527.626 229.013 527.048 230.452 526.776C231.89 526.503 233.37 526.543 234.792 526.891C236.214 527.239 237.544 527.888 238.694 528.794L346.419 594.637C351.846 531.661 395.674 459.981 448.819 429.261L452.198 427.418L349.798 364.339C348.408 363.808 347.15 362.98 346.113 361.912C345.075 360.845 344.283 359.565 343.791 358.16C343.298 356.755 343.118 355.26 343.263 353.779C343.408 352.297 343.874 350.865 344.628 349.582C345.383 348.3 346.408 347.197 347.633 346.35C348.857 345.504 350.252 344.935 351.718 344.683C353.185 344.43 354.69 344.501 356.127 344.889C357.563 345.277 358.898 345.974 360.038 346.931L466.432 414.106C475.676 385.039 487.749 356.95 502.477 330.24C503.835 327.864 506.081 326.124 508.721 325.404C511.362 324.684 514.18 325.042 516.557 326.4C518.933 327.758 520.673 330.004 521.393 332.645C522.113 335.285 521.755 338.104 520.397 340.48C504.184 369.652 491.336 400.57 482.099 432.64C481.587 432.947 481.587 433.562 481.587 433.562C481.429 434.124 481.224 434.673 480.973 435.2C480.629 435.702 480.253 436.181 479.846 436.634C478.802 437.675 477.544 438.479 476.16 438.989C469.801 441.208 463.664 444.019 457.83 447.386C406.426 477.082 364.646 549.479 364.646 608.768C364.593 609.416 364.593 610.066 364.646 610.714V612.762C364.695 613.136 364.695 613.514 364.646 613.888C364.697 614.296 364.697 614.709 364.646 615.117C364.431 616.048 364.086 616.944 363.622 617.779V618.394C363.512 618.671 363.336 618.916 363.11 619.111C362.714 619.693 362.231 620.211 361.677 620.647L360.858 621.261C360.311 621.629 359.728 621.938 359.117 622.183C351.166 624.951 343.459 628.376 336.077 632.423C263.27 674.509 203.878 777.216 203.878 861.389C203.878 899.175 215.04 926.823 237.773 940.749C260.506 954.675 291.738 951.603 325.837 931.84ZM571.58 265.301C570.236 265.92 568.775 266.24 567.296 266.24C564.864 266.159 562.541 265.216 560.742 263.578C559.72 262.704 558.88 261.637 558.27 260.438C557.661 259.24 557.293 257.933 557.188 256.592C557.084 255.251 557.244 253.903 557.661 252.624C558.077 251.346 558.742 250.161 559.616 249.139C565.657 242.176 571.801 235.52 577.945 229.171C578.897 228.212 580.03 227.45 581.278 226.93C582.526 226.41 583.864 226.142 585.216 226.142C586.568 226.142 587.906 226.41 589.154 226.93C590.402 227.45 591.534 228.212 592.486 229.171C594.393 231.09 595.464 233.685 595.464 236.391C595.464 239.096 594.393 241.691 592.486 243.61C586.649 249.651 580.71 256 575.078 262.656C574.117 263.78 572.923 264.683 571.58 265.301ZM818.38 392.192C815.827 391.269 813.013 391.398 810.555 392.551C808.097 393.703 806.197 395.783 805.273 398.336C802.611 405.913 799.436 413.491 796.057 420.966C795.489 422.189 795.169 423.513 795.114 424.86C795.058 426.208 795.27 427.553 795.736 428.818C796.203 430.084 796.914 431.244 797.83 432.234C798.746 433.224 799.849 434.023 801.075 434.585C802.43 435.183 803.894 435.496 805.376 435.507C807.345 435.503 809.272 434.931 810.925 433.859C812.578 432.787 813.886 431.262 814.694 429.465C818.278 421.58 821.657 413.388 824.934 405.299C825.381 404.009 825.566 402.642 825.477 401.28C825.389 399.917 825.029 398.586 824.418 397.365C823.807 396.144 822.959 395.057 821.922 394.168C820.885 393.28 819.681 392.608 818.38 392.192ZM728.269 516.404C742.42 503.191 755.153 488.536 766.26 472.679H766.464C767.244 471.583 768.233 470.651 769.373 469.937C770.512 469.223 771.782 468.741 773.108 468.517C774.435 468.294 775.792 468.334 777.103 468.635C778.414 468.936 779.653 469.493 780.749 470.273C781.845 471.052 782.777 472.041 783.491 473.181C784.205 474.321 784.687 475.59 784.911 476.917C785.134 478.243 785.094 479.601 784.793 480.912C784.492 482.223 783.936 483.461 783.156 484.557C771.173 501.543 757.445 517.228 742.196 531.354C741.236 532.379 740.077 533.196 738.788 533.754C737.5 534.312 736.111 534.599 734.707 534.597C733.303 534.596 731.915 534.306 730.628 533.745C729.341 533.184 728.183 532.364 727.226 531.337C726.269 530.31 725.534 529.097 725.065 527.773C724.597 526.45 724.406 525.044 724.504 523.644C724.601 522.243 724.986 520.878 725.634 519.632C726.282 518.387 727.179 517.288 728.269 516.404ZM675.84 552.96L550.093 625.562C547.864 626.979 546.269 629.202 545.64 631.767C545.012 634.333 545.399 637.041 546.721 639.328C548.043 641.615 550.197 643.302 552.733 644.038C555.27 644.774 557.993 644.501 560.333 643.277L686.08 570.778C687.25 570.105 688.276 569.209 689.099 568.14C689.923 567.071 690.528 565.851 690.88 564.548C691.232 563.245 691.323 561.886 691.15 560.548C690.976 559.21 690.541 557.919 689.869 556.749C689.196 555.579 688.3 554.553 687.231 553.73C686.162 552.906 684.942 552.301 683.639 551.949C682.336 551.597 680.977 551.506 679.639 551.679C678.301 551.852 677.01 552.288 675.84 552.96ZM450.56 683.212L498.688 655.359L498.893 655.257C500.059 654.516 501.362 654.019 502.725 653.794C504.088 653.57 505.482 653.624 506.823 653.953C508.164 654.281 509.425 654.878 510.53 655.706C511.635 656.535 512.561 657.579 513.252 658.774C513.943 659.97 514.386 661.293 514.552 662.664C514.719 664.035 514.606 665.425 514.221 666.752C513.837 668.078 513.187 669.313 512.313 670.382C511.439 671.451 510.357 672.332 509.133 672.972L460.698 700.927C459.168 701.795 457.44 702.253 455.68 702.259C453.446 702.236 451.28 701.483 449.513 700.114C447.747 698.745 446.476 696.836 445.896 694.677C445.316 692.519 445.458 690.23 446.3 688.16C447.142 686.09 448.638 684.352 450.56 683.212ZM400.18 712.089L318.977 758.988C317.004 760.106 315.458 761.847 314.581 763.938C313.705 766.029 313.547 768.352 314.132 770.542C314.718 772.733 316.014 774.667 317.818 776.041C319.621 777.416 321.829 778.153 324.097 778.137C325.9 778.118 327.666 777.624 329.217 776.703L410.42 729.907C412.783 728.549 414.509 726.308 415.22 723.677C415.93 721.046 415.567 718.241 414.209 715.878C412.851 713.515 410.61 711.788 407.979 711.078C405.348 710.367 402.543 710.731 400.18 712.089ZM253.337 796.979L268.185 788.48C270.524 787.136 273.299 786.77 275.906 787.46C278.514 788.15 280.744 789.841 282.112 792.166C282.793 793.329 283.238 794.614 283.421 795.949C283.605 797.284 283.523 798.642 283.181 799.946C282.838 801.249 282.242 802.472 281.426 803.544C280.61 804.616 279.59 805.517 278.425 806.195L263.577 814.694C262.047 815.561 260.319 816.02 258.56 816.025C256.755 816.032 254.981 815.563 253.417 814.663C251.852 813.764 250.553 812.468 249.651 810.905C248.307 808.566 247.941 805.792 248.631 803.184C249.321 800.577 251.012 798.347 253.337 796.979Z" fill="#2FCACA"/>
</g>
<defs>
<clipPath id="clip0_3585_22413">
<rect width="1024" height="1024" fill="white"/>
</clipPath>
</defs>
</svg>
