<svg width="100" height="100" viewBox="0 0 100 100" fill="none" xmlns="http://www.w3.org/2000/svg">
<path d="M50.6804 46.4141L46.6804 48.7241L44.4004 56.644L47.1003 55.084L44.8303 63.134L51.9702 49.5341L48.6204 51.4641L50.6804 46.4141Z" fill="#28CDCD"/>
<path d="M50.6804 68.0439L46.6804 70.3539L44.4004 78.2739L47.1003 76.7139L44.8303 84.7639L51.9702 71.1639L48.6204 73.0939L50.6804 68.0439Z" fill="#28CDCD"/>
<path d="M76.0295 45.2739L83.1697 31.6639L79.8196 33.6039L81.8696 28.5439L77.8696 30.8539L75.5996 38.7839L78.2996 37.2239L76.0295 45.2739Z" fill="#28CDCD"/>
<path d="M94.5099 17.204C94.5099 17.204 94.5099 17.144 94.5099 17.114C94.4964 17.0021 94.4627 16.8936 94.41 16.794V16.794C94.3491 16.6946 94.2713 16.6066 94.1801 16.534L94.11 16.474C94.0869 16.4694 94.063 16.4694 94.0399 16.474L68.9 2.13397C68.748 2.0462 68.5756 2 68.4 2C68.2245 2 68.052 2.0462 67.9 2.13397L5.51001 37.854C5.35554 37.9408 5.22682 38.0671 5.13721 38.22C5.0476 38.3728 5.00031 38.5468 5 38.724V81.854C5.00031 82.0312 5.0476 82.2051 5.13721 82.358C5.22682 82.5108 5.35554 82.6372 5.51001 82.724L30.65 97.054C30.65 97.054 30.65 97.054 30.72 97.054H30.7999C30.9089 97.0936 31.0241 97.1139 31.14 97.114C31.2593 97.1151 31.3778 97.0947 31.49 97.054H31.5699C31.5699 97.054 31.57 97.054 31.64 97.054L94.0299 61.334C94.1844 61.2472 94.3131 61.1209 94.4027 60.968C94.4923 60.8152 94.5396 60.6412 94.5399 60.464V17.284C94.5399 17.284 94.5099 17.234 94.5099 17.204ZM63.34 76.654V60.814C63.34 60.5487 63.2345 60.2944 63.047 60.1069C62.8595 59.9193 62.6052 59.814 62.34 59.814C62.0747 59.814 61.8205 59.9193 61.6329 60.1069C61.4454 60.2944 61.34 60.5487 61.34 60.814V77.744L32.14 94.464V77.854C32.14 77.5888 32.0346 77.3344 31.847 77.1469C31.6595 76.9594 31.4052 76.854 31.14 76.854C30.8748 76.854 30.6204 76.9594 30.4329 77.1469C30.2453 77.3344 30.14 77.5888 30.14 77.854V94.464L7 81.274V39.274L68.4 4.12396L91.5199 17.314L62.34 33.984L41.34 21.984C41.1114 21.8645 40.8455 21.8378 40.5978 21.9097C40.3501 21.9815 40.1397 22.1463 40.0106 22.3696C39.8815 22.5929 39.8438 22.8575 39.9052 23.108C39.9665 23.3585 40.1223 23.5756 40.34 23.714L60.34 35.134L31.15 51.844L10.15 39.844C10.0358 39.7783 9.90961 39.7358 9.77893 39.7189C9.64825 39.7019 9.51552 39.7109 9.38831 39.7452C9.26109 39.7796 9.14186 39.8387 9.03748 39.9191C8.93309 39.9996 8.84557 40.0997 8.77991 40.214C8.71425 40.3282 8.67185 40.4543 8.65491 40.585C8.63797 40.7156 8.64692 40.8484 8.68127 40.9756C8.71563 41.1029 8.77468 41.222 8.8551 41.3264C8.93553 41.4308 9.03577 41.5183 9.15002 41.584L30.15 53.584V72.914L10.15 61.484C10.0353 61.4183 9.90866 61.376 9.77747 61.3595C9.64628 61.343 9.51303 61.3528 9.38562 61.3881C9.25821 61.4235 9.13912 61.4837 9.03516 61.5654C8.93119 61.6471 8.8444 61.7486 8.77991 61.864C8.65036 62.0948 8.61761 62.3676 8.68884 62.6225C8.76007 62.8774 8.92947 63.0938 9.15991 63.224L30.6899 75.504C30.8394 75.5887 31.0081 75.6334 31.1799 75.634C31.3551 75.6352 31.5275 75.5903 31.6799 75.504L62.88 57.644C63.0326 57.5559 63.1591 57.429 63.2469 57.2762C63.3348 57.1235 63.3807 56.9502 63.38 56.774V39.284C63.38 39.0188 63.2746 38.7644 63.087 38.5769C62.8995 38.3894 62.6452 38.284 62.38 38.284C62.1148 38.284 61.8605 38.3894 61.673 38.5769C61.4854 38.7644 61.38 39.0188 61.38 39.284V56.194L32.1799 72.914V53.584L92.58 19.004V38.334L65.34 53.904C65.1092 54.0366 64.9406 54.2555 64.8712 54.5124C64.8018 54.7693 64.8372 55.0432 64.9698 55.274C65.1025 55.5047 65.3213 55.6733 65.5782 55.7427C65.8352 55.8121 66.1092 55.7766 66.34 55.644L92.5499 40.644V59.884L63.34 76.654Z" fill="#28CDCD"/>
<path d="M81.8696 50.1841L77.8696 52.4941L75.5996 60.4141L78.2996 58.8541L76.0295 66.9041L83.1697 53.3041L79.8196 55.2341L81.8696 50.1841Z" fill="#28CDCD"/>
<path d="M30.5295 46.5541C31.3977 47.024 32.3726 47.2617 33.3596 47.2441C34.3497 47.2603 35.3273 47.0227 36.1996 46.5541C36.6192 46.35 36.9767 46.0375 37.2351 45.649C37.4935 45.2605 37.6435 44.81 37.6696 44.3441V39.6541C37.6415 39.1887 37.4907 38.7391 37.2325 38.3509C36.9743 37.9627 36.6179 37.6498 36.1996 37.444C35.3233 36.9907 34.3512 36.7542 33.3646 36.7542C32.3781 36.7542 31.4058 36.9907 30.5295 37.444C30.1112 37.6498 29.7549 37.9627 29.4967 38.3509C29.2385 38.7391 29.0876 39.1887 29.0596 39.6541V44.394C29.0922 44.8518 29.2454 45.2927 29.5035 45.6721C29.7617 46.0515 30.1157 46.3558 30.5295 46.5541V46.5541ZM31.5295 39.124C32.1018 38.8477 32.7291 38.7042 33.3646 38.7042C34.0001 38.7042 34.6273 38.8477 35.1996 39.124C35.5696 39.334 35.6696 39.5341 35.6696 39.6041C35.6696 39.6741 35.5696 39.8741 35.1996 40.0941C34.4411 40.4686 33.5859 40.6013 32.7496 40.4741C32.6183 40.457 32.4849 40.4659 32.3571 40.5004C32.2292 40.5349 32.1093 40.5943 32.0044 40.675C31.8995 40.7558 31.8115 40.8565 31.7455 40.9713C31.6795 41.086 31.6367 41.2127 31.6196 41.3441C31.6026 41.4754 31.6115 41.6088 31.646 41.7366C31.6805 41.8645 31.7398 41.9843 31.8206 42.0892C31.9013 42.1942 32.002 42.2822 32.1168 42.3482C32.2316 42.4142 32.3583 42.457 32.4896 42.4741C32.7779 42.5139 33.0686 42.534 33.3596 42.5341C34.1511 42.5412 34.9361 42.3917 35.6696 42.0941V44.3641C35.6696 44.4441 35.5396 44.6441 35.1996 44.8441C34.6288 45.1254 34.001 45.2718 33.3646 45.2718C32.7283 45.2718 32.1003 45.1254 31.5295 44.8441C31.1895 44.6441 31.0596 44.4441 31.0596 44.3641V39.6541C31.0596 39.5241 31.1895 39.324 31.5295 39.124Z" fill="#28CDCD"/>
<path d="M43.5999 39.0239C44.468 39.4939 45.4429 39.7315 46.4299 39.7139C47.42 39.7301 48.3975 39.4926 49.2698 39.0239C49.6888 38.8202 50.0454 38.5076 50.3022 38.1188C50.5591 37.73 50.7067 37.2793 50.7297 36.8139V32.0739C50.7047 31.609 50.5564 31.1593 50.2998 30.7709C50.0432 30.3824 49.6875 30.0694 49.2698 29.864C48.3935 29.4106 47.4214 29.1741 46.4348 29.1741C45.4482 29.1741 44.4761 29.4106 43.5999 29.864C43.1788 30.0689 42.8203 30.3828 42.5618 30.7733C42.3032 31.1637 42.1542 31.6163 42.1299 32.0839V36.8139C42.1528 37.2806 42.3015 37.7325 42.5603 38.1215C42.8191 38.5106 43.1783 38.8224 43.5999 39.0239ZM44.5999 31.5939C45.1721 31.3176 45.7993 31.1741 46.4348 31.1741C47.0703 31.1741 47.6975 31.3176 48.2698 31.5939C48.6098 31.7939 48.7297 31.9939 48.7297 32.0739C48.7297 32.1539 48.6398 32.3439 48.2698 32.5639C47.5448 32.9206 46.7322 33.0595 45.9299 32.9639C45.7986 32.9495 45.6657 32.9611 45.5388 32.998C45.412 33.0349 45.2935 33.0964 45.1904 33.179C45.0874 33.2617 45.0016 33.3638 44.938 33.4796C44.8744 33.5954 44.8343 33.7226 44.8198 33.8539C44.8054 33.9853 44.8169 34.1181 44.8538 34.245C44.8907 34.3718 44.9523 34.4902 45.0349 34.5933C45.1176 34.6963 45.2197 34.7821 45.3354 34.8457C45.4512 34.9093 45.5786 34.9495 45.71 34.9639C45.9531 34.9787 46.1968 34.9787 46.4399 34.9639C47.225 34.9716 48.0034 34.822 48.7297 34.5239V36.7939C48.7297 36.8639 48.6398 37.0639 48.2698 37.2739C47.6973 37.5554 47.0679 37.7018 46.4299 37.7018C45.7919 37.7018 45.1624 37.5554 44.5898 37.2739C44.2298 37.0639 44.1299 36.8639 44.1299 36.7939V32.0639C44.1299 32.0039 44.2299 31.8139 44.5999 31.5939Z" fill="#28CDCD"/>
<path d="M61.7197 28.6539C62.5978 29.1073 63.5716 29.3439 64.5598 29.3439C65.548 29.3439 66.5219 29.1073 67.3999 28.6539C67.8177 28.4485 68.1731 28.1354 68.4297 27.747C68.6863 27.3586 68.8348 26.9088 68.8599 26.4439V21.7039C68.8358 21.2388 68.6876 20.7886 68.4309 20.4C68.1742 20.0114 67.8183 19.6986 67.3999 19.494C66.5219 19.0406 65.548 18.804 64.5598 18.804C63.5716 18.804 62.5978 19.0406 61.7197 19.494C61.3013 19.6986 60.9454 20.0114 60.6887 20.4C60.432 20.7886 60.2838 21.2388 60.2598 21.7039V26.4439C60.2848 26.9088 60.4333 27.3586 60.6899 27.747C60.9466 28.1354 61.302 28.4485 61.7197 28.6539V28.6539ZM62.7197 21.2239C63.2911 20.9447 63.919 20.7996 64.5549 20.7996C65.1909 20.7996 65.8185 20.9447 66.3899 21.2239C66.7399 21.4239 66.8599 21.6239 66.8599 21.7039C66.8599 21.7839 66.7399 21.994 66.3999 22.184C65.6517 22.5571 64.8073 22.6931 63.9797 22.5739C63.8484 22.5575 63.7153 22.5671 63.5876 22.6022C63.46 22.6373 63.3405 22.6972 63.2361 22.7784C63.1316 22.8597 63.0442 22.9607 62.9788 23.0757C62.9133 23.1908 62.8712 23.3176 62.8547 23.4489C62.8383 23.5802 62.848 23.7135 62.8831 23.8411C62.9181 23.9687 62.9781 24.0882 63.0593 24.1926C63.1406 24.2971 63.2416 24.3845 63.3567 24.45C63.4717 24.5154 63.5984 24.5575 63.7297 24.5739C64.0029 24.5888 64.2767 24.5888 64.5498 24.5739C65.3409 24.5767 66.1252 24.4273 66.8599 24.1339V26.4039C66.8599 26.4839 66.7399 26.6839 66.3999 26.8839C65.8259 27.1604 65.1969 27.304 64.5598 27.304C63.9227 27.304 63.2937 27.1604 62.7197 26.8839C62.3497 26.6639 62.2598 26.4739 62.2598 26.4039V21.6639C62.2598 21.6539 62.3397 21.4739 62.7197 21.2639V21.2239Z" fill="#28CDCD"/>
<path d="M74.7903 21.1639C75.6625 21.6325 76.6403 21.8701 77.6304 21.8539C78.6174 21.8715 79.5923 21.6338 80.4604 21.1639C80.8801 20.9598 81.2374 20.6473 81.4958 20.2588C81.7543 19.8703 81.9044 19.4198 81.9304 18.9539V14.2139C81.9044 13.748 81.7543 13.2975 81.4958 12.9089C81.2374 12.5204 80.8801 12.2079 80.4604 12.0038C79.5842 11.5505 78.6118 11.314 77.6252 11.314C76.6387 11.314 75.6665 11.5505 74.7903 12.0038C74.3707 12.2079 74.0133 12.5204 73.7549 12.9089C73.4965 13.2975 73.3463 13.748 73.3203 14.2139V18.9539C73.3463 19.4198 73.4965 19.8703 73.7549 20.2588C74.0133 20.6473 74.3707 20.9598 74.7903 21.1639ZM75.7903 13.7339C76.3625 13.4576 76.9898 13.314 77.6252 13.314C78.2607 13.314 78.8882 13.4576 79.4604 13.7339C79.8304 13.9439 79.9304 14.1439 79.9304 14.2139C79.9304 14.2839 79.8104 14.5038 79.4604 14.6938C78.7477 15.0549 77.9431 15.1942 77.1504 15.0939C77.019 15.0801 76.8859 15.0925 76.7593 15.1303C76.6327 15.1682 76.5149 15.2308 76.4126 15.3145C76.3103 15.3981 76.2258 15.5012 76.1636 15.6179C76.1014 15.7345 76.0628 15.8623 76.0503 15.9939C76.0251 16.2562 76.1046 16.5178 76.2712 16.7219C76.4379 16.926 76.6784 17.0561 76.9404 17.0839C77.1735 17.0988 77.4073 17.0988 77.6404 17.0839C78.425 17.0866 79.2027 16.9371 79.9304 16.6439V18.9139C79.9304 18.9839 79.8304 19.1739 79.4604 19.3939C78.8882 19.6702 78.2607 19.8137 77.6252 19.8137C76.9898 19.8137 76.3625 19.6702 75.7903 19.3939C75.4203 19.1739 75.3203 18.9839 75.3203 18.9139V14.1739C75.3403 14.1339 75.4503 13.9339 75.7903 13.7339Z" fill="#28CDCD"/>
</svg>
