<svg width="100" height="100" viewBox="0 0 100 100" fill="none" xmlns="http://www.w3.org/2000/svg">
<path fill-rule="evenodd" clip-rule="evenodd" d="M5.59845 43.1964L4.45845 42.5364C4.13642 42.3513 3.87228 42.0802 3.69566 41.7535C3.51904 41.4267 3.4369 41.0572 3.45845 40.6864V15.2864C3.52141 14.6969 3.70586 14.1269 4.00018 13.6123C4.2945 13.0977 4.6923 12.6496 5.16845 12.2964L7.30845 10.5464C9.73499 8.50485 12.5046 6.91012 15.4884 5.83644L17.6384 5.10644C17.9596 4.99449 18.3048 4.97032 18.6384 5.03644H18.8184H18.9284H19.0084H19.0885L23.0885 7.30644L23.2285 7.38644C23.4934 7.58944 23.7047 7.85405 23.8441 8.15728C23.9835 8.46051 24.0468 8.7932 24.0285 9.12644V34.5864C24.0031 35.1924 23.8502 35.7862 23.5796 36.329C23.3091 36.8718 22.927 37.3514 22.4584 37.7364V42.3564C22.373 44.045 21.8834 45.6884 21.0307 47.1485C20.178 48.6085 18.9872 49.8424 17.5585 50.7464C16.8169 51.2031 15.9689 51.4582 15.0984 51.4864C14.5232 51.4922 13.9569 51.3437 13.4584 51.0564C12.8624 50.6665 12.3813 50.1244 12.0648 49.4862C11.7484 48.848 11.6081 48.137 11.6584 47.4264C11.6584 47.1612 11.7638 46.9069 11.9513 46.7193C12.1389 46.5318 12.3932 46.4264 12.6584 46.4264C12.9237 46.4264 13.178 46.5318 13.3656 46.7193C13.5531 46.9069 13.6584 47.1612 13.6584 47.4264C13.6139 47.786 13.6602 48.151 13.7929 48.4881C13.9257 48.8252 14.1407 49.1238 14.4185 49.3564C14.7665 49.4843 15.1411 49.5229 15.5079 49.4687C15.8747 49.4146 16.2221 49.2694 16.5184 49.0464C17.6318 48.3091 18.5595 47.3242 19.2291 46.1689C19.8987 45.0136 20.2921 43.719 20.3784 42.3864V39.3864L20.2584 39.4864C17.8308 41.5265 15.0615 43.121 12.0784 44.1964L9.93844 44.9264C9.71319 45.0043 9.47675 45.0448 9.23845 45.0464C9.16548 45.0568 9.09141 45.0568 9.01844 45.0464C8.84327 45.0476 8.67085 45.0028 8.51844 44.9164L7.59845 44.3764V55.1564C7.59845 55.4217 7.49309 55.676 7.30555 55.8635C7.11802 56.0511 6.86366 56.1564 6.59845 56.1564C6.33323 56.1564 6.07887 56.0511 5.89134 55.8635C5.7038 55.676 5.59845 55.4217 5.59845 55.1564V43.1964ZM11.4584 42.2864C14.237 41.2921 16.817 39.8125 19.0784 37.9164L21.1884 36.1664C21.4257 35.9679 21.6212 35.7242 21.7637 35.4496C21.9062 35.1749 21.9927 34.8748 22.0184 34.5664V9.12644L20.0184 9.80644C17.2611 10.8072 14.7018 12.2865 12.4584 14.1764L10.2884 15.9264C10.0512 16.125 9.85568 16.3687 9.71321 16.6433C9.57074 16.918 9.48415 17.2181 9.45845 17.5264V42.9664L11.4584 42.2864ZM6.28845 13.6864C5.81099 14.089 5.51253 14.6643 5.45845 15.2864L5.51844 40.7264C5.51042 40.7728 5.51042 40.8201 5.51844 40.8664L7.45845 41.9864V17.5264C7.48131 16.922 7.63114 16.3292 7.89819 15.7865C8.16524 15.2438 8.54352 14.7633 9.00845 14.3764L11.1484 12.6264C13.5761 10.5864 16.3454 8.99185 19.3284 7.91644L19.7884 7.75644L18.1284 6.81644L16.0184 7.56644C13.2601 8.56508 10.7005 10.0446 8.45845 11.9364L6.28845 13.6864ZM20.0684 28.4425C20.244 28.4425 20.4164 28.4887 20.5684 28.5765C20.721 28.6646 20.8477 28.7914 20.9355 28.9442C21.0233 29.097 21.0691 29.2703 21.0684 29.4465V34.0565C21.0691 34.2327 21.0233 34.406 20.9355 34.5587C20.8477 34.7115 20.721 34.8384 20.5684 34.9265L11.8984 39.9265C11.746 40.0129 11.5736 40.0577 11.3984 40.0565C11.2233 40.0577 11.0508 40.0129 10.8984 39.9265C10.7458 39.8384 10.6192 39.7115 10.5314 39.5587C10.4436 39.406 10.3977 39.2327 10.3984 39.0565V34.4365C10.3995 34.262 10.4462 34.0908 10.5339 33.9399C10.6216 33.789 10.7473 33.6637 10.8984 33.5765L19.5684 28.5765C19.7205 28.4887 19.8929 28.4425 20.0684 28.4425ZM12.3984 37.3365L19.0684 33.4765V31.1765L12.3984 35.0265V37.3365ZM46.9986 77.5864C45.5786 76.7664 43.7586 76.9164 41.8786 77.9964C40.0327 79.1781 38.496 80.7839 37.3966 82.6799C36.2972 84.576 35.6671 86.7074 35.5586 88.8964C35.5586 91.0464 36.3386 92.6764 37.7486 93.4864C38.3572 93.8354 39.047 94.0182 39.7486 94.0164C40.8493 93.9786 41.9212 93.6546 42.8586 93.0764C44.7043 91.8955 46.2404 90.2896 47.3382 88.3933C48.436 86.4969 49.0637 84.3651 49.1686 82.1764C49.1886 80.0364 48.4586 78.4064 46.9986 77.5864ZM41.8786 91.3464C41.4347 91.6751 40.9144 91.8852 40.3667 91.957C39.8191 92.0287 39.2621 91.9597 38.7486 91.7564C38.3191 91.4239 37.9836 90.9854 37.775 90.484C37.5663 89.9825 37.4918 89.4354 37.5586 88.8964C37.677 87.0623 38.2191 85.2806 39.1422 83.6913C40.0652 82.1019 41.3442 80.7482 42.8786 79.7364C43.5122 79.3345 44.2392 79.1036 44.9886 79.0664C45.3377 79.0641 45.6817 79.1501 45.9886 79.3164C46.4188 79.6483 46.7549 80.0867 46.9636 80.5883C47.1723 81.0899 47.2464 81.6374 47.1786 82.1764C47.0624 84.0102 46.5235 85.7922 45.604 87.383C44.6846 88.9738 43.4095 90.3304 41.8786 91.3464ZM42.7823 83.0263C43.1042 83.0122 43.424 83.0848 43.7082 83.2364C43.9751 83.41 44.1909 83.6517 44.3333 83.9364C44.4756 84.2212 44.5395 84.5388 44.5182 84.8564C44.4952 85.44 44.3302 86.0092 44.0374 86.5145C43.7447 87.0199 43.333 87.4462 42.8383 87.7564C42.536 87.9402 42.1917 88.0435 41.8383 88.0564C41.5577 88.0582 41.2817 87.9858 41.0382 87.8464C40.7643 87.6757 40.5415 87.4341 40.3937 87.1472C40.2458 86.8602 40.1783 86.5386 40.1983 86.2164C40.2213 85.6329 40.3863 85.0637 40.6791 84.5584C40.9718 84.053 41.3835 83.6267 41.8782 83.3164C42.1482 83.1405 42.4604 83.0403 42.7823 83.0263ZM97.0483 38.6865L96.1683 36.9965C95.2078 35.1388 93.7322 33.5972 91.9183 32.5565L76.8583 23.8765C76.2909 23.5494 75.6607 23.3464 75.0091 23.2809C74.3575 23.2154 73.6994 23.2889 73.0783 23.4965C72.272 23.7631 71.4355 23.9277 70.5883 23.9865L60.8283 24.6165C60.7255 24.6255 60.6245 24.649 60.5283 24.6865L41.8383 32.1465C41.5083 32.2665 33.6783 35.2165 30.9683 38.7665L19.3183 51.2165L5.63829 62.1465C5.44071 62.3152 5.31655 62.5542 5.2921 62.8128C5.26765 63.0715 5.34482 63.3295 5.50728 63.5322C5.66974 63.735 5.90474 63.8666 6.16251 63.8991C6.42027 63.9316 6.68057 63.8625 6.88829 63.7065L20.0983 53.1565L43.2983 66.4365L34.5983 75.4365C34.412 75.6238 34.3075 75.8773 34.3075 76.1415C34.3075 76.4056 34.412 76.6591 34.5983 76.8465C34.6913 76.9402 34.8019 77.0146 34.9237 77.0654C35.0456 77.1161 35.1763 77.1423 35.3083 77.1423C35.4403 77.1423 35.571 77.1161 35.6929 77.0654C35.8147 77.0146 35.9253 76.9402 36.0183 76.8465L45.5983 66.9065C45.6501 66.8568 45.6939 66.7995 45.7283 66.7365L54.7283 52.2465L75.5883 40.1065L90.5083 39.5865C90.6733 39.5826 90.8347 39.5379 90.9783 39.4565L94.1783 37.5865C94.2051 37.6324 94.2334 37.6769 94.2614 37.721C94.3066 37.7922 94.3513 37.8624 94.3883 37.9365L95.2683 39.6365C96.3636 41.7431 96.9364 44.0821 96.9383 46.4565C96.9327 47.5739 96.7063 48.6793 96.2721 49.709C95.838 50.7387 95.2046 51.6724 94.4083 52.4565L92.7783 54.0565C92.6422 53.2373 92.3327 52.4567 91.8705 51.7669C91.4083 51.077 90.8041 50.4939 90.0983 50.0565C88.2183 48.9665 85.7883 49.1765 83.2583 50.6365C80.7901 52.2213 78.7193 54.3522 77.2056 56.8646C75.6919 59.3771 74.7759 62.2038 74.5283 65.1265L51.0283 78.6865C50.9392 77.7765 50.6433 76.8989 50.1633 76.1207C49.6832 75.3425 49.0316 74.6843 48.2583 74.1965C46.3783 73.1065 43.9483 73.3165 41.4183 74.7765C36.8083 77.4465 33.1383 83.4665 32.7183 88.8465H28.3583C24.8922 88.8175 21.4948 87.8759 18.5083 86.1165L5.5083 78.4965C4.90083 78.1457 4.39626 77.6414 4.04523 77.0341C3.69419 76.4268 3.50902 75.7379 3.5083 75.0365V74.0365C3.5083 73.7712 3.40294 73.5169 3.21541 73.3293C3.02787 73.1418 2.77352 73.0365 2.5083 73.0365C2.24308 73.0365 1.98873 73.1418 1.80119 73.3293C1.61366 73.5169 1.5083 73.7712 1.5083 74.0365V75.0365C1.51186 75.9466 1.71675 76.8448 2.10829 77.6665C2.62871 78.7289 3.44922 79.6155 4.46829 80.2165L17.4683 87.8465C20.7601 89.7787 24.5014 90.8131 28.3183 90.8465L33.6483 90.8965C33.9106 90.8954 34.162 90.7912 34.3483 90.6065C34.4428 90.5138 34.518 90.4034 34.5695 90.2815C34.621 90.1597 34.6478 90.0288 34.6483 89.8965C34.6483 85.0065 38.1183 79.0165 42.3883 76.5565C44.2683 75.4665 45.9883 75.2565 47.2283 75.9665C48.4683 76.6765 49.1283 78.2465 49.1283 80.3865C49.1293 80.561 49.1761 80.7322 49.2638 80.883C49.3515 81.0339 49.4772 81.1592 49.6283 81.2465C49.7803 81.3342 49.9528 81.3804 50.1283 81.3804C50.3038 81.3804 50.4763 81.3342 50.6283 81.2465L75.9883 66.6465C76.1409 66.5584 76.2675 66.4315 76.3553 66.2787C76.4431 66.1259 76.489 65.9527 76.4883 65.7765C76.4883 60.8765 79.9583 54.8965 84.2283 52.4265C86.1183 51.3365 87.8383 51.1365 89.0683 51.8465C90.2983 52.5565 90.9683 54.1165 90.9683 56.2665C90.9691 56.463 91.0278 56.655 91.1372 56.8184C91.2465 56.9818 91.4015 57.1093 91.5829 57.1851C91.7643 57.2608 91.964 57.2815 92.157 57.2444C92.3501 57.2072 92.5279 57.1141 92.6683 56.9765L95.7783 53.9265C96.7662 52.9529 97.5515 51.7933 98.0887 50.5146C98.6259 49.2359 98.9045 47.8634 98.9083 46.4765C98.9175 43.7687 98.2798 41.0979 97.0483 38.6865ZM44.5683 64.8465L21.5983 51.6865L32.4583 40.1265L52.6383 51.8465L44.5683 64.8465ZM90.1883 37.5865L75.2683 38.1065C75.1033 38.1103 74.9418 38.155 74.7983 38.2365L54.0083 50.3365L33.8883 38.6865C36.9683 36.1565 42.4783 34.0665 42.5583 34.0365L61.1183 26.6365L70.7083 26.0065C71.7289 25.9418 72.7371 25.7468 73.7083 25.4265C74.0592 25.3062 74.4319 25.2626 74.8011 25.2989C75.1703 25.3351 75.5274 25.4502 75.8483 25.6365L90.9083 34.3265C91.6783 34.7719 92.3763 35.3316 92.9783 35.9865L90.1883 37.5865ZM18.7587 79.3064L8.17874 73.2064C8.06449 73.1408 7.96429 73.0533 7.88386 72.9489C7.80343 72.8445 7.74436 72.7253 7.71 72.5981C7.67564 72.4709 7.66668 72.3381 7.68362 72.2074C7.70056 72.0768 7.74308 71.9507 7.80874 71.8364C7.8744 71.7222 7.96191 71.622 8.06629 71.5416C8.17068 71.4612 8.28989 71.4021 8.41711 71.3677C8.54433 71.3334 8.67705 71.3244 8.80773 71.3413C8.93842 71.3583 9.06449 71.4008 9.17874 71.4664L19.7587 77.5764C19.9764 77.7148 20.1322 77.9319 20.1936 78.1824C20.2549 78.433 20.2171 78.6975 20.088 78.9208C19.9589 79.1441 19.7486 79.3089 19.5009 79.3808C19.2532 79.4526 18.9873 79.426 18.7587 79.3064ZM8.17837 77.7964L18.7584 83.9064C18.988 84.0368 19.2598 84.0711 19.5146 84.0018C19.7694 83.9324 19.9865 83.7652 20.1184 83.5364C20.1849 83.4229 20.2284 83.2973 20.2463 83.167C20.2642 83.0366 20.2562 82.904 20.2228 82.7767C20.1893 82.6494 20.1311 82.53 20.0514 82.4253C19.9717 82.3206 19.8721 82.2326 19.7584 82.1664L9.17837 76.0664C8.94983 75.9469 8.68394 75.9202 8.43623 75.9921C8.18852 76.064 7.97815 76.2288 7.84907 76.4521C7.72 76.6754 7.6822 76.9399 7.74356 77.1904C7.80492 77.4409 7.96071 77.6581 8.17837 77.7964ZM24.9083 84.1664C24.5634 84.1626 24.223 84.0877 23.9083 83.9464L22.9183 83.5464C22.4555 83.3466 22.0629 83.0131 21.7909 82.5887C21.519 82.1643 21.38 81.6683 21.3918 81.1643C21.4036 80.6604 21.5657 80.1714 21.8573 79.7602C22.1489 79.349 22.5566 79.0343 23.0283 78.8564L28.1483 76.8564C28.4391 76.7462 28.7473 76.6886 29.0583 76.6864H33.2883C33.4303 76.6866 33.5706 76.717 33.6999 76.7756C33.8292 76.8342 33.9446 76.9197 34.0383 77.0264C34.1309 77.1322 34.2001 77.2564 34.2415 77.3908C34.2828 77.5252 34.2954 77.6668 34.2783 77.8064L33.9383 80.5164C33.8991 80.8593 33.7902 81.1906 33.6182 81.4898C33.4462 81.789 33.2148 82.0499 32.9383 82.2564L30.9383 83.6864C30.5067 83.9961 29.9895 84.1638 29.4583 84.1664H24.9083ZM28.8583 78.6964L23.7383 80.6964V80.6864C23.6233 80.7267 23.5258 80.8054 23.462 80.9092C23.3983 81.013 23.3722 81.1356 23.3883 81.2564C23.3901 81.3599 23.4211 81.4608 23.4777 81.5475C23.5343 81.6342 23.6142 81.7031 23.7083 81.7464L24.7083 82.1764C24.7775 82.1913 24.8491 82.1913 24.9183 82.1764H29.4183C29.5292 82.1739 29.6369 82.1392 29.7283 82.0764L31.7283 80.6464C31.788 80.6027 31.8382 80.5474 31.876 80.4838C31.9138 80.4202 31.9384 80.3497 31.9483 80.2764L32.1383 78.6964H29.0483C28.9857 78.6822 28.9208 78.6822 28.8583 78.6964ZM2.14836 71.4865L3.71835 72.3164C4.17818 72.5164 4.68691 72.5757 5.18042 72.487C5.67392 72.3983 6.13012 72.1655 6.49156 71.818C6.85299 71.4704 7.10349 71.0237 7.21147 70.5341C7.31945 70.0444 7.28009 69.5338 7.09835 69.0664C5.33195 64.318 5.1168 64.007 4.99684 63.8335C4.99049 63.8243 4.9844 63.8155 4.97836 63.8064C4.81822 63.633 4.60186 63.5217 4.3676 63.4925C4.13333 63.4632 3.89627 63.5177 3.69836 63.6464C2.46289 64.3829 1.563 65.5718 1.1896 66.9609C0.816208 68.3499 0.998703 69.8297 1.69836 71.0864C1.79986 71.266 1.95815 71.4067 2.14836 71.4865ZM4.48713 67.8336L4.48717 67.8337C4.7278 68.4614 4.98329 69.1278 5.22836 69.7864C5.26797 69.8865 5.27675 69.9962 5.25358 70.1013C5.23042 70.2065 5.17636 70.3023 5.09835 70.3764C5.0332 70.4424 4.95128 70.4894 4.86142 70.5123C4.77155 70.5352 4.67715 70.5332 4.58836 70.5064L3.35835 69.8664C3.05497 69.2739 2.94027 68.6027 3.02966 67.943C3.11904 67.2834 3.40823 66.6669 3.85835 66.1764C4.03938 66.6657 4.25633 67.2316 4.48693 67.8331L4.48713 67.8336ZM83.7184 53.8764C85.5984 52.7864 87.4184 52.6464 88.8384 53.4664C90.2484 54.2864 91.0284 55.9164 91.0084 58.0564C90.9019 60.2447 90.2736 62.3759 89.1759 64.272C88.0782 66.1681 86.543 67.7742 84.6984 68.9564C83.7604 69.5319 82.6884 69.8525 81.5884 69.8864C80.8877 69.8912 80.1981 69.7119 79.5884 69.3664C78.1784 68.5464 77.3984 66.9164 77.3984 64.7764C77.5069 62.5874 78.1371 60.456 79.2365 58.5599C80.3358 56.6638 81.8725 55.058 83.7184 53.8764ZM82.2065 67.8369C82.7542 67.7652 83.2746 67.5551 83.7184 67.2264C85.2494 66.2103 86.5244 64.8538 87.4439 63.263C88.3633 61.6721 88.9022 59.8902 89.0184 58.0564C89.0873 57.5173 89.0136 56.9695 88.8048 56.4677C88.596 55.9659 88.2594 55.5276 87.8284 55.1964C87.5227 55.0271 87.1779 54.9409 86.8284 54.9464C86.0805 54.9841 85.3545 55.2112 84.7184 55.6064C83.1849 56.6214 81.9068 57.9773 80.9839 59.568C80.061 61.1587 79.5184 62.9413 79.3984 64.7764C79.3336 65.3152 79.4091 65.8617 79.6176 66.3628C79.8261 66.8639 80.1605 67.3026 80.5884 67.6364C81.102 67.8397 81.6589 67.9087 82.2065 67.8369ZM85.5588 59.1065C85.2724 58.9544 84.9502 58.8824 84.6264 58.8983C84.3025 58.9141 83.9889 59.0171 83.7188 59.1965C83.224 59.5068 82.8123 59.9331 82.5196 60.4384C82.2268 60.9438 82.0618 61.5129 82.0387 62.0965C82.0198 62.4185 82.0879 62.7397 82.2356 63.0265C82.3834 63.3132 82.6055 63.555 82.8788 63.7265C83.1222 63.8658 83.3982 63.9383 83.6787 63.9365C84.0321 63.9227 84.3762 63.8195 84.6787 63.6365C85.1718 63.3243 85.5821 62.8976 85.8746 62.3926C86.1671 61.8877 86.3332 61.3195 86.3587 60.7365C86.3808 60.4184 86.3184 60.1001 86.1779 59.8139C86.0374 59.5277 85.8239 59.2836 85.5588 59.1065ZM47.4585 67.7465V67.6865C47.4549 67.6499 47.4549 67.6131 47.4585 67.5765C47.428 67.516 47.4045 67.4523 47.3885 67.3865C47.3835 67.3199 47.3835 67.2531 47.3885 67.1865C47.3835 67.1266 47.3835 67.0664 47.3885 67.0065C47.3965 66.9787 47.4092 66.9508 47.4216 66.9236C47.4404 66.8824 47.4585 66.8426 47.4585 66.8065C47.4546 66.7666 47.4546 66.7264 47.4585 66.6865L52.2785 58.5965C54.3598 55.1163 57.2916 52.2223 60.7985 50.1865L72.5885 43.3665C73.4031 42.8911 74.3037 42.5818 75.2385 42.4565L80.0485 41.8165C80.1881 41.7994 80.3297 41.812 80.4641 41.8533C80.5985 41.8947 80.7227 41.9639 80.8285 42.0565L83.8285 44.6165C83.9321 44.7048 84.0166 44.8133 84.0768 44.9354C84.1369 45.0575 84.1716 45.1906 84.1785 45.3265C84.186 45.4617 84.1658 45.597 84.1194 45.7242C84.073 45.8514 84.0013 45.9678 83.9085 46.0665L80.4385 49.7365C80.4009 49.7666 80.3607 49.7934 80.3185 49.8165L80.2085 49.9165L48.8185 68.0365L48.6485 68.1065H48.5785H48.4585H48.1985C48.1322 68.1168 48.0648 68.1168 47.9985 68.1065H47.9385C47.8713 68.0903 47.8071 68.0633 47.7485 68.0265C47.6596 67.9674 47.5789 67.8968 47.5085 67.8165C47.4977 67.7895 47.4806 67.7654 47.4585 67.7465ZM75.4685 44.4565C74.7953 44.5454 74.1462 44.7663 73.5585 45.1065L65.8785 49.5465V55.8665L79.0485 48.2665L81.7085 45.4665L79.8385 43.8765L75.4685 44.4565ZM61.7685 51.9765C58.5519 53.8406 55.8639 56.4942 53.9585 59.6865L51.1185 64.3665L63.8785 57.0065V50.6865L61.7685 51.9765ZM85.4582 34.5264L78.7082 34.9264C76.4945 35.0616 74.2899 34.5434 72.3682 33.4364L63.2082 28.0764C62.9796 27.9569 62.7137 27.9303 62.466 28.0021C62.2183 28.074 62.0079 28.2388 61.8789 28.4621C61.7498 28.6854 61.712 28.9499 61.7733 29.2004C61.8347 29.451 61.9905 29.6681 62.2082 29.8064L71.3782 35.1664C73.4004 36.3327 75.6938 36.9465 78.0282 36.9464H78.8382L85.5782 36.5364C85.8328 36.5211 86.072 36.4091 86.2468 36.2232C86.4215 36.0373 86.5186 35.7916 86.5182 35.5364C86.5198 35.3991 86.4931 35.2628 86.4397 35.1363C86.3864 35.0097 86.3075 34.8954 86.2081 34.8007C86.1086 34.7059 85.9907 34.6326 85.8617 34.5855C85.7326 34.5383 85.5953 34.5182 85.4582 34.5264ZM19.5187 16.9164L12.3787 30.5164L14.6487 22.4664L11.9487 24.0264L14.2187 16.1064L18.2287 13.7964L16.1687 18.8464L19.5187 16.9164Z" fill="#28CDCD"/>
</svg>
