<svg width="100" height="100" viewBox="0 0 100 100" fill="none" xmlns="http://www.w3.org/2000/svg">
<path fill-rule="evenodd" clip-rule="evenodd" d="M79.64 15.06C82 13.69 85.09 14 88.31 15.82C94.55 19.42 99.64 28.23 99.64 35.44C99.64 39.15 98.33 41.95 95.96 43.32L85.96 49.24C85.7315 49.3596 85.4656 49.3862 85.2179 49.3143C84.9701 49.2425 84.7598 49.0777 84.6307 48.8544C84.5016 48.6311 84.4638 48.3665 84.5252 48.116C84.5866 47.8655 84.7423 47.6484 84.96 47.51L94.96 41.59C96.64 40.59 97.64 38.44 97.64 35.44C97.64 28.86 93 20.84 87.31 17.55C84.74 16.07 82.37 15.79 80.65 16.79L68.99 23.65C77.45 30.8 83.8 43.21 83.8 53.65C83.8 59.74 81.69 64.31 77.87 66.52L68.38 72C66.7589 72.9055 64.9265 73.3644 63.07 73.33C59.9599 73.225 56.932 72.3043 54.29 70.66L54.13 70.57C54.0105 70.5075 53.9049 70.4214 53.8195 70.3171C53.7341 70.2127 53.6707 70.0921 53.6331 69.9625C53.5955 69.833 53.5846 69.6972 53.6008 69.5633C53.6171 69.4295 53.6603 69.3002 53.7278 69.1835C53.7952 69.0667 53.8857 68.9648 53.9936 68.8839C54.1015 68.803 54.2246 68.7447 54.3556 68.7126C54.4866 68.6805 54.6227 68.6753 54.7558 68.6972C54.8889 68.7191 55.0162 68.7676 55.13 68.84L55.27 68.92C59.9 71.6 64.15 72.07 67.33 70.23C70.51 68.39 72.26 64.44 72.26 59.09C72.26 47.61 64.2 33.6 54.26 27.86C52.6249 26.8895 50.8511 26.1745 49 25.74C48.8601 25.7111 48.7273 25.655 48.6092 25.5747C48.491 25.4945 48.3898 25.3918 48.3114 25.2725C48.2329 25.1532 48.1787 25.0196 48.1519 24.8793C48.125 24.739 48.1261 24.5949 48.155 24.455C48.1839 24.3151 48.24 24.1823 48.3203 24.0642C48.4005 23.946 48.5032 23.8448 48.6225 23.7664C48.7418 23.6879 48.8754 23.6337 49.0157 23.6069C49.156 23.5801 49.3001 23.5811 49.44 23.61C51.496 24.0832 53.4661 24.8726 55.28 25.95C65.74 32.05 74.28 46.83 74.28 58.95C74.3498 61.6995 73.8138 64.4308 72.71 66.95C75.49 64.97 77.02 61.24 77.02 56.24C77.02 44.76 68.96 30.75 59.02 25.01C57.4785 24.1084 55.8146 23.4347 54.08 23.01C53.9518 22.9795 53.8308 22.9239 53.7241 22.8465C53.6175 22.7691 53.5271 22.6713 53.4584 22.5589C53.3896 22.4464 53.3437 22.3215 53.3234 22.1913C53.3031 22.061 53.3087 21.9281 53.34 21.8C53.3705 21.6718 53.4261 21.5508 53.5035 21.4441C53.5809 21.3375 53.6787 21.2471 53.7911 21.1784C53.9036 21.1096 54.0285 21.0637 54.1587 21.0434C54.289 21.0231 54.4219 21.0287 54.55 21.06C56.472 21.5481 58.314 22.3092 60.02 23.32C70.49 29.42 79.02 44.2 79.02 56.32C79.0907 59.0696 78.5547 61.8011 77.45 64.32C80.23 62.34 81.77 58.61 81.77 53.61C81.77 42.13 73.71 28.12 63.77 22.38C59.14 19.71 54.84 19.24 51.66 21.08L42.17 26.56C38.99 28.39 37.24 32.35 37.24 37.69C37.24 38.0024 37.2621 38.3197 37.2845 38.6395V38.6395V38.6396V38.6396V38.6397V38.6397V38.6398V38.6399V38.6399C37.3071 38.9649 37.33 39.2925 37.33 39.62L46.62 34.26C48.99 32.9 52.06 33.17 55.28 35.02C61.52 38.64 66.6 47.43 66.6 54.64C66.6 58.36 65.3 61.15 62.93 62.52L56.17 66.42C56.174 66.5585 56.1406 66.6955 56.0732 66.8166C56.0058 66.9377 55.907 67.0383 55.7872 67.108C55.6674 67.1776 55.5311 67.2136 55.3925 67.2122C55.254 67.2108 55.1184 67.172 55 67.1L29.04 82.05C28.0322 82.6235 26.8894 82.917 25.73 82.9C24.7532 82.8916 23.7842 82.7261 22.86 82.41C22.6172 82.3206 22.4185 82.1405 22.3057 81.9077C22.1928 81.6749 22.1746 81.4074 22.2549 81.1614C22.3352 80.9154 22.5076 80.7101 22.7361 80.5887C22.9646 80.4672 23.2312 80.439 23.48 80.51C24.2102 80.8044 24.9951 80.9389 25.7817 80.9044C26.5683 80.8699 27.3383 80.6672 28.04 80.31C29.77 79.32 30.71 77.17 30.71 74.17C30.677 72.2424 30.3395 70.3322 29.71 68.51C28.6958 68.9831 27.5746 69.1797 26.46 69.08C25.5374 68.9747 24.6052 69.1674 23.8 69.63C23.6516 69.707 23.4872 69.7481 23.32 69.75C23.1401 69.7505 22.9634 69.7025 22.8085 69.6109C22.6537 69.5194 22.5263 69.3878 22.44 69.23C22.3144 68.9989 22.2849 68.7276 22.3579 68.475C22.4309 68.2223 22.6005 68.0085 22.83 67.88C23.9522 67.2403 25.2438 66.9611 26.53 67.08C27.3795 67.1719 28.2375 67.0156 29 66.63C28.4188 65.2535 27.716 63.9317 26.9 62.68C25.8723 63.1673 24.7329 63.371 23.6 63.27C22.6272 63.1658 21.6471 63.3836 20.81 63.89C19.9464 64.3577 19.2637 65.1003 18.87 66C18.3169 67.2343 17.3852 68.2605 16.21 68.93C15.6717 69.2463 15.0931 69.4885 14.49 69.65C14.407 69.6605 14.323 69.6605 14.24 69.65C13.9748 69.6818 13.7078 69.607 13.4977 69.442C13.2877 69.2769 13.1518 69.0352 13.12 68.77C13.0882 68.5048 13.163 68.2378 13.328 68.0278C13.4931 67.8177 13.7348 67.6818 14 67.65C14.4237 67.5332 14.8305 67.3617 15.21 67.14C16.0694 66.67 16.7482 65.9278 17.14 65.03C17.707 63.8022 18.6536 62.7891 19.84 62.14C20.9952 61.4395 22.3445 61.1275 23.69 61.25C24.3669 61.3129 25.0494 61.2276 25.69 61C24.9414 60.0437 24.1116 59.1537 23.21 58.34C22.1491 58.8818 20.9561 59.1107 19.77 59C18.8024 58.898 17.8283 59.1195 17 59.63C16.1159 60.0896 15.4116 60.8326 15 61.74C14.4671 62.9741 13.5522 64.0046 12.39 64.68C11.2309 65.38 9.8786 65.6918 8.53 65.57C7.9075 65.5124 7.27972 65.5735 6.68 65.75C6.57756 65.7692 6.47244 65.7692 6.37 65.75C6.15193 65.7614 5.93613 65.7011 5.75556 65.5783C5.57499 65.4555 5.43958 65.277 5.37 65.07C5.32764 64.9453 5.31035 64.8134 5.31911 64.6819C5.32787 64.5505 5.36252 64.4221 5.42106 64.3041C5.4796 64.1861 5.56088 64.0808 5.66024 63.9943C5.75959 63.9078 5.87505 63.8417 6 63.8C6.82464 63.5464 7.69054 63.4547 8.55 63.53H9.2C9.12965 62.9125 9.09293 62.2915 9.09 61.67C9.09 58 10.39 55.16 12.76 53.79L35.41 40.69C35.3015 39.6936 35.2448 38.6923 35.24 37.69C35.24 31.6 37.35 27 41.17 24.83L50.66 19.35C54.48 17.14 59.49 17.65 64.77 20.65C65.6378 21.1635 66.4789 21.7209 67.29 22.32L79.64 15.06ZM16 57.9C17.1484 57.2001 18.4901 56.8849 19.83 57C20.3681 57.0529 20.9111 57.0226 21.44 56.91C21.1 56.6767 20.7667 56.4667 20.44 56.28C17.87 54.8 15.5 54.52 13.78 55.52C12.06 56.52 11.11 58.67 11.11 61.67C11.1089 62.1143 11.1323 62.5583 11.18 63L11.37 62.9C12.2294 62.43 12.9082 61.6878 13.3 60.79C13.867 59.5622 14.8136 58.5491 16 57.9ZM54.28 36.76C51.71 35.27 49.34 35 47.62 36L17.9 53.13C19.1391 53.4205 20.3262 53.8994 21.42 54.55C27.66 58.17 32.74 66.96 32.74 74.17C32.7557 75.443 32.577 76.7109 32.21 77.93L61.93 60.79C63.66 59.79 64.6 57.64 64.6 54.64C64.6 48.07 60 40 54.28 36.76ZM53.8889 31.935C53.6545 31.5304 53.5179 31.0767 53.49 30.61C53.49 29.75 54.09 29.4 54.84 29.83C55.2292 30.0874 55.5529 30.4321 55.7855 30.8365C56.0181 31.241 56.1532 31.6942 56.18 32.16C56.18 33.02 55.58 33.37 54.84 32.94C54.449 32.6837 54.1233 32.3395 53.8889 31.935ZM40.89 31.08C40.7349 31.4852 40.6985 31.9263 40.7853 32.3514C40.8721 32.7765 41.0784 33.1681 41.38 33.48C42.03 34.28 42.85 34.48 43.22 33.98C43.376 33.5733 43.4128 33.1305 43.326 32.7037C43.2392 32.2768 43.0324 31.8835 42.73 31.57C42.08 30.77 41.26 30.55 40.89 31.08ZM68.83 65.78C68.46 66.2901 67.64 66.09 67 65.2901C66.6949 64.9783 66.4855 64.5855 66.3969 64.1583C66.3083 63.7311 66.3441 63.2875 66.5 62.8801C66.88 62.3701 67.7 62.57 68.34 63.37C68.6425 63.6836 68.8492 64.0768 68.936 64.5037C69.0228 64.9306 68.986 65.3733 68.83 65.78ZM68.2901 49C68.9301 48.94 69.1501 48.12 68.7801 47.16C68.4101 46.2 67.5901 45.5 67.0001 45.55C66.4101 45.6 66.1301 46.43 66.5001 47.39C66.8701 48.35 67.6501 49.08 68.2901 49ZM28.0001 75C27.0281 74.8874 26.0464 75.1021 25.2101 75.61C24.3505 76.075 23.6711 76.8142 23.2801 77.71C22.7156 78.9388 21.7731 79.9549 20.5901 80.61C19.4285 81.3032 18.0774 81.6113 16.7301 81.49C15.757 81.3804 14.7752 81.5986 13.9401 82.11C13.076 82.577 12.3931 83.3198 12.0001 84.22C11.7974 84.6307 11.5633 85.0252 11.3001 85.4C11.222 85.5058 11.1239 85.5952 11.0112 85.663C10.8986 85.7309 10.7737 85.7758 10.6436 85.7953C10.5136 85.8148 10.381 85.8085 10.2534 85.7767C10.1258 85.7449 10.0057 85.6882 9.90009 85.61C9.79426 85.5319 9.70487 85.4338 9.63703 85.3211C9.56918 85.2085 9.52422 85.0836 9.50472 84.9535C9.48521 84.8235 9.49154 84.6909 9.52335 84.5633C9.55516 84.4357 9.61182 84.3156 9.69009 84.21C9.90002 83.9146 10.0872 83.6037 10.2501 83.28C10.8171 82.0522 11.7636 81.0391 12.9501 80.39C14.1056 79.6901 15.4547 79.3782 16.8001 79.5C17.7763 79.6087 18.761 79.3907 19.6001 78.88C20.4583 78.4131 21.1371 77.6744 21.5301 76.78C22.1175 75.5662 23.056 74.5569 24.2239 73.8829C25.3918 73.209 26.7353 72.9013 28.0801 73C28.3532 73.015 28.627 73.015 28.9001 73C29.1653 72.9867 29.4249 73.0793 29.6218 73.2575C29.8188 73.4357 29.9368 73.6847 29.9501 73.95C29.9633 74.2152 29.8707 74.4748 29.6925 74.6717C29.5144 74.8686 29.2653 74.9867 29.0001 75H28.0001ZM4.11011 67.62C4.23591 67.3951 4.27003 67.1303 4.20533 66.8808C4.14063 66.6313 3.98211 66.4165 3.76284 66.281C3.54358 66.1456 3.28049 66.1001 3.02845 66.1539C2.77642 66.2077 2.5549 66.3568 2.41011 66.57C2.28634 66.768 2.1762 66.9728 2.06843 67.1732L2.00011 67.3C1.71479 67.9551 1.28387 68.5365 0.740106 69C0.61223 69.0719 0.501754 69.1712 0.416515 69.2906C0.331276 69.41 0.273364 69.5467 0.246886 69.6911C0.220408 69.8354 0.226013 69.9838 0.263304 70.1257C0.300595 70.2676 0.368658 70.3995 0.462664 70.5122C0.556671 70.6249 0.674317 70.7155 0.807257 70.7775C0.940197 70.8396 1.08517 70.8717 1.2319 70.8715C1.37863 70.8713 1.52351 70.8388 1.65627 70.7763C1.78904 70.7139 1.90642 70.6229 2.00011 70.51C2.75332 69.8961 3.35834 69.1202 3.77011 68.24C3.83218 68.091 3.90581 67.969 3.97905 67.8477C4.02379 67.7735 4.06839 67.6996 4.11011 67.62ZM7.07142 73.1609C6.91654 73.2524 6.73985 73.3005 6.55996 73.3C6.38345 73.3012 6.21017 73.2527 6.05996 73.16C5.83048 73.0315 5.66087 72.8177 5.58787 72.565C5.51487 72.3124 5.54437 72.0411 5.66996 71.81L5.80996 71.55C6.37878 70.3209 7.32455 69.305 8.50996 68.65C8.97803 68.3729 9.47847 68.1546 9.99996 68C10.126 67.9613 10.2585 67.9477 10.3898 67.9602C10.5211 67.9726 10.6486 68.0108 10.7652 68.0726C10.8817 68.1343 10.985 68.2184 11.069 68.3201C11.153 68.4217 11.2162 68.5389 11.255 68.665C11.2937 68.7911 11.3072 68.9235 11.2948 69.0548C11.2823 69.1861 11.2441 69.3137 11.1824 69.4302C11.1206 69.5468 11.0365 69.65 10.9349 69.734C10.8332 69.8181 10.716 69.8813 10.59 69.92C10.2215 70.04 9.86627 70.1975 9.52996 70.39C8.66781 70.8595 7.98558 71.6015 7.58996 72.5L7.43996 72.78C7.35361 72.9378 7.22629 73.0694 7.07142 73.1609ZM19 74.59C19.1961 74.5884 19.3873 74.5293 19.55 74.42C20.2401 73.9732 20.8293 73.3874 21.28 72.7C21.4207 72.4785 21.4687 72.2107 21.4137 71.9542C21.3587 71.6976 21.2051 71.473 20.986 71.3287C20.7669 71.1844 20.4999 71.132 20.2425 71.1827C19.9851 71.2335 19.758 71.3833 19.61 71.6C19.3032 72.0624 18.905 72.4571 18.44 72.76C18.262 72.8796 18.1272 73.0533 18.0554 73.2555C17.9837 73.4576 17.9788 73.6775 18.0416 73.8826C18.1043 74.0877 18.2314 74.2672 18.404 74.3946C18.5766 74.5219 18.7855 74.5905 19 74.59ZM15.22 75.58C14.2472 75.4758 13.2671 75.6936 12.43 76.2C11.5706 76.67 10.8918 77.4122 10.5 78.31C9.93001 79.5358 8.98427 80.5481 7.8 81.2C6.83257 81.7955 5.71595 82.1041 4.58 82.09H4C3.73478 82.09 3.48043 81.9846 3.29289 81.7971C3.10536 81.6096 3 81.3552 3 81.09C3 80.8248 3.10536 80.5704 3.29289 80.3829C3.48043 80.1954 3.73478 80.09 4 80.09C4.97634 80.201 5.96181 79.9828 6.8 79.47C7.63678 78.9877 8.29069 78.2424 8.66 77.35C9.23572 76.1281 10.18 75.1174 11.36 74.46C12.5197 73.7622 13.8724 73.4538 15.22 73.58C15.4852 73.58 15.7396 73.6854 15.9271 73.8729C16.1146 74.0604 16.22 74.3148 16.22 74.58C16.22 74.8452 16.1146 75.0996 15.9271 75.2871C15.7396 75.4746 15.4852 75.58 15.22 75.58Z" fill="#28CDCD"/>
</svg>
