<svg width="1024" height="1024" viewBox="0 0 1024 1024" fill="none" xmlns="http://www.w3.org/2000/svg">
<path fill-rule="evenodd" clip-rule="evenodd" d="M933.917 624.158C935.837 622.237 938.442 621.158 941.157 621.158C943.819 621.265 946.335 622.405 948.171 624.335C950.006 626.267 951.017 628.837 950.988 631.501V674.304C950.977 676.091 950.499 677.844 949.601 679.389C948.702 680.934 947.415 682.217 945.868 683.11L398.847 999.322C397.286 1000.21 395.521 1000.67 393.727 1000.65C391.011 1000.65 388.407 999.574 386.486 997.654C384.566 995.733 383.487 993.129 383.487 990.413V972.8L34.0982 768C32.5545 767.085 31.2785 765.78 30.3979 764.217C29.5173 762.653 29.063 760.886 29.0806 759.091L30.1046 339.866C30.1154 338.079 30.5936 336.326 31.4918 334.781C32.39 333.236 33.6769 331.953 35.2246 331.059L571.084 24.9856C572.64 24.0869 574.406 23.6137 576.204 23.6137C578.001 23.6137 579.767 24.0869 581.324 24.9856L942.591 226.304C943.817 226.999 944.887 227.94 945.732 229.068C946.578 230.196 947.182 231.486 947.506 232.858C948.573 233.794 949.433 234.942 950.033 236.229C950.632 237.516 950.957 238.914 950.988 240.333L952.319 374.579C952.319 377.295 951.24 379.9 949.32 381.82C947.399 383.74 944.795 384.819 942.079 384.819C939.363 384.819 936.759 383.74 934.838 381.82C932.918 379.9 931.839 377.295 931.839 374.579L930.815 257.741L403.967 556.237V972.8L930.917 668.262V631.398C930.917 628.683 931.996 626.078 933.917 624.158ZM74.6486 351.334L393.829 538.522L923.033 238.592L576.409 45.6704L50.4822 345.907L49.5606 753.254L383.487 948.634V556.134L64.4086 368.947C63.1029 368.357 61.9356 367.5 60.9822 366.43C60.0287 365.361 59.3103 364.103 58.8734 362.738C58.4365 361.374 58.2909 359.933 58.4459 358.508C58.6009 357.084 59.0531 355.708 59.7732 354.469C60.4934 353.23 61.4655 352.157 62.6267 351.317C63.7878 350.478 65.1122 349.891 66.5143 349.596C67.9163 349.301 69.3647 349.303 70.7659 349.602C72.1671 349.902 73.4898 350.492 74.6486 351.334ZM952.321 399.36L993.793 478.412C994.735 479.853 995.298 481.509 995.431 483.225V568.012C995.435 569.628 995.057 571.222 994.328 572.664C993.598 574.105 992.537 575.354 991.233 576.307L949.351 607.027L918.631 625.868C917.002 626.878 915.121 627.411 913.204 627.404H910.849C909.055 627.417 907.289 626.958 905.729 626.073L868.455 604.569C866.893 603.667 865.596 602.368 864.697 600.803C863.798 599.239 863.328 597.465 863.335 595.66V554.7C863.346 552.913 863.824 551.16 864.722 549.615C865.621 548.07 866.908 546.788 868.455 545.894L888.935 534.118C890.105 533.446 891.396 533.01 892.734 532.837C894.072 532.663 895.432 532.755 896.734 533.107C898.037 533.459 899.258 534.064 900.326 534.887C901.395 535.711 902.292 536.737 902.964 537.907C903.636 539.077 904.072 540.368 904.245 541.706C904.419 543.044 904.327 544.403 903.975 545.706C903.623 547.009 903.018 548.229 902.195 549.298C901.371 550.367 900.345 551.263 899.175 551.936L894.26 554.7L903.476 560.025L911.463 554.905V494.694L896.206 467.251L868.66 451.276C867.112 450.383 865.826 449.1 864.927 447.555C864.029 446.01 863.551 444.257 863.54 442.47V401.51C863.385 400.629 863.385 399.728 863.54 398.848C863.869 397.728 864.351 396.66 864.974 395.673L865.588 394.956C866.331 394.022 867.232 393.225 868.25 392.601L900.916 373.76H902.145C902.755 373.448 903.412 373.24 904.09 373.145C904.735 373.05 905.391 373.05 906.036 373.145C906.68 373.038 907.337 373.038 907.982 373.145C908.66 373.24 909.317 373.448 909.927 373.76H911.156L948.43 395.264C950.085 396.237 951.433 397.656 952.321 399.36ZM962.561 572.006L974.439 563.2L974.234 486.195L934.913 412.16L905.319 395.059L893.134 402.124L915.047 414.72C917.276 416.137 918.871 418.36 919.5 420.925C920.128 423.49 919.741 426.199 918.419 428.486C917.097 430.772 914.943 432.46 912.407 433.196C909.87 433.932 907.147 433.659 904.807 432.435L882.894 419.84V436.838L907.777 451.174C909.387 452.115 910.727 453.455 911.668 455.065L929.588 487.321C930.42 488.861 930.843 490.589 930.817 492.339V561.049C930.825 562.753 930.408 564.432 929.603 565.934C928.799 567.436 927.632 568.714 926.209 569.651L908.289 581.222C906.732 582.121 904.966 582.594 903.169 582.594C901.371 582.594 899.605 582.121 898.049 581.222L883.406 572.825V590.028L909.722 605.184L942.081 581.632V501.76C942.081 499.044 943.16 496.439 945.08 494.519C947 492.598 949.605 491.52 952.321 491.52C955.037 491.52 957.641 492.598 959.562 494.519C961.482 496.439 962.561 499.044 962.561 501.76V572.006ZM911.36 344.063V283.647L847.053 321.945V381.644L911.36 344.063ZM867.533 333.823L890.88 319.692V332.39L867.533 346.009V333.823ZM558.467 835.451C556.903 834.552 555.604 833.255 554.701 831.692C554.024 830.524 553.585 829.232 553.409 827.893C553.233 826.554 553.324 825.193 553.676 823.889C554.028 822.585 554.635 821.364 555.461 820.296C556.288 819.227 557.317 818.332 558.49 817.664L812.75 672.358L804.66 667.648L569.14 802.918C567.589 803.838 565.823 804.333 564.02 804.352C561.753 804.367 559.544 803.63 557.741 802.256C555.938 800.881 554.642 798.947 554.056 796.757C553.47 794.566 553.628 792.244 554.505 790.152C555.381 788.061 556.927 786.321 558.9 785.203V691.097L540.366 701.337V739.43V740.249V825.651C540.354 827.249 539.968 828.823 539.239 830.245C538.51 831.668 537.458 832.9 536.167 833.843L494.183 864.563L463.463 883.404C461.856 884.465 459.96 885.001 458.036 884.94H455.681C453.887 884.953 452.121 884.494 450.561 883.609L412.775 861.9C411.227 861.007 409.941 859.724 409.042 858.179C408.144 856.634 407.666 854.881 407.655 853.094V812.134C407.648 810.33 408.118 808.555 409.017 806.991C409.916 805.426 411.212 804.127 412.775 803.225L432.743 791.654C433.912 790.977 435.203 790.538 436.542 790.362C437.881 790.186 439.242 790.276 440.546 790.629C441.85 790.981 443.071 791.588 444.14 792.414C445.208 793.24 446.103 794.269 446.772 795.443C448.107 797.794 448.458 800.578 447.748 803.187C447.038 805.796 445.325 808.018 442.983 809.369L438.375 812.134L447.591 817.459L455.578 812.339V752.025L440.321 724.582L413.697 708.505C412.149 707.612 410.862 706.329 409.964 704.784C409.066 703.239 408.588 701.486 408.577 699.699V658.739C408.476 657.854 408.476 656.961 408.577 656.076C408.942 654.953 409.459 653.885 410.113 652.902V652.288C410.877 651.307 411.814 650.474 412.878 649.83L445.543 630.988C445.916 630.929 446.296 630.929 446.67 630.988C447.317 630.66 448.006 630.419 448.718 630.272H452.609L454.554 630.886H455.783L479.233 644.505V588.8C479.244 587.013 479.722 585.259 480.62 583.714C481.518 582.17 482.805 580.887 484.353 579.993L826.983 380.313C828.54 379.414 830.306 378.941 832.103 378.941C833.901 378.941 835.666 379.414 837.223 380.313C838.771 381.207 840.058 382.49 840.956 384.034C841.854 385.579 842.332 387.333 842.343 389.12L842.753 672.256C842.803 672.526 842.803 672.804 842.753 673.075C842.802 673.38 842.802 673.691 842.753 673.996C842.568 675.131 842.223 676.235 841.729 677.273C841.307 677.988 840.79 678.642 840.193 679.219C839.59 679.786 838.939 680.3 838.247 680.755L568.628 835.379C567.107 836.282 565.379 836.776 563.61 836.812C561.806 836.82 560.032 836.35 558.467 835.451ZM519.681 689.459V583.065L500.02 594.636V661.913L515.79 691.712L519.681 689.459ZM507.598 829.44L519.681 820.223V743.833V742.4L504.833 714.444C503.627 713.611 502.614 712.528 501.863 711.27C501.112 709.809 500.692 708.201 500.634 706.559L482.407 672.972C481.197 671.744 480.316 670.229 479.847 668.569L450.561 651.571L438.99 658.636L460.801 671.232C461.974 671.901 463.004 672.795 463.83 673.864C464.656 674.932 465.263 676.153 465.615 677.457C465.967 678.761 466.058 680.122 465.882 681.461C465.706 682.8 465.267 684.092 464.59 685.26C463.912 686.425 463.011 687.445 461.939 688.261C460.867 689.077 459.644 689.673 458.34 690.016C457.037 690.358 455.679 690.44 454.344 690.257C453.009 690.073 451.723 689.628 450.561 688.947L428.033 676.352V693.862L452.916 708.3C454.541 709.187 455.861 710.543 456.705 712.192L474.625 744.345C475.472 745.884 475.929 747.607 475.956 749.363V817.766C475.953 819.479 475.52 821.164 474.697 822.667C473.874 824.17 472.688 825.442 471.246 826.367L453.326 837.939C451.769 838.837 450.003 839.311 448.206 839.311C446.408 839.311 444.642 838.837 443.086 837.939L428.442 829.44V847.359L454.759 862.515L487.118 838.963V759.091C487.118 756.375 488.196 753.77 490.117 751.85C492.037 749.93 494.642 748.851 497.358 748.851C500.073 748.851 502.678 749.93 504.598 751.85C506.519 753.77 507.598 756.375 507.598 759.091V829.44ZM540.058 676.864L558.593 666.624V560.23L540.058 571.084V676.864ZM793.294 423.424L774.35 434.483L773.94 543.231L793.294 532.07V423.424ZM579.175 772.403L597.71 762.163V668.672L579.175 678.912V772.403ZM579.175 654.643L597.71 644.403V537.497L579.175 548.351V654.643ZM618.19 749.977L636.724 739.737V646.246L618.19 656.486V749.977ZM618.19 632.217L636.724 621.977V515.276L618.19 525.516V632.217ZM657.306 727.756L675.841 717.516V623.82L657.306 634.06V727.756ZM657.306 610.099L675.841 599.859V491.52L657.306 502.783V610.099ZM696.321 705.433L714.855 695.193V600.985L696.321 611.225V705.433ZM696.321 587.673L714.855 577.433V469.196L696.321 480.051V587.673ZM735.335 683.007L753.972 672.768V579.072L735.335 589.312V683.007ZM735.335 565.248L753.972 555.008V446.361L735.335 457.216V565.248ZM774.452 566.886V660.992L793.908 649.523V555.622L774.452 566.886ZM822.99 654.233L822.068 406.63L813.774 411.443L814.798 649.523L822.99 654.233Z" fill="#28CDCD"/>
</svg>
