<svg width="1024" height="1024" viewBox="0 0 1024 1024" fill="none" xmlns="http://www.w3.org/2000/svg">
<path fill-rule="evenodd" clip-rule="evenodd" d="M663.141 160.666C662.207 159.698 661.091 158.923 659.857 158.386C658.623 157.849 657.295 157.561 655.95 157.537C654.604 157.513 653.267 157.755 652.015 158.248C650.763 158.741 649.62 159.475 648.652 160.41C647.684 161.344 646.909 162.461 646.372 163.695C645.835 164.929 645.547 166.256 645.523 167.602C645.499 168.947 645.741 170.284 646.233 171.536C646.726 172.788 647.461 173.931 648.396 174.899C673.258 202.691 687.162 238.578 687.513 275.866V718.336C687.513 729.805 679.116 740.967 663.653 749.875C643.603 760.009 621.453 765.288 598.988 765.288C576.523 765.288 554.372 760.009 534.322 749.875V375.399C533.996 344.71 525.666 314.637 510.156 288.154V275.866C510.156 233.165 531.455 187.188 560.639 164.762C565.771 169.477 571.793 173.12 578.352 175.477C584.911 177.833 591.875 178.855 598.834 178.484C624.741 178.484 644.3 165.274 644.3 147.764V64.9219C644.3 52.8637 639.51 41.2993 630.983 32.7729C622.457 24.2464 610.892 19.4563 598.834 19.4563C586.776 19.4563 575.212 24.2464 566.685 32.7729C558.159 41.2993 553.369 52.8637 553.369 64.9219V144.794C519.679 167.527 494.796 214.221 490.393 261.428L489.471 260.301C487.597 258.332 485.018 257.188 482.3 257.121C479.583 257.054 476.95 258.069 474.981 259.943C473.012 261.817 471.868 264.396 471.801 267.113C471.734 269.831 472.749 272.463 474.623 274.432C499.58 302.174 513.529 338.085 513.842 375.399V817.971C513.842 829.338 505.343 840.602 489.983 849.408C469.893 859.592 447.687 864.899 425.164 864.899C402.64 864.899 380.434 859.592 360.345 849.408C344.882 840.602 336.485 828.928 336.485 817.971V375.399C336.485 332.698 357.682 286.823 386.866 264.295C392.026 268.999 398.068 272.634 404.641 274.989C411.215 277.344 418.19 278.373 425.164 278.016C451.071 278.016 470.629 264.909 470.629 247.296V164.352C470.629 152.294 465.839 140.73 457.313 132.203C448.786 123.677 437.222 118.887 425.164 118.887C413.105 118.887 401.541 123.677 393.015 132.203C384.488 140.73 379.698 152.294 379.698 164.352V244.224C342.527 269.312 316.005 323.482 316.005 375.296V854.835C315.9 855.514 315.9 856.205 316.005 856.883C323.276 891.904 323.481 918.323 316.62 934.195C316.045 935.447 315.765 936.813 315.801 938.189C315.971 943.142 317.479 947.957 320.166 952.121C322.852 956.286 326.616 959.646 331.058 961.843L392.498 997.274C401.958 1002.26 412.528 1004.76 423.218 1004.54C436.674 1004.65 449.932 1001.3 461.721 994.816L514.559 964.096C520.015 961.548 524.699 957.599 528.135 952.653C531.57 947.707 533.634 941.939 534.117 935.936C534.078 933.947 533.513 932.004 532.479 930.304C524.696 918.528 523.775 900.199 529.304 874.701C532.521 868.357 534.171 861.334 534.117 854.221V809.575C551.797 817.125 570.714 821.36 589.925 822.067C588.85 831.595 588.85 841.212 589.925 850.739C590.204 853.256 591.404 855.58 593.295 857.263C595.186 858.946 597.634 859.868 600.165 859.853H601.292C602.63 859.713 603.927 859.31 605.11 858.667C606.292 858.025 607.337 857.156 608.183 856.11C609.029 855.064 609.661 853.861 610.043 852.571C610.424 851.28 610.547 849.927 610.405 848.589C609.33 839.781 609.33 830.875 610.405 822.067C632.473 821 654.023 815.017 673.484 804.557C675.429 803.431 677.068 802.304 678.809 801.075C678.056 814.08 680.778 827.051 686.693 838.656C684.633 842.26 681.526 845.153 677.785 846.951L624.946 877.671C617.521 881.701 609.282 884.005 600.844 884.413C592.405 884.82 583.983 883.321 576.204 880.026L554.085 867.328C552.923 866.647 551.637 866.202 550.302 866.018C548.967 865.835 547.609 865.917 546.306 866.259C545.002 866.602 543.78 867.198 542.707 868.014C541.635 868.83 540.734 869.85 540.057 871.015C539.379 872.183 538.94 873.475 538.764 874.814C538.588 876.153 538.679 877.514 539.031 878.818C539.383 880.122 539.99 881.343 540.816 882.411C541.643 883.48 542.672 884.375 543.845 885.043L565.964 897.843C575.428 902.805 586.001 905.271 596.684 905.011C610.091 905.094 623.301 901.783 635.084 895.386L687.922 864.666C693.372 862.109 698.051 858.158 701.485 853.214C704.919 848.269 706.987 842.506 707.48 836.506C707.495 834.509 706.926 832.551 705.842 830.874C698.162 819.098 697.138 800.768 702.77 775.271C705.904 768.9 707.516 761.89 707.48 754.791V275.866C707.451 233.305 691.655 192.264 663.141 160.666ZM573.439 64.9219C573.439 58.2953 576.071 51.9401 580.757 47.2544C585.443 42.5687 591.798 39.9363 598.424 39.9363C605.051 39.9363 611.406 42.5687 616.092 47.2544C620.778 51.9401 623.41 58.2953 623.41 64.9219V147.866C623.41 151.347 613.17 158.106 598.424 158.106C583.679 158.106 573.439 151.45 573.439 147.866V64.9219ZM399.359 164.455C399.359 157.828 401.991 151.473 406.677 146.787C411.363 142.102 417.718 139.469 424.345 139.469C430.971 139.469 437.326 142.102 442.012 146.787C446.698 151.473 449.33 157.828 449.33 164.455V247.399C449.33 250.88 439.09 257.639 424.345 257.639C409.599 257.639 399.359 250.983 399.359 247.399V164.455ZM504.524 946.586L451.685 977.306C444.247 981.347 435.997 983.665 427.542 984.091C419.088 984.516 410.647 983.037 402.841 979.763L341.401 944.333C339.418 943.249 337.757 941.659 336.588 939.725C343.858 920.371 343.961 893.645 337.202 858.419C341.194 861.796 345.478 864.811 350.002 867.431C373.061 879.801 398.897 886.075 425.061 885.658C451.225 886.075 477.062 879.801 500.121 867.431C504.284 864.818 508.253 861.909 511.999 858.727C511.18 861.799 510.361 864.973 509.644 867.943C504.534 875.761 497.476 882.114 489.164 886.375C469.567 896.07 448.053 901.266 426.191 901.585C404.33 901.904 382.673 897.337 362.802 888.218C360.409 886.988 357.627 886.75 355.059 887.554C352.492 888.359 350.344 890.143 349.081 892.519C347.818 894.922 347.563 897.729 348.369 900.321C349.176 902.913 350.978 905.079 353.381 906.343C373.06 915.921 394.579 921.126 416.46 921.6C414.872 932.35 414.666 943.259 415.845 954.061C416.124 956.577 417.324 958.901 419.215 960.584C421.106 962.267 423.554 963.19 426.085 963.175H427.212C429.819 962.865 432.208 961.567 433.885 959.547C435.562 957.527 436.399 954.94 436.223 952.32C435.1 942.087 435.41 931.748 437.144 921.6C459.22 920.584 480.782 914.599 500.223 904.09L505.548 900.711C504.727 913.676 507.416 926.622 513.33 938.189C511.313 941.816 508.242 944.744 504.524 946.586ZM683.724 768C678.633 775.81 671.568 782.134 663.244 786.33C643.757 796.058 622.34 801.3 600.563 801.672C578.786 802.044 557.202 797.537 537.394 788.48C536.414 788.065 535.379 787.789 534.322 787.661V772.608C554.663 781.485 576.642 785.985 598.834 785.818C624.969 786.42 650.818 780.284 673.893 768C678.224 765.561 682.335 762.752 686.181 759.603C685.457 761.696 684.796 764.104 684.198 766.282C684.035 766.876 683.877 767.452 683.724 768ZM425.472 629.657V556.339H411.34V587.98H387.686V556.339H373.555L373.453 629.657H387.686V599.04H411.34V629.657H425.472ZM479.846 576.717C479.881 581.047 478.711 585.302 476.467 589.005C473.306 594.312 469.71 599.347 465.715 604.058L455.475 618.599H481.689V629.658H436.736V620.135L457.216 594.535C459.647 591.347 461.74 587.915 463.462 584.295C464.598 581.852 465.225 579.205 465.305 576.512C465.431 573.862 464.791 571.231 463.462 568.935C462.851 568.018 462.007 567.279 461.018 566.794C460.029 566.308 458.929 566.093 457.83 566.17C456.576 566.149 455.34 566.472 454.257 567.104C453.174 567.735 452.285 568.652 451.686 569.754C450.149 572.501 449.404 575.62 449.536 578.765H435.609C435.443 575.728 435.883 572.688 436.902 569.823C437.922 566.957 439.501 564.323 441.548 562.074C443.616 559.808 446.153 558.02 448.983 556.835C451.813 555.65 454.867 555.096 457.932 555.213C460.885 555.026 463.845 555.448 466.628 556.452C469.411 557.456 471.958 559.021 474.112 561.05C476.078 563.138 477.599 565.603 478.585 568.296C479.571 570.989 480 573.854 479.846 576.717ZM604.467 526.848V453.53H590.336V485.274H566.681V453.53H552.448V526.848H566.681V496.333H590.336V526.848H604.467ZM658.637 473.908C658.66 478.255 657.529 482.531 655.36 486.298C652.294 491.544 648.873 496.573 645.12 501.351L634.88 515.789H660.48V526.644H615.527V517.223L636.007 491.623C638.431 488.45 640.492 485.015 642.151 481.383C643.371 479.003 644.036 476.377 644.096 473.703C644.234 471.051 643.593 468.418 642.253 466.125C641.642 465.209 640.799 464.47 639.809 463.985C638.82 463.499 637.72 463.284 636.621 463.361C635.376 463.318 634.142 463.621 633.058 464.235C631.974 464.85 631.081 465.752 630.477 466.842C628.941 469.627 628.198 472.779 628.327 475.956H614.4C614.115 469.859 616.25 463.897 620.339 459.367C622.391 457.053 624.94 455.233 627.796 454.045C630.651 452.857 633.738 452.331 636.826 452.506C639.753 452.338 642.684 452.759 645.446 453.744C648.207 454.729 650.743 456.258 652.903 458.241C654.854 460.338 656.366 462.805 657.351 465.495C658.336 468.186 658.773 471.046 658.637 473.908Z" fill="#28CDCD"/>
</svg>
