<svg width="100" height="100" viewBox="0 0 100 100" fill="none" xmlns="http://www.w3.org/2000/svg">
<path fill-rule="evenodd" clip-rule="evenodd" d="M98.7998 38.0001C98.814 37.9106 98.814 37.8195 98.7998 37.7301V37.6501C98.758 37.5438 98.6931 37.4482 98.6098 37.3701V37.3201L98.4498 37.1901L54.9998 12.1701C54.8377 12.0715 54.6489 12.0261 54.4598 12.0401L44.8398 12.4401C44.6785 12.4478 44.5212 12.4923 44.3798 12.5701L2.36977 36.8001C2.2354 36.8784 2.12115 36.9869 2.03609 37.1171C1.95103 37.2473 1.89751 37.3956 1.87977 37.5501L1.18977 43.1001V43.1601C1.18544 43.1832 1.18544 43.2069 1.18977 43.2301V54.4601C1.19083 54.6346 1.23753 54.8058 1.32525 54.9567C1.41297 55.1075 1.53864 55.2328 1.68977 55.3201L4.68977 57.0601V58.4301C4.69103 58.6139 4.74293 58.7938 4.83978 58.9501L6.41978 61.5101V68.5101C6.41908 68.6863 6.46495 68.8596 6.55275 69.0123C6.64056 69.1651 6.76717 69.292 6.91978 69.3801L9.73977 71.0001C9.89121 71.09 10.0637 71.1383 10.2398 71.1401C10.4159 71.1383 10.5883 71.09 10.7398 71.0001C10.8909 70.9128 11.0166 70.7875 11.1043 70.6367C11.192 70.4858 11.2387 70.3146 11.2398 70.1401V63.4901L12.3898 63.0001C12.5837 62.9187 12.747 62.7783 12.8565 62.5987C12.966 62.4192 13.0162 62.2097 12.9998 62.0001V54.5001C13.0005 54.3239 12.9546 54.1506 12.8668 53.9978C12.779 53.845 12.6524 53.7182 12.4998 53.6301L6.19977 50.0001C6.04776 49.9123 5.87531 49.8661 5.69977 49.8661C5.52424 49.8661 5.35179 49.9123 5.19977 50.0001C5.04864 50.0873 4.92297 50.2126 4.83525 50.3635C4.74753 50.5144 4.70083 50.6856 4.69977 50.8601V54.7401L3.17977 53.8601V43.2901L3.80977 38.2901L45.1298 14.4301L54.2198 14.0501L96.7398 38.6001L96.1898 43.0001L54.8698 66.8701L45.7798 67.2401L5.62978 44.0601C5.51596 43.9877 5.38868 43.9391 5.2556 43.9173C5.12252 43.8954 4.98638 43.9006 4.85539 43.9327C4.72439 43.9648 4.60124 44.0231 4.49334 44.104C4.38544 44.1849 4.29503 44.2868 4.22753 44.4036C4.16004 44.5203 4.11686 44.6495 4.1006 44.7834C4.08433 44.9173 4.09532 45.0531 4.1329 45.1826C4.17048 45.3121 4.23387 45.4327 4.31926 45.5371C4.40465 45.6415 4.51027 45.7276 4.62978 45.7901L44.9998 69.1201C45.1522 69.2065 45.3246 69.2513 45.4998 69.2501L55.1198 68.8501C55.2817 68.8471 55.4402 68.8023 55.5798 68.7201L96.8198 45.0001V49.2801L96.1898 54.2801C96.0125 54.4489 95.9033 54.6768 95.8828 54.9207C95.8624 55.1646 95.9321 55.4075 96.0787 55.6035C96.2254 55.7995 96.4388 55.9348 96.6786 55.984C96.9184 56.0331 97.1679 55.9926 97.3798 55.8701L97.6198 55.7401C97.756 55.6629 97.8722 55.5549 97.9591 55.4246C98.0459 55.2943 98.101 55.1455 98.1198 54.9901L98.8098 49.4401V49.3101V38.0701C98.8125 38.0463 98.809 38.0222 98.7998 38.0001ZM6.69977 57.4001C6.77588 57.3349 6.84016 57.2571 6.88977 57.1701C6.98699 56.9803 7.02099 56.7644 6.98681 56.5539C6.95263 56.3434 6.85205 56.1494 6.69977 56.0001V52.6101L10.9998 55.0801V61.4101L9.84978 61.9401C9.6762 62.0204 9.52929 62.1488 9.42649 62.3101C9.32369 62.4714 9.2693 62.6588 9.26978 62.8501V68.4401L8.42978 68.0001V61.2201C8.42472 61.0368 8.3731 60.8579 8.27977 60.7001L6.69977 58.1401V57.4001ZM41.5498 70.4201L35.2798 66.8101C35.1282 66.7226 34.9563 66.6764 34.7813 66.6761C34.6063 66.6759 34.4342 66.7216 34.2824 66.8086C34.1305 66.8957 34.0042 67.0211 33.916 67.1722C33.8278 67.3234 33.7808 67.4951 33.7798 67.6701V75.2201C33.781 75.404 33.8329 75.5839 33.9298 75.7401L35.5098 78.3001V85.3001C35.5091 85.4763 35.555 85.6496 35.6428 85.8024C35.7306 85.9552 35.8572 86.082 36.0098 86.1701L38.8198 87.8001C38.9742 87.8815 39.1453 87.926 39.3198 87.9301C39.4946 87.9287 39.6664 87.884 39.8198 87.8001C39.9724 87.712 40.099 87.5852 40.1868 87.4324C40.2746 87.2796 40.3205 87.1063 40.3198 86.9301V80.2801L41.4698 79.7401C41.6418 79.6605 41.7877 79.5336 41.8904 79.3743C41.9931 79.2149 42.0484 79.0297 42.0498 78.8401V71.2901C42.0505 71.1139 42.0046 70.9407 41.9168 70.7879C41.829 70.6351 41.7024 70.5082 41.5498 70.4201ZM40.0498 78.2001L38.8998 78.7301C38.7262 78.8105 38.5793 78.9389 38.4765 79.1002C38.3737 79.2615 38.3193 79.4489 38.3198 79.6401V85.2301L37.5098 84.7601V78.0001C37.5085 77.8163 37.4566 77.6364 37.3598 77.4801L35.7798 74.9201V69.4001L40.0498 71.8701V78.2001ZM25.5899 61.2101L31.8499 64.8301C32.001 64.9174 32.1267 65.0427 32.2144 65.1936C32.3021 65.3444 32.3488 65.5156 32.3498 65.6901V73.2401C32.3503 73.4314 32.2959 73.6188 32.1931 73.7801C32.0903 73.9414 31.9434 74.0698 31.7699 74.1501L30.6299 74.6801V81.3201C30.6299 81.5854 30.5245 81.8397 30.337 82.0273C30.1494 82.2148 29.8951 82.3201 29.6299 82.3201C29.4547 82.3214 29.2823 82.2765 29.1299 82.1901L26.3199 80.5601C26.1687 80.4729 26.043 80.3476 25.9553 80.1967C25.8676 80.0459 25.8209 79.8747 25.8199 79.7001V72.7001L24.2399 70.1501C24.1412 69.991 24.0893 69.8074 24.0899 69.6201V62.0801C24.0892 61.9039 24.135 61.7307 24.2228 61.5779C24.3106 61.4251 24.4372 61.2982 24.5899 61.2101C24.7419 61.1224 24.9143 61.0762 25.0899 61.0762C25.2654 61.0762 25.4378 61.1224 25.5899 61.2101ZM29.2099 73.1301L30.3499 72.6001V66.2701L26.0899 63.8101V69.3401L27.6699 71.8901C27.7648 72.0509 27.8165 72.2335 27.8199 72.4201V79.1601L28.6299 79.6301V74.0401C28.6294 73.8489 28.6838 73.6615 28.7866 73.5002C28.8894 73.3389 29.0363 73.2105 29.2099 73.1301ZM22.1597 59.2302L15.8897 55.6102C15.7376 55.5224 15.5652 55.4762 15.3897 55.4762C15.2141 55.4762 15.0417 55.5224 14.8897 55.6102C14.7371 55.6983 14.6104 55.8251 14.5226 55.9779C14.4348 56.1307 14.389 56.304 14.3897 56.4802V64.0002C14.393 64.1868 14.4447 64.3694 14.5397 64.5302L16.1197 67.0802V74.0802C16.119 74.2564 16.1648 74.4296 16.2526 74.5824C16.3404 74.7352 16.4671 74.8621 16.6197 74.9502L19.4297 76.5702C19.5821 76.6566 19.7545 76.7014 19.9297 76.7002C20.1048 76.7014 20.2773 76.6566 20.4297 76.5702C20.5823 76.4821 20.7089 76.3552 20.7967 76.2024C20.8845 76.0497 20.9304 75.8764 20.9297 75.7002V69.0802L22.0797 68.5502C22.2532 68.4698 22.4001 68.3414 22.5029 68.1801C22.6057 68.0188 22.6601 67.8314 22.6597 67.6402V60.1002C22.6604 59.924 22.6145 59.7507 22.5267 59.5979C22.4389 59.4451 22.3123 59.3183 22.1597 59.2302ZM20.6597 67.0002L19.5097 67.5402C19.3376 67.6198 19.1917 67.7467 19.0891 67.906C18.9864 68.0654 18.9311 68.2506 18.9297 68.4402V74.0002L18.1197 73.5302V66.8202C18.1203 66.6329 18.0683 66.4493 17.9697 66.2902L16.3897 63.7402V58.2102L20.6597 60.6702V67.0002ZM65.2896 66.6761C65.4652 66.6761 65.6376 66.7224 65.7896 66.8101C65.937 66.8999 66.0587 67.0262 66.1428 67.1769C66.227 67.3276 66.2706 67.4975 66.2696 67.6701V75.2901C66.2684 75.4739 66.2165 75.6539 66.1196 75.8101L64.5396 78.3701V85.3701C64.5403 85.5463 64.4945 85.7196 64.4067 85.8724C64.3188 86.0252 64.1922 86.152 64.0396 86.2401L61.2296 87.8701C61.0758 87.9529 60.9043 87.9975 60.7296 88.0001C60.5552 87.996 60.384 87.9515 60.2296 87.8701C60.077 87.782 59.9504 87.6552 59.8626 87.5024C59.7748 87.3496 59.7289 87.1763 59.7296 87.0001V80.2801L58.5796 79.7401C58.4076 79.6605 58.2617 79.5336 58.159 79.3743C58.0563 79.2149 58.0011 79.0297 57.9996 78.8401V78.5901L55.6196 79.9001H55.5396H55.4696C55.3687 79.9329 55.2649 79.9564 55.1596 79.9701L45.5396 80.3701C45.4197 80.368 45.3012 80.3443 45.1896 80.3001H45.1096H45.0396L43.2196 79.3001C43.002 79.1618 42.8462 78.9446 42.7848 78.6941C42.7235 78.4436 42.7613 78.1791 42.8903 77.9558C43.0194 77.7325 43.2298 77.5677 43.4775 77.4958C43.7252 77.4239 43.9911 77.4506 44.2196 77.5701L44.5396 77.7501V71.2001C44.5396 70.9349 44.645 70.6805 44.8325 70.493C45.0201 70.3055 45.2744 70.2001 45.5396 70.2001C45.8049 70.2001 46.0592 70.3055 46.2467 70.493C46.4343 70.6805 46.5396 70.9349 46.5396 71.2001V78.4101L54.1596 78.1001V71.0001C54.1596 70.7349 54.265 70.4806 54.4525 70.293C54.6401 70.1055 54.8944 70.0001 55.1596 70.0001C55.4249 70.0001 55.6792 70.1055 55.8667 70.293C56.0543 70.4806 56.1596 70.7349 56.1596 71.0001V77.3701L58.0196 76.2901V71.2901C58.0189 71.1139 58.0648 70.9406 58.1526 70.7879C58.2404 70.6351 58.367 70.5082 58.5196 70.4201L64.7896 66.8101C64.9417 66.7224 65.1141 66.6761 65.2896 66.6761ZM62.7096 77.4901L64.2896 74.9301L64.2696 69.4101L59.9996 71.8701V78.2001L61.1696 78.7301C61.3432 78.8105 61.4901 78.9389 61.5929 79.1002C61.6957 79.2615 61.7501 79.4489 61.7496 79.6401V85.2301L62.5596 84.7601V78.0101C62.5609 77.8263 62.6128 77.6464 62.7096 77.4901ZM75.4797 61.2101C75.3277 61.1224 75.1553 61.0762 74.9797 61.0762C74.8042 61.0762 74.6318 61.1224 74.4797 61.2101L68.2197 64.8301C68.0686 64.9174 67.9429 65.0427 67.8552 65.1936C67.7675 65.3444 67.7208 65.5156 67.7197 65.6901V73.2401C67.7193 73.4314 67.7736 73.6188 67.8764 73.7801C67.9792 73.9414 68.1262 74.0698 68.2997 74.1501L69.4397 74.6801V81.3601C69.439 81.5364 69.4849 81.7096 69.5727 81.8624C69.6605 82.0152 69.7871 82.142 69.9397 82.2301C70.0921 82.3165 70.2646 82.3614 70.4397 82.3601C70.6149 82.3614 70.7873 82.3165 70.9397 82.2301L73.7597 80.6001C73.9109 80.5129 74.0365 80.3876 74.1243 80.2367C74.212 80.0859 74.2587 79.9147 74.2597 79.7401V72.7401L75.8297 70.1901C75.9284 70.031 75.9803 69.8474 75.9797 69.6601V62.0801C75.9804 61.9039 75.9346 61.7307 75.8467 61.5779C75.7589 61.4251 75.6323 61.2982 75.4797 61.2101ZM73.9997 69.3401L72.4297 71.8901C72.3311 72.0493 72.2791 72.2329 72.2797 72.4201V79.1601L71.4597 79.6301V74.0001C71.4611 73.81 71.4082 73.6233 71.3072 73.4622C71.2063 73.301 71.0614 73.1719 70.8897 73.0901L69.7397 72.5601V66.2701L73.9997 63.8101V69.3401ZM84.6797 55.4762C84.8552 55.4762 85.0277 55.5224 85.1797 55.6102C85.3323 55.6983 85.4589 55.8251 85.5467 55.9779C85.6345 56.1307 85.6804 56.304 85.6797 56.4802V64.0502C85.6803 64.2374 85.6283 64.421 85.5297 64.5802L83.9497 67.1302V74.1302C83.9504 74.3064 83.9045 74.4796 83.8167 74.6324C83.7289 74.7852 83.6023 74.9121 83.4497 75.0002L80.6397 76.6302C80.4873 76.7166 80.3148 76.7614 80.1397 76.7602C79.9645 76.7614 79.7921 76.7166 79.6397 76.6302C79.4871 76.5421 79.3605 76.4152 79.2727 76.2624C79.1848 76.1096 79.139 75.9364 79.1397 75.7602V69.0802L77.9897 68.5502C77.8161 68.4698 77.6692 68.3414 77.5664 68.1801C77.4636 68.0188 77.4092 67.8314 77.4097 67.6402V60.1002C77.409 59.924 77.4548 59.7507 77.5426 59.5979C77.6305 59.4451 77.7571 59.3183 77.9097 59.2302L84.1797 55.6102C84.3317 55.5224 84.5041 55.4762 84.6797 55.4762ZM82.0997 66.2902L83.6797 63.7402V58.2102L79.4097 60.6702V67.0002L80.5597 67.5402C80.7317 67.6198 80.8776 67.7467 80.9803 67.906C81.083 68.0654 81.1382 68.2506 81.1397 68.4402V74.0302L81.9497 73.5602V66.8202C81.9491 66.6329 82.001 66.4493 82.0997 66.2902ZM94.8699 50.0001C94.7179 49.9123 94.5454 49.8661 94.3699 49.8661C94.1943 49.8661 94.0219 49.9123 93.8699 50.0001L87.6099 53.6101C87.4573 53.6982 87.3307 53.825 87.2429 53.9778C87.155 54.1306 87.1092 54.3039 87.1099 54.4801V62.0001C87.1094 62.1913 87.1638 62.3787 87.2666 62.54C87.3694 62.7013 87.5163 62.8297 87.6899 62.9101L88.8299 63.4501V70.1301C88.8309 70.3046 88.8776 70.4758 88.9653 70.6267C89.0531 70.7775 89.1787 70.9028 89.3299 70.9901C89.4813 71.0799 89.6538 71.1282 89.8299 71.1301C90.006 71.1282 90.1784 71.0799 90.3299 70.9901L93.1499 69.3701C93.3025 69.282 93.4291 69.1551 93.5169 69.0023C93.6047 68.8495 93.6506 68.6763 93.6499 68.5001V61.5001L95.2199 59.0001C95.3167 58.8438 95.3686 58.6639 95.3699 58.4801V50.8801C95.3724 50.7022 95.3273 50.5268 95.2394 50.3721C95.1515 50.2174 95.024 50.089 94.8699 50.0001ZM93.3699 58.1201L91.7999 60.7001C91.703 60.8563 91.6511 61.0362 91.6499 61.2201V68.0001L90.8299 68.4701V62.8501C90.8303 62.6588 90.776 62.4714 90.6732 62.3101C90.5704 62.1488 90.4235 62.0204 90.2499 61.9401L89.1099 61.4101V55.0801L93.3699 52.6101V58.1201ZM49.4997 61.9101L17.8097 43.6101L14.1797 41.5101C14.0286 41.4228 13.9029 41.2975 13.8152 41.1467C13.7275 40.9958 13.6807 40.8246 13.6797 40.6501C13.679 40.4739 13.7249 40.3006 13.8127 40.1478C13.9005 39.995 14.0271 39.8682 14.1797 39.7801L49.4997 19.3901C49.6517 19.3023 49.8242 19.2561 49.9997 19.2561C50.1752 19.2561 50.3477 19.3023 50.4997 19.3901L85.8197 39.7401C85.9723 39.8282 86.0989 39.955 86.1867 40.1078C86.2745 40.2606 86.3204 40.4339 86.3197 40.6101C86.3186 40.7846 86.2719 40.9558 86.1842 41.1067C86.0965 41.2575 85.9708 41.3828 85.8197 41.4701L50.4997 61.8701C50.3473 61.9565 50.1749 62.0013 49.9997 62.0001C49.8281 62.0136 49.6558 61.9826 49.4997 61.9101ZM83.3197 40.6501L49.9997 21.4101L16.6797 40.6401L18.2997 41.5801L49.4997 23.5801C49.6517 23.4923 49.8242 23.4461 49.9997 23.4461C50.1752 23.4461 50.3477 23.4923 50.4997 23.5801L79.1597 40.1201C79.2792 40.1826 79.3848 40.2686 79.4702 40.373C79.5556 40.4774 79.619 40.598 79.6566 40.7275C79.6941 40.8571 79.7051 40.9929 79.6889 41.1267C79.6726 41.2606 79.6294 41.3898 79.5619 41.5066C79.4944 41.6234 79.404 41.7253 79.2961 41.8062C79.1882 41.8871 79.0651 41.9454 78.9341 41.9774C78.8031 42.0095 78.667 42.0148 78.5339 41.9929C78.4008 41.971 78.2735 41.9224 78.1597 41.8501L49.9997 25.6001L20.2997 42.7401L49.9997 59.8901L83.3197 40.6501Z" fill="#28CDCD"/>
</svg>
