<svg width="100" height="100" viewBox="0 0 100 100" fill="none" xmlns="http://www.w3.org/2000/svg">
<path fill-rule="evenodd" clip-rule="evenodd" d="M89.1903 10.91V11L89.2203 11.07V59.54C89.221 59.7162 89.1751 59.8895 89.0873 60.0422C88.9995 60.195 88.8729 60.3219 88.7203 60.41L85.0003 62.56L88.2303 66.88C88.3601 67.0531 88.4303 67.2636 88.4303 67.48V69.63C88.4292 69.8045 88.3825 69.9757 88.2948 70.1266C88.2071 70.2775 88.0814 70.4027 87.9303 70.49L83.5203 73.02H83.4203L83.2803 73.07C83.1943 73.0851 83.1063 73.0851 83.0203 73.07H82.9203C82.8707 73.0797 82.8198 73.0797 82.7703 73.07H82.7103C82.6482 73.0525 82.5879 73.0291 82.5303 73L76.8403 69.73C76.6115 69.5981 76.4443 69.381 76.375 69.1263C76.3056 68.8715 76.3399 68.5996 76.4703 68.37C76.5356 68.2554 76.623 68.1549 76.7273 68.0742C76.8316 67.9935 76.9509 67.9343 77.0783 67.8999C77.2056 67.8655 77.3385 67.8566 77.4693 67.8738C77.6001 67.891 77.7261 67.9339 77.8403 68L82.0003 70.43V70.35L78.8303 66.11L40.3303 88.34L43.5103 92.56C43.6437 92.7318 43.7174 92.9425 43.7203 93.16V95.3C43.7182 95.4755 43.67 95.6474 43.5805 95.7983C43.4909 95.9493 43.3633 96.074 43.2103 96.16L38.8103 98.69H38.7103C38.6621 98.7143 38.6119 98.7343 38.5603 98.75C38.4776 98.7644 38.393 98.7644 38.3103 98.75H38.2003C38.1507 98.7597 38.0998 98.7597 38.0503 98.75H37.9903C37.9269 98.7318 37.8663 98.7049 37.8103 98.67L32.1503 95.4C31.9215 95.2681 31.7543 95.051 31.685 94.7963C31.6156 94.5415 31.6499 94.2696 31.7803 94.04C31.8456 93.9254 31.933 93.8249 32.0373 93.7442C32.1417 93.6635 32.2609 93.6043 32.3883 93.5699C32.5156 93.5355 32.6485 93.5266 32.7793 93.5438C32.9101 93.561 33.0361 93.6039 33.1503 93.67L37.3103 96.07V96L34.1603 91.89L27.7003 95.62H27.6203H27.5403C27.4329 95.6662 27.3172 95.6901 27.2003 95.6901C27.0834 95.6901 26.9677 95.6662 26.8603 95.62H26.7703H26.7003L11.2803 86.71C11.1291 86.6227 11.0035 86.4975 10.9157 86.3466C10.828 86.1957 10.7813 86.0245 10.7803 85.85V37.37C10.7813 37.1955 10.828 37.0243 10.9157 36.8734C11.0035 36.7225 11.1291 36.5972 11.2803 36.51L72.2803 1.29999C72.4323 1.21222 72.6047 1.16602 72.7803 1.16602C72.9558 1.16602 73.1283 1.21222 73.2803 1.29999L88.7103 10.21L88.7703 10.26L88.8503 10.31C88.9401 10.3879 89.0177 10.4789 89.0803 10.58C89.1376 10.682 89.1749 10.794 89.1903 10.91ZM16.3303 45.33L12.8003 43.33V51L16.3303 53.03V45.33ZM16.3303 63.03V55.33L12.8003 53.3V61L16.3303 63.03ZM16.3303 73.03V65.33L12.8003 63.35V71L16.3303 73.03ZM16.3303 75.33L12.8003 73.33V81L16.3303 83.02V75.33ZM15.3903 38.29L27.2203 45.12L86.2003 11.07L72.8003 3.36999L12.8003 38V41L23.4003 47.13C23.5041 47.1929 23.5956 47.2743 23.6703 47.37L23.7203 47.43C23.7841 47.526 23.8346 47.6303 23.8703 47.74C23.8801 47.8264 23.8801 47.9136 23.8703 48V88.08C23.8751 88.1031 23.8751 88.1269 23.8703 88.15C23.8751 88.1798 23.8751 88.2102 23.8703 88.24C23.8549 88.356 23.8176 88.468 23.7603 88.57C23.7125 88.6409 23.659 88.7078 23.6003 88.77L23.4903 88.86L23.3903 88.93L23.2303 89H23.1503H23.0003L22.9003 88.97C22.8172 88.9796 22.7333 88.9796 22.6503 88.97C22.5617 88.9516 22.4771 88.9178 22.4003 88.87L21.8003 88.53L12.8003 83.36V85.27L26.2203 93V46.85L14.3903 40.02C14.2708 39.9575 14.1651 39.8714 14.0798 39.767C13.9944 39.6626 13.931 39.5421 13.8934 39.4125C13.8558 39.283 13.8448 39.1472 13.8611 39.0133C13.8774 38.8794 13.9205 38.7502 13.988 38.6335C14.0555 38.5167 14.1459 38.4148 14.2538 38.3339C14.3617 38.253 14.4849 38.1947 14.6159 38.1626C14.7469 38.1305 14.883 38.1253 15.0161 38.1472C15.1492 38.1691 15.2765 38.2176 15.3903 38.29ZM21.8503 66.26V58.56L18.3303 56.56V64.26L21.8503 66.26ZM18.3303 46.52V54.22L21.8503 56.21V48.52L18.3303 46.52ZM21.8503 76.27V68.57L18.3303 66.54V74.27L21.8503 76.27ZM21.8503 86.26V78.57L18.3303 76.56V84.26L21.8503 86.26ZM41.7203 94.73V93.5L38.5803 89.35L36.5003 90.55L40.2703 92.76L39.2703 94.49L38.1103 93.82L39.1103 95.09C39.2401 95.2631 39.3103 95.4736 39.3103 95.69V96.11L41.7203 94.73ZM86.4403 69.05V67.82L83.2303 63.57L81.1003 64.8L84.8603 67L83.8603 68.73L82.8003 68.12L83.8003 69.39C83.9322 69.5658 84.0025 69.7802 84.0003 70V70.43L86.4403 69.05ZM28.2203 93L87.2003 59L87.2203 12.85L28.2203 46.85V93ZM32.1003 88.1C31.8119 87.9387 31.568 87.7085 31.3903 87.43C31.3884 87.3959 31.3817 87.3622 31.3703 87.33C31.1203 86.87 30.9929 86.3534 31.0003 85.83V49.65C30.9884 48.8424 31.1723 48.044 31.5363 47.323C31.9003 46.602 32.4335 45.9799 33.0903 45.51L57.0903 31.69L65.0003 27.12C65.2966 26.9332 65.6353 26.8243 65.9849 26.8033C66.3345 26.7823 66.6838 26.85 67.0003 27C67.3069 27.1641 67.5654 27.4054 67.7503 27.7C67.7712 27.7349 67.7946 27.7683 67.8203 27.8C68.0725 28.2591 68.2 28.7763 68.1903 29.3V65.48C68.1861 66.2913 67.9846 67.0895 67.603 67.8055C67.2215 68.5216 66.6714 69.134 66.0003 69.59L34.1403 88C33.7839 88.2033 33.3806 88.3101 32.9703 88.31C32.6675 88.3118 32.3689 88.2397 32.1003 88.1ZM37.1603 73.31C35.4181 77.4336 34.1337 81.7361 33.3303 86.14L40.4803 82C40.2454 79.9183 40.2052 77.8192 40.3603 75.73C40.0167 75.5923 39.6827 75.4319 39.3603 75.25C38.5137 74.7444 37.7678 74.0867 37.1603 73.31ZM55.4448 60.8647C55.3773 60.9998 55.28 61.1179 55.1603 61.21C56.7869 60.9515 58.3733 60.4843 59.8803 59.82C60.678 58.0723 61.301 56.2502 61.7403 54.38C59.8393 56.179 57.766 57.7867 55.5503 59.18V60.43C55.5484 60.581 55.5123 60.7296 55.4448 60.8647ZM54.7403 67.78C56.1861 66.1453 57.4595 64.3659 58.5403 62.47C56.7535 63.0497 54.8887 63.3532 53.0103 63.37C52.5261 63.3716 52.0421 63.3482 51.5603 63.3L49.9403 64.23C51.1415 65.8745 52.8162 67.113 54.7403 67.78ZM55.5403 56.26V56.79H55.5603C58.0037 55.1248 60.2542 53.1929 62.2703 51.03C62.3303 50.56 62.3303 50.1 62.3303 49.64C62.3347 48.5977 62.224 47.558 62.0003 46.54C60.1891 49.9948 58.0241 53.2522 55.5403 56.26ZM54.5403 47.976C54.7158 47.976 54.8883 48.0222 55.0403 48.11H55.0603C55.7807 45.7533 56.2894 43.3371 56.5803 40.89C56.2753 40.8494 55.968 40.8294 55.6603 40.83C54.5445 40.859 53.4419 41.0789 52.4003 41.48C53.234 43.6372 53.7266 45.9111 53.8603 48.22L54.0403 48.11C54.1923 48.0222 54.3648 47.976 54.5403 47.976ZM53.5503 59.85V50.71L45.6003 55.28V64.42L53.5503 59.85ZM42.5203 74.22C43.9417 74.3757 45.3797 74.1835 46.7103 73.66C45.8653 71.5022 45.3691 69.2237 45.2403 66.91L45.0803 67C44.9279 67.0864 44.7555 67.1312 44.5803 67.13C44.4051 67.1312 44.2327 67.0864 44.0803 67C43.3468 69.3555 42.8248 71.7717 42.5203 74.22ZM40.6103 52.67C42.8631 51.9211 45.2448 51.6387 47.6103 51.84L49.2103 50.92C48.0079 49.2702 46.3294 48.0279 44.4003 47.36C42.9555 48.9931 41.6852 50.7728 40.6103 52.67ZM43.7081 54.2583C43.7775 54.1213 43.8774 54.0021 44.0003 53.91C42.3595 54.1678 40.7594 54.6384 39.2403 55.31C38.4443 57.0573 37.8245 58.8796 37.3903 60.75C39.2927 58.9383 41.3732 57.3234 43.6003 55.93V54.7C43.6018 54.5464 43.6387 54.3953 43.7081 54.2583ZM43.5903 58.3403V58.82C41.1069 61.8439 38.9453 65.1182 37.1403 68.59C36.9166 67.5719 36.8059 66.5323 36.8103 65.49C36.8103 65.03 36.8103 64.56 36.8703 64.09C38.8892 61.9291 41.1432 60.0006 43.5903 58.3403ZM38.1303 71.19C38.6518 72.1496 39.4221 72.951 40.3603 73.51C40.4418 73.5449 40.5253 73.5749 40.6103 73.6C41.1345 69.7261 42.1424 65.9332 43.6103 62.31V62.11C41.4886 64.9484 39.6529 67.9899 38.1303 71.19ZM42.3603 76.23C42.2451 77.7879 42.2451 79.3521 42.3603 80.91L48.7403 77.25C48.3191 76.6855 47.9349 76.0943 47.5903 75.48C46.2705 75.999 44.8683 76.2768 43.4503 76.3C43.0858 76.3019 42.7216 76.2785 42.3603 76.23ZM47.1503 65.83C47.1953 68.2235 47.652 70.5914 48.5003 72.83H48.5303C48.5517 72.8193 48.573 72.8088 48.5942 72.7983C48.7515 72.7207 48.8986 72.6481 48.9603 72.56C50.4815 71.6632 51.8885 70.5854 53.1503 69.35C51.144 68.4551 49.4165 67.0352 48.1503 65.24L47.1503 65.83ZM49.3603 74.65C49.6796 75.2065 50.0406 75.7381 50.4403 76.24L60.8403 70.21C60.1204 70.2998 59.3958 70.3466 58.6703 70.35C57.5575 70.3543 56.4476 70.2369 55.3603 70C53.7976 71.6732 52.0066 73.1174 50.0403 74.29C49.8103 74.42 49.5903 74.54 49.3603 74.65ZM65.6403 67.18C65.9808 66.6768 66.1716 66.0873 66.1903 65.48V58.59C64.6495 59.6487 63.024 60.5785 61.3303 61.37C60.1401 63.8435 58.6597 66.1665 56.9203 68.29C59.8727 68.5393 62.8445 68.161 65.6403 67.18ZM62.5603 58.51C63.8131 57.7875 65.0249 56.9963 66.1903 56.14L66.1703 49.54C65.5303 50.36 64.8503 51.14 64.1703 51.89C63.9051 54.154 63.3644 56.3771 62.5603 58.51ZM66.1903 46.29V36.04V36C65.4084 38.7164 64.4326 41.3733 63.2703 43.95C63.8855 45.4746 64.2241 47.0966 64.2703 48.74C64.9103 47.95 65.5603 47.14 66.1903 46.29ZM62.0003 41.85C63.7444 37.7201 65.0288 33.4108 65.8303 29L58.6503 33.09C58.8843 35.1784 58.9278 37.2837 58.7803 39.38C59.1238 39.5141 59.4579 39.6711 59.7803 39.85C60.6411 40.369 61.3946 41.0478 62.0003 41.85ZM58.7903 41.61L58.5703 41.51C58.0347 45.359 57.0271 49.1273 55.5703 52.73V53C57.6866 50.1862 59.5221 47.1718 61.0503 44C60.5239 43.0158 59.7435 42.1906 58.7903 41.61ZM56.7503 38.92C56.8706 37.3556 56.8706 35.7843 56.7503 34.22L50.3703 37.88C50.7948 38.4477 51.1823 39.0423 51.5303 39.66C53.1837 38.9907 54.976 38.7366 56.7503 38.92ZM51.9603 49.3C51.9125 46.9068 51.456 44.5393 50.6103 42.3C50.4627 42.382 50.3217 42.4438 50.1765 42.5076C50.1447 42.5215 50.1127 42.5356 50.0803 42.55C48.5639 43.441 47.1633 44.5158 45.9103 45.75C47.9381 46.6414 49.6842 48.0694 50.9603 49.88L51.9603 49.3ZM49.7603 40.49C49.4318 39.9337 49.0677 39.3993 48.6703 38.89L38.3103 44.87C40.1333 44.6406 41.9816 44.715 43.7803 45.09C45.3359 43.4326 47.1166 42.0019 49.0703 40.84C49.2083 40.762 49.3463 40.6948 49.4843 40.6276C49.5763 40.5828 49.6683 40.538 49.7603 40.49ZM33.5003 48C33.1904 48.496 33.0178 49.0654 33.0003 49.65V56.53C34.5313 55.4838 36.1469 54.5673 37.8303 53.79C39.0151 51.3242 40.4887 49.0079 42.2203 46.89C39.2679 46.6407 36.2961 47.019 33.5003 48ZM36.6303 56.63C35.3775 57.3524 34.1657 58.1436 33.0003 59V65.58C33.6403 64.76 34.3103 63.98 35.0003 63.23C35.2667 60.9707 35.8143 58.7535 36.6303 56.63ZM34.9303 66.4C34.2803 67.18 33.6303 67.99 33.0003 68.85V79.1C33.7878 76.4003 34.7669 73.7602 35.9303 71.2C35.3172 69.6713 34.9787 68.0463 34.9303 66.4Z" fill="#28CDCD"/>
</svg>
