<svg width="1024" height="1024" viewBox="0 0 1024 1024" fill="none" xmlns="http://www.w3.org/2000/svg">
<g clip-path="url(#clip0_714_8085)">
<path fill-rule="evenodd" clip-rule="evenodd" d="M108.223 358.576C108.858 357.933 109.583 357.369 110.386 356.905L431.308 171.561C435.329 169.239 440.27 169.954 443.475 172.995L478.807 193.382L483.923 190.413C488.815 187.575 495.081 189.239 497.919 194.131C499.83 197.422 499.701 201.337 497.921 204.41L863.255 415.21L867.72 412.621C872.613 409.783 878.878 411.449 881.716 416.342C883.507 419.43 883.503 423.066 882.026 426.041L913.406 444.148C914.24 444.629 914.989 445.217 915.641 445.89C917.548 447.75 918.733 450.348 918.733 453.222V591.882L1018.86 649.346C1022.03 651.169 1023.99 654.551 1024 658.213C1024 661.876 1022.05 665.263 1018.88 667.095L697.96 852.439C694.802 854.262 690.913 854.269 687.749 852.457L582.43 792.129C582.301 792.058 582.174 791.985 582.048 791.908L549.077 772.847C547.223 774.669 544.678 775.79 541.873 775.783C536.218 775.768 531.646 771.171 531.661 765.515L531.668 762.782L165.195 550.915C163.369 552.573 160.943 553.581 158.283 553.574C152.628 553.559 148.055 548.962 148.071 543.306L148.077 541.019L110.382 519.227C109.834 518.909 109.321 518.546 108.85 518.142L5.1428 458.621C1.96397 456.797 0.00263693 453.413 2.65683e-06 449.748C-0.00263162 446.082 1.95384 442.695 5.13004 440.866L78.0388 398.882C82.9398 396.06 89.2005 397.745 92.0227 402.646C94.8448 407.547 93.1597 413.808 88.2588 416.63L30.7859 449.725L105.268 492.473V368.029C104.567 364.607 105.671 361.013 108.223 358.576ZM903.547 606.78C903.247 606.614 902.956 606.433 902.675 606.239C901.36 605.333 900.315 604.163 899.571 602.841C898.897 601.647 898.455 600.304 898.307 598.873C898.263 598.456 898.245 598.035 898.253 597.613V470.633L597.606 644.156V765.395L683.407 715.721C688.301 712.887 694.566 714.558 697.399 719.452C700.233 724.346 698.562 730.611 693.668 733.444L607.885 783.108L692.817 831.758L993.237 658.255L903.547 606.78ZM125.747 371.77V504.453L148.14 517.399L148.464 396.878L137.232 390.42C132.329 387.601 130.64 381.341 133.459 376.438C136.278 371.535 142.538 369.846 147.44 372.665L158.696 379.138L458.376 205.238L436.227 192.457L125.747 371.77ZM168.589 529.221L531.732 739.163L532.054 619.064L182.465 416.618C177.571 413.784 175.902 407.519 178.736 402.625C181.57 397.731 187.835 396.061 192.729 398.895L542.308 601.336L842.817 427.063L478.837 217.043L168.944 396.869L168.589 529.221ZM552.18 750.985L577.126 765.407V644.438L565.516 637.845C560.599 635.052 558.876 628.801 561.669 623.884C564.461 618.966 570.712 617.243 575.63 620.036L587.121 626.562L887.801 453.019L863.281 438.87L552.534 619.08L552.18 750.985ZM886.529 666.134C883.959 664.66 883.299 663.524 883.138 663.142C883.299 662.76 883.959 661.624 886.529 660.15C890.016 658.151 895.514 656.588 902.144 656.588C908.773 656.588 914.272 658.151 917.759 660.15C920.328 661.624 920.989 662.76 921.15 663.142C920.989 663.524 920.328 664.66 917.759 666.134C914.272 668.133 908.773 669.696 902.144 669.696C895.514 669.696 890.016 668.133 886.529 666.134ZM902.144 636.108C892.599 636.108 883.454 638.305 876.341 642.384C869.511 646.3 862.617 653.262 862.617 663.142C862.617 673.022 869.511 679.983 876.341 683.9C883.454 687.979 892.599 690.176 902.144 690.176C911.689 690.176 920.833 687.979 927.946 683.9C934.776 679.983 941.67 673.022 941.67 663.142C941.67 653.262 934.776 646.3 927.946 642.384C920.833 638.305 911.689 636.108 902.144 636.108ZM679.681 783.484C677.111 782.01 676.451 780.874 676.29 780.492C676.451 780.11 677.111 778.974 679.681 777.5C683.168 775.501 688.667 773.938 695.296 773.938C701.925 773.938 707.424 775.501 710.911 777.5C713.48 778.974 714.141 780.11 714.302 780.492C714.141 780.874 713.48 782.01 710.911 783.484C707.424 785.483 701.925 787.046 695.296 787.046C688.667 787.046 683.168 785.483 679.681 783.484ZM695.296 753.458C685.751 753.458 676.607 755.655 669.493 759.734C662.663 763.65 655.77 770.612 655.77 780.492C655.77 790.372 662.663 797.333 669.493 801.25C676.607 805.329 685.751 807.526 695.296 807.526C704.841 807.526 713.985 805.329 721.098 801.25C727.928 797.333 734.822 790.372 734.822 780.492C734.822 770.612 727.928 763.65 721.098 759.734C713.985 755.655 704.841 753.458 695.296 753.458ZM490.085 265.972C486.917 264.143 483.014 264.144 479.846 265.973L273.408 385.166C270.24 386.996 268.288 390.377 268.288 394.035C268.288 397.694 270.241 401.074 273.409 402.903L533.505 553.022C536.673 554.85 540.576 554.85 543.744 553.021L750.183 433.827C753.351 431.998 755.303 428.617 755.303 424.958C755.302 421.3 753.35 417.919 750.181 416.09L490.085 265.972ZM299.01 394.033L484.967 286.665L724.581 424.961L538.623 532.329L299.01 394.033ZM479.843 312.26C483.012 310.428 486.917 310.428 490.087 312.258L669.901 416.092C673.069 417.921 675.02 421.3 675.021 424.958C675.021 428.615 673.071 431.995 669.905 433.825L629.088 457.414C628.346 457.992 627.532 458.459 626.673 458.81L543.748 506.734C540.579 508.566 536.673 508.566 533.503 506.736L353.689 402.902C350.522 401.073 348.57 397.694 348.57 394.036C348.569 390.379 350.519 386.999 353.686 385.169L394.508 361.577C395.247 361.002 396.057 360.537 396.911 360.188L479.843 312.26ZM602.232 449.281L580.699 461.725L511.257 421.626L532.82 409.199L602.232 449.281ZM622.701 437.451L553.318 397.386L574.957 384.916L644.31 424.963L622.701 437.451ZM532.831 385.556L554.47 373.085L484.968 332.952L463.36 345.44L532.831 385.556ZM442.891 357.269L421.358 369.714L490.769 409.795L512.333 397.368L442.891 357.269ZM379.281 394.031L400.889 381.543L470.272 421.608L448.633 434.078L379.281 394.031ZM469.121 445.909L490.759 433.439L560.23 473.555L538.622 486.042L469.121 445.909ZM887.183 621.84C892.084 619.019 893.77 612.758 890.948 607.857C888.126 602.956 881.865 601.27 876.964 604.092L873.965 605.819C874.309 603.807 874.544 601.773 874.666 599.726C875.147 595.37 874.445 590.962 872.629 586.967C870.758 582.85 867.778 579.335 864.023 576.815C863.564 576.508 863.082 576.238 862.58 576.008C862.282 575.871 861.981 575.741 861.678 575.616L822.56 552.537C822.209 552.33 821.847 552.144 821.474 551.98C817.494 550.233 813.132 549.536 808.806 549.956C804.524 550.373 800.419 551.869 796.876 554.306C789.521 559.18 783.425 565.725 779.084 573.408C774.778 581.031 772.322 589.557 771.914 598.3C771.508 602.603 772.235 606.94 774.026 610.878C775.868 614.932 778.769 618.414 782.423 620.959C782.533 621.035 782.644 621.11 782.756 621.182C782.871 621.255 782.987 621.326 783.104 621.395L824.064 645.356C825.357 646.113 826.748 646.553 828.146 646.702C829.78 647.262 831.483 647.641 833.228 647.821C839.063 648.425 844.899 646.77 849.542 643.21C849.97 642.928 850.394 642.64 850.814 642.347C851.696 642.121 852.563 641.773 853.391 641.296L887.183 621.84ZM853.369 594.488C853.619 594.773 853.827 595.094 853.985 595.442C854.284 596.099 854.394 596.827 854.302 597.543C854.271 597.789 854.249 598.036 854.236 598.283C853.932 603.9 852.304 609.365 849.484 614.231C846.664 619.097 842.731 623.227 838.009 626.282L839.077 627.933C838.933 628.229 838.803 628.532 838.688 628.84L837.133 626.917C836.628 627.325 835.982 627.517 835.336 627.45C834.714 627.386 834.141 627.087 833.733 626.617C833.51 626.319 833.347 625.981 833.254 625.621C833.153 625.235 833.135 624.832 833.198 624.439C833.26 624.058 833.301 623.673 833.319 623.287C833.587 617.698 835.167 612.252 837.93 607.388C840.694 602.523 844.565 598.378 849.228 595.288C849.336 595.216 849.443 595.142 849.548 595.067C850.193 594.603 850.95 594.318 851.742 594.241C852.181 594.198 852.622 594.22 853.051 594.305L853.113 594.342C853.198 594.392 853.283 594.441 853.369 594.488ZM832.58 582.227L812.825 570.572C812.171 570.353 811.477 570.273 810.788 570.34C809.95 570.422 809.148 570.717 808.457 571.197L808.25 571.337C803.563 574.43 799.678 578.592 796.915 583.482C794.153 588.371 792.592 593.848 792.362 599.459C792.357 599.582 792.35 599.705 792.341 599.828C792.332 599.937 792.322 600.046 792.31 600.155C792.226 600.923 792.35 601.7 792.67 602.404C792.95 603.02 793.372 603.561 793.899 603.982L813.605 615.511C814.702 609.116 816.902 602.942 820.124 597.27C823.373 591.552 827.594 586.464 832.58 582.227ZM811.475 653.714C814.307 658.609 812.634 664.873 807.739 667.705L733.396 710.713C732.489 711.238 731.535 711.608 730.564 711.832C727.631 713.425 724.399 714.419 721.056 714.744C716.667 715.171 712.245 714.429 708.236 712.593C707.606 712.305 707.007 711.953 706.448 711.543C706.122 711.305 705.802 711.059 705.489 710.805L666.778 688.159C666.545 688.023 666.318 687.878 666.097 687.724C662.443 685.179 659.542 681.697 657.699 677.643C655.897 673.678 655.172 669.31 655.596 664.979C656.125 656.291 658.624 647.837 662.907 640.257C667.211 632.638 673.201 626.106 680.418 621.161C683.974 618.634 688.13 617.082 692.474 616.659C696.862 616.233 701.285 616.975 705.294 618.81C705.604 618.952 705.907 619.11 706.201 619.282L747.161 643.244C749.058 644.354 750.466 645.98 751.311 647.84C751.752 648.302 752.175 648.783 752.578 649.284C754.624 651.747 756.117 654.622 756.954 657.713C757.739 660.611 757.931 663.635 757.52 666.605C757.403 668.939 757.141 671.258 756.738 673.549L797.483 649.978C802.379 647.146 808.643 648.818 811.475 653.714ZM716.227 648.874C711.074 653.174 706.72 658.375 703.388 664.24C700.233 669.792 698.058 675.826 696.94 682.077L677.572 670.747C677.045 670.326 676.624 669.785 676.344 669.168C676.024 668.465 675.9 667.688 675.984 666.92C675.995 666.818 676.005 666.717 676.013 666.615C676.019 666.537 676.024 666.46 676.028 666.382C676.347 660.742 677.959 655.25 680.738 650.331C683.517 645.412 687.389 641.197 692.056 638.013L692.262 637.869C692.907 637.405 693.664 637.12 694.455 637.043C695.125 636.978 695.8 637.064 696.43 637.293L716.227 648.874ZM717.689 694.215C717.404 693.876 717.165 693.498 716.981 693.091C716.632 692.323 716.486 691.479 716.558 690.638C716.563 690.584 716.567 690.53 716.57 690.475C716.576 690.402 716.58 690.329 716.583 690.256C716.851 684.668 718.431 679.221 721.194 674.357C723.958 669.493 727.828 665.347 732.492 662.257C732.732 662.098 732.966 661.928 733.192 661.749C733.702 661.345 734.352 661.16 734.998 661.234C735.645 661.309 736.235 661.637 736.64 662.146C736.698 662.219 736.758 662.291 736.818 662.362C736.99 662.567 737.116 662.808 737.186 663.067C737.256 663.326 737.269 663.597 737.224 663.862C737.148 664.303 737.101 664.749 737.083 665.197C736.863 670.789 735.336 676.251 732.626 681.147C729.915 686.043 726.095 690.236 721.473 693.391L721.817 693.895C721.756 693.945 721.695 693.995 721.636 694.046L721.268 693.534C720.622 693.998 719.865 694.283 719.074 694.36C718.666 694.4 718.256 694.384 717.856 694.313L717.689 694.215Z" fill="#28CDCD"/>
</g>
<defs>
<clipPath id="clip0_714_8085">
<rect width="1024" height="1024" fill="white"/>
</clipPath>
</defs>
</svg>
