<svg width="100" height="100" viewBox="0 0 100 100" fill="none" xmlns="http://www.w3.org/2000/svg">
<path d="M19.5578 53.7513C15.4878 56.1013 14.0878 61.9613 15.9178 69.0513C16.0578 69.5913 16.6078 69.9113 17.1378 69.7713C17.6778 69.6313 17.9978 69.0913 17.8578 68.5513C16.2878 62.4613 17.3478 57.3313 20.5578 55.4813C20.6878 55.4113 20.8178 55.3613 20.9578 55.3013C19.5778 58.1713 19.3478 62.1413 20.3878 66.5213C20.4978 66.9813 20.9078 67.2913 21.3578 67.2913C21.4378 67.2913 21.5078 67.2913 21.5878 67.2613C22.1278 67.1313 22.4578 66.5913 22.3278 66.0613C21.2378 61.4513 21.6378 57.4313 23.4278 55.0113C23.4978 54.9213 23.5378 54.8213 23.5678 54.7113C28.1878 54.6913 34.1078 59.1013 38.0978 66.0213C42.5178 73.6813 43.0978 81.8413 39.7578 85.4113C39.6078 85.2813 39.4378 85.1813 39.2278 85.1613C36.2178 84.8313 32.7378 82.7813 29.6678 79.5413C29.2878 79.1413 28.6578 79.1213 28.2578 79.5013C27.8578 79.8813 27.8378 80.5113 28.2178 80.9113C31.1778 84.0513 34.4378 86.1213 37.5378 86.8813C34.3078 88.0113 29.7878 86.2513 25.6678 82.1613C25.2778 81.7713 24.6478 81.7713 24.2578 82.1613C23.8678 82.5513 23.8678 83.1813 24.2578 83.5713C27.9778 87.2613 31.9678 89.2313 35.4478 89.2313C36.8878 89.2313 38.2478 88.8913 39.4578 88.1913C45.2478 84.8513 45.4078 74.6613 39.8278 65.0013C34.2478 55.3413 25.3478 50.3913 19.5578 53.7313V53.7513Z" fill="#30CCCC"/>
<path d="M87.9176 36.7513C85.5876 32.7113 82.6276 29.2613 79.3776 26.7713C79.2576 26.6813 79.1176 26.6213 78.9776 26.5913C79.0176 26.4813 79.0476 26.3713 79.0476 26.2613V14.7313C79.0476 14.6113 79.0176 14.5013 78.9776 14.3913C78.9676 14.3613 78.9576 14.3313 78.9376 14.3013C78.8976 14.2113 78.8376 14.1213 78.7676 14.0513C78.7576 14.0313 78.7376 14.0213 78.7276 14.0113C78.6676 13.9613 78.6076 13.9113 78.5376 13.8713L59.6876 3.13128C59.3776 2.95128 58.9976 2.96128 58.6876 3.13128L33.6776 17.5713C33.6776 17.5713 33.6176 17.6313 33.5876 17.6513C33.5276 17.6913 33.4776 17.7313 33.4376 17.7913C33.3976 17.8413 33.3676 17.8913 33.3276 17.9513C33.2976 18.0013 33.2676 18.0613 33.2476 18.1213C33.2276 18.1913 33.2176 18.2513 33.2076 18.3213C33.2076 18.3613 33.1876 18.4013 33.1876 18.4413V32.2913C33.1876 32.4113 33.2076 32.5213 33.2476 32.6313L35.0976 37.7713C35.1376 37.8713 35.1876 37.9613 35.2576 38.0413V41.2413L30.3376 44.1913C25.6876 42.1413 21.3476 42.0713 17.8676 44.0813L14.9476 46.0313C7.72765 50.2713 6.72764 62.3413 12.4576 74.9713L9.20764 76.8513C9.06764 76.9313 8.96763 77.0413 8.88763 77.1613C7.69763 78.2913 7.68764 80.6413 8.95764 82.8413C9.57764 83.9213 10.4276 84.8113 11.3376 85.3313C11.9376 85.6813 12.5476 85.8513 13.1176 85.8513C13.3576 85.8513 13.5976 85.8113 13.8176 85.7513C13.9376 85.7313 14.0676 85.7013 14.1776 85.6313L17.5476 83.6813C23.7076 92.0813 31.4976 96.9813 38.0276 96.9813C40.0476 96.9813 41.9376 96.5113 43.6276 95.5413C43.6476 95.5413 43.6576 95.5213 43.6776 95.5113L43.8176 95.4213C44.0976 95.2513 44.3776 95.0713 44.6476 94.8713L46.5576 93.6013C49.9276 91.6513 51.9276 87.9213 52.5376 83.2513C52.5476 83.2513 52.5676 83.2413 52.5776 83.2313L54.6976 82.0113C54.7176 82.3313 54.8676 82.6413 55.1776 82.8213L59.1476 85.1413C59.3076 85.2313 59.4776 85.2813 59.6476 85.2813C59.8176 85.2813 59.9976 85.2313 60.1576 85.1413L68.0376 80.5213C68.3476 80.3413 68.5276 80.0113 68.5276 79.6613L68.5476 74.0213L70.6176 72.8313C70.6676 73.1113 70.8276 73.3613 71.0876 73.5113L75.0576 75.8313C75.2176 75.9213 75.3876 75.9713 75.5576 75.9713C75.7276 75.9713 75.9076 75.9213 76.0676 75.8313L83.9476 71.2113C84.2576 71.0313 84.4376 70.7013 84.4376 70.3513L84.4576 64.8413L87.5976 63.0313C87.7676 62.9313 87.8876 62.7813 87.9776 62.6113C93.9676 58.6613 94.0076 47.2313 87.9576 36.7513H87.9176ZM77.0476 26.0513L75.3176 29.9613C75.2576 30.0913 75.2376 30.2213 75.2276 30.3513L75.1776 33.4913L71.2576 35.7913L71.9076 32.9013C72.0276 32.3613 71.6876 31.8313 71.1476 31.7113C70.6076 31.5913 70.0776 31.9313 69.9576 32.4713L68.8976 37.1813L67.2376 38.1513L67.8876 35.2313C68.0076 34.6913 67.6676 34.1613 67.1276 34.0413C66.5876 33.9213 66.0576 34.2613 65.9376 34.8013L64.8776 39.5413L63.2676 40.4813L63.9376 37.5013C64.0576 36.9613 63.7176 36.4313 63.1776 36.3113C62.6376 36.1913 62.1076 36.5313 61.9876 37.0713L60.9176 41.8713L59.4376 42.7413L60.0976 39.7813C60.2176 39.2413 59.8776 38.7113 59.3376 38.5913C58.8076 38.4713 58.2676 38.8113 58.1476 39.3513L57.0776 44.1313L50.5376 47.9613V45.9013L53.4976 44.5513H53.5176C53.5176 44.5513 53.5876 44.4913 53.6276 44.4613C53.6976 44.4213 53.7676 44.3813 53.8276 44.3213C53.8676 44.2713 53.8976 44.2213 53.9276 44.1713C53.9676 44.1113 54.0076 44.0613 54.0276 44.0013C54.0576 43.9313 54.0576 43.8513 54.0776 43.7813C54.0776 43.7313 54.1076 43.6913 54.1076 43.6413V29.9713L77.0476 16.5213V26.0913V26.0513ZM37.2476 39.2913L48.5376 45.8113V47.8313L37.2476 41.2413V39.2913ZM59.1976 5.15127L76.0476 14.7513L53.0976 28.2113L36.1776 18.4413L59.1876 5.15127H59.1976ZM35.1876 20.1713L52.1076 29.9413V42.9613L49.5876 44.1113L36.8476 36.7513L35.1876 32.1213V20.1713ZM29.8776 67.2313C29.9676 67.2113 30.0476 67.1913 30.1276 67.1413C30.5776 66.8713 31.8776 67.5313 32.7876 69.1013C33.6976 70.6813 33.6176 72.1213 33.1576 72.3913C33.1176 72.4113 33.0776 72.4113 33.0376 72.4313L15.6276 82.4813C15.5576 81.5213 15.2376 80.4913 14.6876 79.5213C14.0976 78.5013 13.3576 77.7213 12.5776 77.2013L29.8776 67.2113V67.2313ZM10.6576 81.8613C9.74764 80.2813 9.82764 78.8413 10.2876 78.5713C10.3576 78.5313 10.4376 78.5113 10.5376 78.5113C11.1176 78.5113 12.1776 79.1813 12.9576 80.5313C13.4076 81.3013 13.6576 82.1413 13.6576 82.8413C13.6576 83.3213 13.5276 83.7013 13.3276 83.8213C13.1176 83.9413 12.7376 83.8613 12.3176 83.6213C11.7176 83.2713 11.1176 82.6313 10.6676 81.8613H10.6576ZM48.9876 88.1613C50.0176 84.6513 50.1076 80.3213 49.1276 75.5613C49.0176 75.0213 48.4776 74.6713 47.9476 74.7813C47.4076 74.8913 47.0576 75.4213 47.1676 75.9613C48.7776 83.8013 47.3576 90.2913 43.4576 93.2513L42.5776 93.8313C36.4776 97.3413 26.5876 92.5613 19.2576 82.6913L33.9876 74.1813C34.0376 74.1613 34.0976 74.1413 34.1476 74.1113C35.7576 73.1813 35.9176 70.5313 34.5076 68.0913C33.1976 65.8213 31.0676 64.6613 29.4776 65.2513C29.3276 65.2513 29.1776 65.2913 29.0376 65.3713L14.1476 73.9713C9.01764 62.4913 9.73764 51.3213 15.9576 47.7213C19.1276 45.8913 23.3976 46.2213 27.9876 48.6513C28.4776 48.9113 29.0776 48.7213 29.3376 48.2313C29.5976 47.7413 29.4076 47.1413 28.9176 46.8813C26.6276 45.6713 24.3976 44.9313 22.2876 44.6613C25.0676 44.3413 28.2976 45.1713 31.6976 47.1313C36.7676 50.0513 41.5376 55.1013 45.1376 61.3413C50.9476 71.4013 52.2376 82.0713 48.9576 88.1413L48.9876 88.1613ZM46.8976 60.3613C43.1276 53.8213 38.0876 48.5213 32.7176 45.4213C32.6276 45.3713 32.5276 45.3213 32.4376 45.2713L36.2476 42.9913L49.1176 50.5013C49.2776 50.5913 49.4476 50.6413 49.6176 50.6413C49.7876 50.6413 49.9676 50.5913 50.1276 50.5013L76.6676 34.9413C76.9676 34.7613 77.1576 34.4413 77.1576 34.0913L77.2176 30.5913L78.1876 28.4013C81.2176 30.7313 83.9876 33.9613 86.1776 37.7613C91.8176 47.5213 91.9776 58.0213 86.5376 61.1613C86.3876 61.2513 86.2776 61.3813 86.1976 61.5113L83.7276 62.9313C86.0376 57.5913 84.9176 49.2713 80.2876 41.2513C79.9976 40.7413 79.6876 40.2413 79.3776 39.7513C79.0776 39.2913 78.4576 39.1513 77.9976 39.4513C77.5376 39.7513 77.3976 40.3713 77.6976 40.8313C77.9976 41.2913 78.2776 41.7713 78.5576 42.2513C84.1976 52.0113 84.3576 62.5113 78.9176 65.6513C78.8476 65.6913 78.7876 65.7613 78.7376 65.8113L58.8276 77.3013C59.1876 76.4713 59.4776 75.5813 59.6676 74.6013L79.4676 63.0813C79.7376 62.9213 79.9276 62.6413 79.9576 62.3313C79.9876 62.0213 79.8776 61.7013 79.6476 61.4913L78.6876 60.6013C78.2876 60.2313 77.6476 60.2513 77.2776 60.6513C76.9076 61.0513 76.9276 61.6613 77.3076 62.0413L59.9576 72.1313C59.9776 71.7713 60.0076 71.4213 60.0076 71.0513C60.0076 70.4113 59.9776 69.7713 59.9176 69.1113L79.5676 57.6813C79.8376 57.5213 80.0276 57.2413 80.0576 56.9313C80.0976 56.6113 79.9776 56.3013 79.7476 56.0913L78.7876 55.2013C78.3876 54.8313 77.7476 54.8513 77.3776 55.2513C77.0076 55.6513 77.0276 56.2613 77.4076 56.6413L59.6476 66.9713C59.4976 66.1013 59.2976 65.2113 59.0676 64.3213L78.6876 52.9113C78.9576 52.7513 79.1476 52.4713 79.1776 52.1613C79.2076 51.8513 79.0976 51.5313 78.8676 51.3213L77.9076 50.4313C77.4976 50.0613 76.8676 50.0813 76.4976 50.4813C76.1276 50.8813 76.1476 51.4913 76.5276 51.8713L58.4876 62.3613C58.1976 61.4813 57.8676 60.6013 57.4976 59.7313L76.6576 48.5813C76.9276 48.4213 77.1176 48.1413 77.1476 47.8313C77.1776 47.5213 77.0676 47.2013 76.8376 46.9913L75.8776 46.1013C75.4776 45.7313 74.8376 45.7513 74.4676 46.1513C74.0976 46.5513 74.1176 47.1613 74.4976 47.5413L56.6676 57.9113C56.2876 57.1413 55.8976 56.3813 55.4576 55.6313C55.1676 55.1213 54.8576 54.6213 54.5476 54.1313C54.2476 53.6613 53.6276 53.5313 53.1676 53.8313C52.6976 54.1313 52.5676 54.7513 52.8676 55.2113C53.1676 55.6713 53.4476 56.1513 53.7276 56.6313C56.5076 61.4413 58.0376 66.5713 58.0276 71.0813C58.0276 75.3913 56.6276 78.5713 54.0776 80.0413C53.9976 80.0913 53.9376 80.1613 53.8676 80.2213L52.7176 80.8813C52.8976 74.7613 50.9776 67.4113 46.9276 60.3913L46.8976 60.3613ZM66.4976 79.0913L59.6176 83.1313L56.1976 81.1413L66.5076 75.1913V79.1013L66.4976 79.0913ZM82.4076 69.7813L75.5276 73.8213L72.2276 71.8913L82.4276 66.0013V69.7813H82.4076Z" fill="#30CCCC"/>
<path d="M68.2376 29.8814C68.5876 30.0814 68.9776 30.1814 69.3876 30.1814C69.9076 30.1814 70.4676 30.0214 71.0176 29.7014C72.7076 28.7214 74.0376 26.4314 74.0376 24.4714C74.0376 23.3414 73.5876 22.4314 72.7976 21.9714C72.0076 21.5214 70.9976 21.5814 70.0176 22.1514C68.3276 23.1314 66.9976 25.4214 66.9976 27.3814C66.9976 28.5114 67.4476 29.4214 68.2376 29.8814ZM71.0176 23.8914C71.2876 23.7314 71.4976 23.6814 71.6376 23.6814C71.7076 23.6814 71.7576 23.6914 71.7976 23.7114C71.9076 23.7714 72.0376 24.0114 72.0376 24.4714C72.0376 25.7114 71.0976 27.3414 70.0176 27.9614C69.6176 28.1914 69.3476 28.2014 69.2376 28.1414C69.1276 28.0814 68.9976 27.8414 68.9976 27.3814C68.9976 26.1414 69.9376 24.5114 71.0176 23.8914Z" fill="#30CCCC"/>
<path d="M59.1979 33.6712C59.5079 33.8512 59.8679 33.9412 60.2379 33.9412C60.6979 33.9412 61.1879 33.8012 61.6679 33.5212C63.1079 32.6912 64.2379 30.7312 64.2379 29.0612C64.2379 28.0612 63.8379 27.2612 63.1279 26.8512C62.4179 26.4412 61.5279 26.5012 60.6579 26.9912C59.2179 27.8212 58.0879 29.7812 58.0879 31.4512C58.0879 32.4512 58.4879 33.2512 59.1979 33.6612V33.6712ZM61.6679 28.7412C61.8879 28.6112 62.0279 28.5913 62.0979 28.5913C62.1179 28.5913 62.1279 28.5913 62.1379 28.5913C62.1579 28.6113 62.2479 28.7413 62.2479 29.0713C62.2479 30.0413 61.5179 31.3112 60.6779 31.8012C60.3979 31.9612 60.2379 31.9612 60.2079 31.9512C60.1879 31.9312 60.0979 31.8012 60.0979 31.4712C60.0979 30.5012 60.8279 29.2312 61.6679 28.7512V28.7412Z" fill="#30CCCC"/>
</svg>
