<svg width="100" height="100" viewBox="0 0 100 100" fill="none" xmlns="http://www.w3.org/2000/svg">
<g clip-path="url(#clip0_815_4004)">
<path fill-rule="evenodd" clip-rule="evenodd" d="M89.1399 56.53L61.2999 40.45C58.6599 38.93 54.7699 38.79 52.4499 40.13L52.1199 40.32V33.39C52.1254 33.3268 52.1254 33.2632 52.1199 33.2L50.6999 25.81V2.18C50.6999 0.94 49.3899 0 47.6999 0C46.0099 0 44.6499 0.94 44.6499 2.18V25.81L43.1599 33.2C43.1545 33.2632 43.1545 33.3268 43.1599 33.39V42.46C43.1599 42.7252 43.2653 42.9796 43.4528 43.1671C43.6404 43.3546 43.8947 43.46 44.1599 43.46C44.4252 43.46 44.6795 43.3546 44.8671 43.1671C45.0546 42.9796 45.1599 42.7252 45.1599 42.46V33.46L46.5799 26.07C46.5854 26.0068 46.5854 25.9432 46.5799 25.88V2.28C46.8995 2.09666 47.2615 2.00019 47.6299 2.00019C47.9984 2.00019 48.3604 2.09666 48.6799 2.28V25.81C48.4851 25.9487 48.2578 26.0348 48.0199 26.06C47.7547 26.0812 47.5088 26.2069 47.3363 26.4095C47.1637 26.612 47.0787 26.8748 47.0999 27.14C47.1212 27.4052 47.2469 27.6511 47.4494 27.8237C47.6519 27.9962 47.9147 28.0812 48.1799 28.06H48.3399C48.5785 28.0225 48.8129 27.9622 49.0399 27.88L50.0999 33.45C50.0499 33.81 49.0999 34.45 47.6299 34.45C47.4568 34.4602 47.2831 34.4602 47.1099 34.45C46.9786 34.4362 46.8459 34.4484 46.7193 34.4859C46.5927 34.5235 46.4747 34.5855 46.3721 34.6686C46.2695 34.7518 46.1842 34.8543 46.1212 34.9703C46.0583 35.0864 46.0187 35.2137 46.0049 35.345C45.9912 35.4763 46.0034 35.6091 46.0409 35.7357C46.0784 35.8623 46.1405 35.9803 46.2236 36.0829C46.3067 36.1855 46.4092 36.2707 46.5253 36.3337C46.6413 36.3967 46.7686 36.4362 46.8999 36.45C47.143 36.4655 47.3869 36.4655 47.6299 36.45C48.4836 36.4571 49.3301 36.294 50.1199 35.97V41.53L21.3599 58.08V50.42C21.3652 50.3568 21.3652 50.2932 21.3599 50.23L19.9399 42.84V19.22C19.9299 18 18.6199 17 16.8799 17C15.1399 17 13.8799 17.94 13.8799 19.19V42.84L12.4599 50.23C12.4545 50.2932 12.4545 50.3568 12.4599 50.42V60.72C12.4599 60.9852 12.5653 61.2396 12.7528 61.4271C12.9404 61.6146 13.1947 61.72 13.4599 61.72C13.7252 61.72 13.9795 61.6146 14.167 61.4271C14.3546 61.2396 14.4599 60.9852 14.4599 60.72V50.51L15.8799 43.12C15.8854 43.0568 15.8854 42.9932 15.8799 42.93V19.31C16.1778 19.1188 16.5261 19.0213 16.8799 19.03C17.2504 19.0129 17.6171 19.1107 17.9299 19.31V42.84C17.7339 42.9764 17.5072 43.0623 17.2699 43.09C17.1386 43.1005 17.0107 43.1368 16.8933 43.1967C16.776 43.2567 16.6717 43.3392 16.5863 43.4395C16.5008 43.5397 16.436 43.6559 16.3954 43.7812C16.3549 43.9066 16.3394 44.0387 16.3499 44.17C16.3604 44.3013 16.3967 44.4293 16.4567 44.5466C16.5166 44.6639 16.5991 44.7682 16.6994 44.8537C16.7997 44.9391 16.9158 45.0039 17.0412 45.0445C17.1665 45.085 17.2986 45.1005 17.4299 45.09H17.5899C17.8255 45.0538 18.0567 44.9935 18.2799 44.91L19.3499 50.48C19.2899 50.84 18.3499 51.48 16.8799 51.48C16.7068 51.4902 16.5331 51.4902 16.3599 51.48C16.2293 51.4661 16.0971 51.4782 15.9711 51.5154C15.8451 51.5526 15.7276 51.6144 15.6255 51.697C15.5233 51.7797 15.4385 51.8817 15.3757 51.9971C15.313 52.1126 15.2737 52.2393 15.2599 52.37C15.2461 52.5007 15.2581 52.6328 15.2954 52.7588C15.3326 52.8848 15.3943 53.0023 15.477 53.1045C15.5596 53.2066 15.6616 53.2915 15.7771 53.3542C15.8925 53.4169 16.0192 53.4563 16.1499 53.47C16.393 53.4855 16.6369 53.4855 16.8799 53.47C17.7298 53.4811 18.5731 53.3213 19.3599 53V59.28L10.2999 64.47C9.7618 64.7279 9.30421 65.1277 8.97646 65.6264C8.64871 66.1251 8.46321 66.7037 8.43994 67.3V79.3C8.50601 80.0341 8.76453 80.7377 9.18942 81.3399C9.61431 81.9421 10.1905 82.4216 10.8599 82.73L38.6999 98.76C40.2113 99.5852 41.908 100.012 43.6299 100C44.994 100.036 46.3443 99.7192 47.5499 99.08L89.6999 74.74C90.2381 74.4821 90.6957 74.0823 91.0234 73.5836C91.3512 73.0849 91.5367 72.5063 91.5599 71.91V60C91.5007 59.2589 91.2453 58.547 90.82 57.9372C90.3948 57.3274 89.8149 56.8417 89.1399 56.53ZM88.6999 73L46.5499 97.35C44.8499 98.35 41.7099 98.18 39.6999 97.02L11.8599 81C10.9699 80.49 10.4399 79.85 10.4399 79.3V67.3C10.4399 66.77 10.9699 66.38 11.2999 66.2L53.4499 41.86C55.1499 40.86 58.2899 41.03 60.2999 42.19L88.1399 58.26C89.0299 58.77 89.5599 59.41 89.5599 59.96C89.5599 60.51 89.0199 60.88 88.6999 61.06L46.5499 85.4C44.8499 86.4 41.7099 86.23 39.6999 85.07L12.8199 69.55C12.5892 69.4174 12.3152 69.3819 12.0583 69.4513C11.8014 69.5207 11.5825 69.6893 11.4499 69.92C11.3173 70.1507 11.2818 70.4247 11.3512 70.6816C11.4206 70.9386 11.5892 71.1574 11.8199 71.29L38.6999 86.8C40.2081 87.6346 41.9063 88.0652 43.6299 88.05C44.994 88.0862 46.3443 87.7692 47.5499 87.13L89.5499 62.87V71.87C89.5599 72.44 88.9999 72.83 88.6999 73ZM62.3401 84.47L63.3601 83.88V84.69L65.0101 83.74V82.93L66.0301 82.34V79.2L62.3401 81.33V84.47ZM68.77 80.76L67.75 81.35V78.2L71.44 76.08V79.22L70.42 79.81V80.62L68.77 81.57V80.76ZM73.1599 78.22L74.1799 77.64V78.45L75.8199 77.5V76.69L76.8399 76.1V72.95L73.1599 75.08V78.22ZM79.5801 74.51L78.5601 75.1V71.96L82.2501 69.83V72.97L81.2301 73.56V74.37L79.5801 75.32V74.51ZM83.97 71.98L84.99 71.39V72.2L86.64 71.25V70.44L87.66 69.85V66.71L83.97 68.84V71.98ZM49.4825 89.5873C49.7328 89.1562 50.0815 88.7905 50.5001 88.52C51.2901 88.06 51.9401 88.43 51.9401 89.34C51.9118 89.8388 51.7668 90.324 51.5166 90.7565C51.2665 91.189 50.9183 91.5567 50.5001 91.83C49.7101 92.29 49.0601 91.92 49.0601 91C49.0875 90.5024 49.2323 90.0183 49.4825 89.5873Z" fill="#28CDCD"/>
</g>
<defs>
<clipPath id="clip0_815_4004">
<rect width="100" height="100" fill="white"/>
</clipPath>
</defs>
</svg>
