<svg width="1024" height="1024" viewBox="0 0 1024 1024" fill="none" xmlns="http://www.w3.org/2000/svg">
<path fill-rule="evenodd" clip-rule="evenodd" d="M815 352.255C814.95 351.985 814.95 351.707 815 351.436C814.795 350.26 814.416 349.121 813.874 348.057C813.293 347.128 812.567 346.298 811.724 345.599H811.109L756.12 310.067L735.743 120.115C735.549 118.713 735.098 117.359 734.412 116.121C734.196 115.767 733.918 115.455 733.592 115.199C732.933 114.328 732.138 113.567 731.237 112.947L571.596 20.4794C570.039 19.5806 568.273 19.1075 566.476 19.1075C564.678 19.1075 562.912 19.5806 561.356 20.4794L214.015 220.876L213.093 221.695C212.533 222.119 212.019 222.6 211.557 223.129C211.091 223.607 210.71 224.161 210.431 224.767C210.097 225.281 209.823 225.831 209.612 226.406C209.563 227.122 209.563 227.84 209.612 228.556C209.553 228.964 209.553 229.377 209.612 229.785V902.86C209.622 904.647 210.101 906.4 210.999 907.945C211.897 909.49 213.184 910.773 214.732 911.667L373.861 1003.83L375.602 1004.54H376.319H378.06H378.879C380.367 1004.5 381.83 1004.15 383.18 1003.52H383.999L730.725 803.123C732.101 802.321 733.271 801.209 734.142 799.876C735.013 798.543 735.561 797.025 735.743 795.443L743.218 732.057C743.544 729.341 742.778 726.607 741.088 724.456C739.398 722.305 736.923 720.914 734.207 720.588C731.491 720.262 728.757 721.029 726.606 722.718C724.455 724.408 723.064 726.884 722.738 729.599L715.877 787.865L390.86 975.667L406.936 839.679L452.914 863.129H453.938L455.167 863.641H456.396H457.522H458.853C459.364 863.689 459.878 863.689 460.389 863.641H461.618H462.642L809.983 662.63C811.53 661.736 812.817 660.453 813.716 658.908C814.614 657.364 815.092 655.61 815.103 653.823V353.075C815.103 353.075 815 352.563 815 352.255ZM734.821 309.35L407.141 498.585L389.119 327.679L716.799 137.932L734.821 309.35ZM447.282 837.631L403.045 815.103C401.59 814.349 399.974 813.956 398.335 813.956C396.695 813.956 395.08 814.349 393.624 815.103C392.165 815.889 390.918 817.016 389.991 818.39C389.063 819.763 388.483 821.341 388.3 822.988L369.97 978.124L229.375 896.921V235.519L566.476 40.9594L705.023 121.036L378.264 309.759L255.999 239.001C253.636 237.643 250.831 237.279 248.2 237.99C245.569 238.7 243.328 240.427 241.97 242.79C240.612 245.153 240.248 247.958 240.959 250.589C241.669 253.22 243.396 255.461 245.759 256.819L368.639 327.679L388.3 516.3C388.394 517.709 388.815 519.076 389.528 520.294C390.234 521.375 391.137 522.313 392.191 523.059L446.565 558.284L447.282 837.631ZM457.522 541.593L417.791 515.891L745.471 326.86L785.304 352.563L457.522 541.593ZM794.623 647.884L467.762 836.505V560.025L794.623 370.892V647.884ZM479.848 773.939C481.408 774.823 483.174 775.282 484.968 775.27C486.761 775.282 488.527 774.823 490.088 773.939L782.337 605.184C783.885 604.29 785.172 603.007 786.07 601.462C786.968 599.917 787.446 598.164 787.457 596.377V421.376C787.464 419.571 786.995 417.797 786.095 416.233C785.196 414.668 783.9 413.369 782.337 412.467C780.781 411.568 779.015 411.095 777.217 411.095C775.42 411.095 773.654 411.568 772.097 412.467L479.848 581.222C478.285 582.124 476.988 583.423 476.089 584.988C475.19 586.552 474.72 588.327 474.728 590.131V765.03C474.72 766.834 475.19 768.609 476.089 770.173C476.988 771.738 478.285 773.037 479.848 773.939ZM495.208 595.968L766.977 439.091V590.438L495.208 747.52V595.968ZM742.4 470.795C744.198 470.795 745.963 471.268 747.52 472.167C749.132 473.073 750.469 474.398 751.389 476.003C752.308 477.608 752.776 479.431 752.742 481.281V577.025C752.721 578.822 752.228 580.581 751.311 582.127C750.394 583.673 749.087 584.95 747.52 585.831L524.698 714.241C523.167 715.108 521.439 715.566 519.68 715.572C517.886 715.584 516.121 715.125 514.56 714.241C512.997 713.338 511.701 712.039 510.802 710.475C509.903 708.91 509.433 707.136 509.44 705.332V609.383C509.433 607.579 509.903 605.804 510.802 604.24C511.701 602.675 512.997 601.376 514.56 600.474L737.28 472.167C738.837 471.268 740.603 470.795 742.4 470.795ZM529.92 687.821L565.146 667.341V594.842L529.92 615.322V687.821ZM585.626 655.361L620.851 634.881V563.2L585.626 583.681V655.361ZM641.331 623.207L676.557 602.727V530.637L641.331 551.117V623.207ZM697.037 591.156L732.365 570.676V498.586L697.037 519.066V591.156Z" fill="#28CDCD"/>
</svg>
