<svg width="100" height="100" viewBox="0 0 100 100" fill="none" xmlns="http://www.w3.org/2000/svg">
<path d="M58.0998 21.3C50.5998 25.6 44.3998 36.1 44.2998 44.6C44.2998 48.9 45.6998 52.1 48.3998 53.7C49.5998 54.4 50.8998 54.7 52.2998 54.7C54.2998 54.7 56.4998 54 58.6998 52.7C60.3998 51.7 61.9998 50.4 63.5998 48.9C63.9998 48.5 63.9998 47.9 63.5998 47.5C63.1998 47.1 62.5998 47.1 62.1998 47.5C60.7998 48.9 59.2998 50.1 57.6998 51C54.4998 52.9 51.4998 53.2 49.3998 52C47.2998 50.8 46.1998 48.2 46.1998 44.6C46.2998 36.7 51.9998 27 58.9998 23C61.2998 21.7 63.4998 21.1 65.2998 21.4C66.6998 22.8 67.3998 25.1 67.3998 27.9C67.3998 35.7 61.8998 45.3 55.0998 49.2C54.3998 49.6 53.7998 49.9 53.0998 50.2C52.5998 50.4 52.2998 51 52.4998 51.5C52.6998 51.9 52.9998 52.1 53.3998 52.1C53.4998 52.1 53.5998 52.1 53.7998 52C54.5998 51.7 55.2998 51.3 56.0998 50.9C63.3998 46.7 69.3998 36.3 69.3998 27.8C69.3998 26 69.0998 24.5 68.6998 23.1C69.8998 24.5 70.4998 26.7 70.4998 29.3C70.4998 30.8 70.2998 32.5 69.7998 34.2C69.6998 34.7 69.9998 35.3 70.4998 35.4C70.9998 35.5 71.5998 35.2 71.6998 34.7C72.1998 32.9 72.3998 31.1 72.4998 29.4C72.4998 25.1 71.0998 21.9 68.3998 20.3C65.5998 18.8 61.9998 19.1 58.0998 21.3Z" fill="#28CDCD"/>
<path d="M65.5999 25.3C65.1999 24.9 64.5999 24.9 64.1999 25.3L57.2999 32.4C56.6999 32.1 55.8999 32.2 55.1999 32.6C53.8999 33.4 52.8999 35.1 52.8999 36.6C52.8999 37.5 53.2999 38.3 53.8999 38.6C54.1999 38.8 54.4999 38.9 54.8999 38.9C55.2999 38.9 55.7999 38.8 56.1999 38.5C57.4999 37.7 58.4999 36 58.4999 34.5C58.4999 34.4 58.4999 34.2 58.4999 34.1L65.6999 26.7C65.9999 26.3 65.8999 25.7 65.5999 25.3ZM56.3999 34.5C56.3999 35.3 55.7999 36.4 55.0999 36.8C54.9999 36.9 54.8999 36.9 54.7999 36.9C54.7999 36.9 54.7999 36.8 54.7999 36.6C54.7999 35.8 55.3999 34.7 56.0999 34.3C56.1999 34.2 56.2999 34.2 56.3999 34.2C56.3999 34.3 56.3999 34.4 56.3999 34.5Z" fill="#28CDCD"/>
<path d="M39.3998 67.2001L45.2998 63.8001C45.5998 64.2001 45.8998 64.5 46.4998 64.7001C46.6998 64.8 46.8998 64.8001 47.0998 64.9001C47.4998 65.1001 47.7998 65.4001 48.1998 65.6001C49.6998 66.6001 51.5998 67.8001 53.6998 67.8001C54.5998 67.8001 55.3998 67.6001 56.2998 67.1001C58.5998 65.8001 58.4998 63.6001 58.4998 62.1001V57.3001C58.4998 57.1001 58.4998 56.8001 58.3998 56.6001C67.4998 51.2001 74.8998 38.3001 74.8998 27.7001C74.8998 22.3001 72.9998 18.3001 69.5998 16.3001L57.5998 9.30005C54.1998 7.30005 49.7998 7.70005 45.0998 10.4001C35.8998 15.7001 28.2998 28.8001 28.2998 39.4001C28.2998 44.8001 30.1998 48.8001 33.4998 50.8001L44.9998 57.3001V61.6001L37.3998 66.0001C35.2998 65.1001 33.3998 65.0001 31.7998 65.9001L28.6998 67.7001C27.1998 68.6001 26.1998 70.3001 25.9998 72.6001L21.5998 75.1001C20.1998 75.9001 19.3998 77.6001 19.3998 79.7001C19.3998 80.3 19.4998 80.9001 19.5998 81.6001C19.2998 81.8 19.0998 82.3 19.1998 82.7001C19.2998 83.1001 19.6998 83.4001 20.1998 83.4001C20.2998 83.4001 20.3998 83.4001 20.4998 83.4001C20.6998 83.3001 20.9998 83.3001 21.2998 83.3001C21.6998 83.3001 22.0998 83.3 22.5998 83.2001C22.8998 83.1001 23.2998 83.0001 23.5998 82.8001C24.5998 82.2001 24.9998 81.6001 25.1998 81.1001C25.2998 81.0001 25.2998 80.8 25.3998 80.7001C25.6998 80.2001 25.5998 79.6001 25.0998 79.3001C24.5998 79.0001 23.9998 79.1001 23.6998 79.6001C23.5998 79.8 23.4998 80.0001 23.3998 80.2001C23.1998 80.6001 22.9998 80.9 22.4998 81.2001C22.2998 81.3 22.0998 81.4001 21.9998 81.4001C21.8998 81.4001 21.6998 81.4001 21.4998 81.4001C21.3998 80.9001 21.2998 80.3001 21.2998 79.8001C21.2998 78.4001 21.6998 77.3001 22.4998 76.9001C23.2998 76.4001 24.3998 76.6001 25.5998 77.3001C25.8998 77.5001 26.1998 77.7001 26.4998 77.9001C26.3998 77.9001 26.3998 77.9001 26.2998 77.9001C25.7998 78.0001 25.3998 78.5001 25.4998 79.1001C25.5998 79.6001 25.9998 79.9001 26.4998 79.9001C26.5998 79.9001 26.5998 79.9001 26.6998 79.9001C26.8998 79.9001 27.0998 79.9001 27.2998 79.9001C27.5998 79.9001 27.9998 79.9001 28.3998 79.8001C28.6998 80.2001 28.9998 80.6001 29.1998 81.0001C29.0998 81.0001 28.9998 81.0001 28.8998 81.0001C28.2998 81.0001 27.5998 81.0001 26.6998 81.5001C26.1998 81.8001 25.9998 82.4001 26.2998 82.9001C26.4998 83.2001 26.7998 83.4001 27.1998 83.4001C27.3998 83.4001 27.4998 83.4001 27.6998 83.3001C28.1998 83.0001 28.4998 83.0001 28.8998 83.1001C29.2998 83.1001 29.6998 83.1001 30.1998 83.0001C30.6998 84.2001 30.9998 85.5001 30.9998 86.7001C30.9998 88.1001 30.5998 89.2001 29.7998 89.6001C29.1998 89.9001 28.4998 89.9001 27.6998 89.6001C27.1998 89.4001 26.5998 89.7001 26.3998 90.2001C26.1998 90.7001 26.4998 91.3001 26.9998 91.5001C27.5998 91.7001 28.1998 91.8001 28.7998 91.8001C29.4998 91.8001 30.1998 91.6001 30.7998 91.3001L35.1998 88.8001C36.1998 89.3001 37.2998 89.5001 38.1998 89.5001C39.0998 89.5001 39.9998 89.3001 40.6998 88.8001L43.7998 87.0001C45.5998 86.0001 46.5998 83.8 46.5998 81.1001C46.7998 75.9001 43.5998 70.1001 39.3998 67.2001ZM55.4998 65.3001C53.5998 66.4001 51.7998 65.4001 49.3998 63.9001C48.9998 63.6001 48.5998 63.4001 48.1998 63.1001C47.7998 62.9001 47.4998 62.8001 47.2998 62.7001C47.1998 62.7001 47.1998 62.7001 47.0998 62.6001C47.0998 62.5001 46.9998 62.2001 46.9998 61.6001V58.3001C48.0998 58.7001 49.2998 59.0001 50.5998 59.0001C52.4998 59.0001 54.5998 58.5001 56.6998 57.5001V62.1001C56.6998 63.6001 56.5998 64.6001 55.4998 65.3001ZM73.0998 27.6001C73.0998 37.6001 65.9998 49.9001 57.2998 54.9001C53.2998 57.2001 49.4998 57.6001 46.7998 56.0001C44.0998 54.4001 42.5998 51.0001 42.5998 46.3001C42.5998 36.3001 49.6998 24.0001 58.3998 19.0001C62.3998 16.7001 66.1998 16.3001 68.8998 17.9001C71.5998 19.5001 73.0998 22.9001 73.0998 27.6001ZM30.4998 39.4001C30.4998 29.4001 37.5998 17.1001 46.2998 12.1001C48.6998 10.7001 50.9998 10.0001 53.0998 10.0001C54.4998 10.0001 55.6998 10.3001 56.8998 11.0001L63.9998 15.1001C61.8998 15.3001 59.6998 16.1001 57.4998 17.4001C48.2998 22.7001 40.6998 35.8001 40.6998 46.4001C40.6998 49.0001 41.0998 51.3001 41.9998 53.2001L34.8998 49.1001C32.0998 47.5001 30.4998 44.0001 30.4998 39.4001ZM26.7998 75.5001C26.4998 75.3001 26.0998 75.2001 25.7998 75.0001L30.4998 72.3001C31.2998 71.8001 32.3998 72 33.5998 72.7001C36.4998 74.4 38.8998 78.6001 38.8998 81.9001C38.8998 83.3001 38.4998 84.4001 37.6998 84.8001L32.9998 87.6001C32.9998 87.2001 33.0998 86.9001 33.0998 86.5001C33.0998 82.4001 30.2998 77.6001 26.7998 75.5001ZM42.9998 85.1001L39.8998 86.9001C39.2998 87.3001 38.4998 87.4 37.6998 87.2001L38.7998 86.6001C40.1998 85.8 40.9998 84.1001 40.9998 82.0001C40.9998 77.9001 38.1998 73.1001 34.6998 71.0001C32.7998 69.9001 30.9998 69.8001 29.5998 70.6001L28.4998 71.2001C28.7998 70.4001 29.2998 69.8001 29.8998 69.4001L32.9998 67.6001C34.1998 66.9001 35.7998 67.1001 37.4998 68.1001C41.4998 70.4001 44.7998 76.1001 44.7998 80.8001C44.7998 83.0001 44.0998 84.5001 42.9998 85.1001Z" fill="#28CDCD"/>
<path d="M77.8996 46.0001C75.9996 44.9001 74.1996 44.8001 72.7996 45.6001L68.1996 48.3001C67.8996 48.4001 67.7996 48.7001 67.6996 48.9001C67.4996 49.4001 67.5996 50.0001 68.0996 50.2001L68.2996 50.3001C72.2996 52.6001 75.5996 58.3001 75.5996 63.0001C75.5996 65.0001 74.9996 66.5001 73.7996 67.2001L70.6996 69.0001C70.0996 69.4001 69.2996 69.5001 68.4996 69.3001C69.1996 68.9001 69.5996 68.7001 69.5996 68.7001C70.9996 67.9001 71.7996 66.2001 71.7996 64.1001C71.7996 60.0001 68.9996 55.2001 65.4996 53.1001C65.2996 53.0001 65.1996 52.9001 64.9996 52.8001C64.4996 52.6001 63.8996 52.8001 63.6996 53.2001C63.4996 53.7001 63.6996 54.3001 64.0996 54.5001C64.1996 54.6001 64.2996 54.6001 64.4996 54.7001C67.3996 56.4001 69.7996 60.6001 69.7996 63.9001C69.7996 65.3001 69.3996 66.4001 68.5996 66.8001C68.5996 66.8001 55.6996 74.2001 47.5996 78.9001C47.0996 79.2001 46.9996 79.8001 47.1996 80.3001C47.3996 80.6001 47.6996 80.8001 48.0996 80.8001C48.2996 80.8001 48.3996 80.8001 48.5996 80.7001C54.0996 77.5001 61.7996 73.1001 66.1996 70.5001C67.1996 71.0001 68.2996 71.2001 69.1996 71.2001C70.0996 71.2001 70.9996 71.0001 71.6996 70.5001L74.7996 68.7001C76.5996 67.7001 77.5996 65.5001 77.5996 62.8001C77.5996 57.8001 74.4996 52.0001 70.2996 49.0001L73.6996 47.0001C74.4996 46.6001 75.5996 46.7001 76.7996 47.4001C79.6996 49.1001 82.0996 53.3001 82.0996 56.6001C82.0996 58.0001 81.6996 59.1001 80.8996 59.5001L78.3996 61.0001C77.8996 61.3001 77.7996 61.9001 77.9996 62.4001C78.1996 62.7001 78.4996 62.9001 78.8996 62.9001C79.0996 62.9001 79.1996 62.9001 79.3996 62.8001L81.8996 61.3001C83.2996 60.5001 84.0996 58.8001 84.0996 56.7001C84.1996 52.9001 81.3996 48.1001 77.8996 46.0001Z" fill="#28CDCD"/>
<path d="M27.6996 87.4001C27.8996 87.0001 28.0996 86.7001 28.5996 86.4001C28.9996 86.2001 29.1996 86.1001 29.3996 86.1001C29.9996 86.1001 30.3996 85.6001 30.2996 85.0001C30.2996 84.4001 29.7996 84.1001 29.1996 84.1001C28.5996 84.1001 28.0996 84.3001 27.4996 84.6001C26.4996 85.2001 26.0996 85.8001 25.8996 86.3001C25.6996 86.7001 25.4996 87.0001 24.9996 87.3001C24.4996 87.6001 24.1996 87.6001 23.6996 87.6001C23.0996 87.6001 22.3996 87.6001 21.3996 88.1001C20.3996 88.7001 19.9996 89.3001 19.7996 89.8001C19.6996 89.9001 19.5996 90.1001 19.4996 90.2001C19.1996 90.6001 19.2996 91.3001 19.6996 91.6001C19.8996 91.7001 20.0996 91.8001 20.2996 91.8001C20.5996 91.8001 20.8996 91.7001 21.0996 91.4001C21.2996 91.2001 21.3996 90.9001 21.4996 90.7001C21.6996 90.3001 21.8996 90.0001 22.3996 89.7001C22.8996 89.4001 23.1996 89.4001 23.6996 89.4001C24.2996 89.4001 24.9996 89.4001 25.9996 88.9001C27.0996 88.5001 27.3996 87.9001 27.6996 87.4001Z" fill="#28CDCD"/>
<path d="M17.6997 85.0999C17.8997 85.1999 17.9997 85.1999 18.1997 85.1999C18.5997 85.1999 18.8997 84.9999 19.0997 84.6999L19.1997 84.4999C19.4997 83.9999 19.2997 83.3999 18.7997 83.0999C18.2997 82.7999 17.6997 82.9999 17.3997 83.4999L17.2997 83.6999C17.0997 84.1999 17.2997 84.7999 17.6997 85.0999Z" fill="#28CDCD"/>
<path d="M25 85.9C25.2 85.9 25.4 85.8 25.6 85.7C26 85.4 26.4 85.1 26.7 84.6C27 84.1 26.9 83.5 26.4 83.2C25.9 82.9 25.3 83 25 83.5C24.9 83.6 24.8 83.8 24.5 84C24 84.3 23.9 84.9 24.2 85.4C24.3 85.8 24.6 85.9 25 85.9Z" fill="#28CDCD"/>
<path d="M20.7998 87.7001C20.9998 87.3001 21.1998 87.0001 21.6998 86.7001C22.0998 86.4001 22.3998 86.4001 22.6998 86.4001C23.2998 86.4001 23.6998 85.9001 23.6998 85.4001C23.6998 84.9001 23.2998 84.4001 22.6998 84.4001C22.1998 84.4001 21.4998 84.5001 20.6998 84.9001C19.6998 85.5001 19.2998 86.1001 19.0998 86.6001C18.8998 87.0001 18.6998 87.3001 18.1998 87.6001C17.5998 88.0001 17.2998 88.0001 16.7998 88.0001C16.1998 87.9001 15.7998 88.4001 15.7998 89.0001C15.7998 89.6001 16.1998 90.0001 16.7998 90.0001C16.8998 90.0001 16.9998 90.0001 17.0998 90.0001C17.5998 90.0001 18.2998 89.9001 19.0998 89.5001C20.0998 88.9001 20.4998 88.2001 20.7998 87.7001Z" fill="#28CDCD"/>
</svg>
