<svg width="100" height="100" viewBox="0 0 100 100" fill="none" xmlns="http://www.w3.org/2000/svg">
<path fill-rule="evenodd" clip-rule="evenodd" d="M93.2048 38.0967C93.4707 38.5173 93.6335 38.9946 93.68 39.4899C94.5224 49.7673 94.4922 60.0976 93.59 70.3699C93.5758 70.5307 93.5229 70.6855 93.4358 70.8213C93.3487 70.9572 93.2301 71.0699 93.09 71.1499L88.96 73.5299C88.8356 73.6548 88.6803 73.7445 88.51 73.7899L83.19 76.8699C83.038 76.9577 82.8656 77.0039 82.69 77.0039C82.5145 77.0039 82.342 76.9577 82.19 76.8699C82.0374 76.7818 81.9108 76.655 81.823 76.5022C81.7352 76.3494 81.6893 76.1762 81.69 75.9999V74.7699C81.6892 74.6293 81.6512 74.4913 81.58 74.3699C81.5307 74.2779 81.4624 74.1973 81.3796 74.1336C81.2969 74.0698 81.2016 74.0242 81.1 73.9999C80.9963 73.9744 80.8884 73.971 80.7833 73.9899C80.6782 74.0089 80.5783 74.0498 80.49 74.1099L80.2 74.2799C79.2371 74.8258 78.4417 75.6246 77.9 76.5899C75.0348 82.1657 70.7247 86.8695 65.42 90.2099C63.0434 91.6729 60.3289 92.4962 57.54 92.5999C55.9031 92.6171 54.29 92.2069 52.86 91.41L25.36 75.8299C25.2368 75.7613 25.1308 75.6656 25.05 75.5499C24.1652 75 23.3834 74.2994 22.74 73.4799L23.19 78.9199C23.19 79.1299 23.24 79.2299 23.34 79.2999C23.4205 79.2991 23.4995 79.2785 23.57 79.2399L26.14 78.0199C26.3754 77.9275 26.637 77.9277 26.8723 78.0204C27.1075 78.1131 27.2989 78.2915 27.4079 78.5196C27.5169 78.7478 27.5354 79.0088 27.4598 79.25C27.3841 79.4913 27.2198 79.6949 27 79.8199L24.48 80.9999C24.1551 81.1768 23.7899 81.2664 23.42 81.2599C23.1643 81.2523 22.9113 81.205 22.67 81.1199C22.5305 81.1047 22.3949 81.064 22.27 80.9999L19.21 79.2799V85.6499C19.2736 86.1555 19.4648 86.6365 19.7658 87.0477C20.0667 87.4588 20.4674 87.7865 20.93 87.9999C22.5167 88.7992 24.2685 89.2155 26.045 89.2155C27.8216 89.2155 29.5734 88.7992 31.16 87.9999C31.6628 87.8039 32.1012 87.4718 32.4261 87.0409C32.751 86.61 32.9498 86.0973 33 85.5599V82.5599C33 82.2947 33.1054 82.0404 33.2929 81.8528C33.4805 81.6653 33.7348 81.5599 34 81.5599C34.2653 81.5599 34.5196 81.6653 34.7071 81.8528C34.8947 82.0404 35 82.2947 35 82.5599V85.6999C34.9282 86.5964 34.61 87.4557 34.0806 88.1827C33.5512 88.9097 32.8312 89.4763 32 89.8199C30.1564 90.7558 28.1176 91.2424 26.05 91.2399C23.9661 91.2356 21.9119 90.746 20.05 89.8099C19.2728 89.4434 18.6032 88.8828 18.1058 88.1822C17.6083 87.4815 17.2998 86.6645 17.21 85.8099C17.2051 85.7734 17.2051 85.7364 17.21 85.6999V85.2099C16.8231 85.7702 16.5887 86.4216 16.53 87.0999V91.9999C16.6279 92.7263 16.9125 93.4149 17.3559 93.9986C17.7993 94.5822 18.3865 95.0409 19.06 95.3299C21.2309 96.4252 23.6285 96.9958 26.06 96.9958C28.4916 96.9958 30.8892 96.4252 33.06 95.3299C33.7585 95.0294 34.3626 94.5453 34.808 93.9291C35.2535 93.3128 35.5237 92.5874 35.59 91.8299V91.0999C35.0966 91.5619 34.5286 91.9372 33.91 92.2099C31.4816 93.4451 28.7945 94.086 26.07 94.0799C23.401 94.0833 20.7668 93.4743 18.37 92.2999C18.1048 92.2893 17.8547 92.1738 17.6746 91.9788C17.4946 91.7837 17.3994 91.5252 17.41 91.2599C17.4206 90.9947 17.5362 90.7446 17.7312 90.5646C17.9262 90.3845 18.1848 90.2893 18.45 90.2999H18.61C18.7666 90.3009 18.9207 90.3386 19.06 90.41C21.2295 91.5099 23.6277 92.083 26.06 92.083C28.4924 92.083 30.8906 91.5099 33.06 90.41C33.7585 90.1094 34.3626 89.6253 34.808 89.0091C35.2535 88.3928 35.5237 87.6674 35.59 86.91C35.5849 86.703 35.5513 86.4977 35.49 86.2999C35.4158 86.0453 35.4457 85.7717 35.5732 85.5391C35.7007 85.3066 35.9154 85.1342 36.17 85.0599C36.4246 84.9857 36.6983 85.0156 36.9309 85.1431C37.046 85.2063 37.1476 85.2915 37.2298 85.3939C37.312 85.4963 37.3733 85.6139 37.41 85.7399C37.53 86.1492 37.5906 86.5735 37.59 86.9999V91.9999C37.4913 93.1059 37.0978 94.1652 36.4506 95.0675C35.8034 95.9697 34.926 96.682 33.91 97.1299C31.4816 98.3651 28.7945 99.006 26.07 98.9999C23.3206 98.9975 20.6106 98.3465 18.16 97.0999C17.1588 96.6458 16.2955 95.9347 15.658 95.039C15.0204 94.1432 14.6313 93.0947 14.53 91.9999V86.9999C14.5948 86.0928 14.8709 85.2134 15.3362 84.432C15.8016 83.6507 16.4433 82.989 17.21 82.4999V78.0999L8.27003 72.9999C7.94062 72.7799 7.67001 72.4826 7.48178 72.134C7.29354 71.7854 7.19338 71.3961 7.19003 70.9999L6.54003 62.6399C6.5352 62.5734 6.5352 62.5065 6.54003 62.4399C6.1018 60.777 5.82386 59.0759 5.71003 57.3599C5.61941 55.0362 5.86871 52.7116 6.45003 50.4599V50.3299L7.21003 40.1199C7.27163 39.3385 7.4966 38.5786 7.87041 37.8896C8.24421 37.2006 8.75851 36.5977 9.38003 36.1199L16.35 31.4299L16.48 31.3799C16.9485 29.9637 17.221 28.49 17.29 26.9999V17.3499C16.5264 16.8331 15.8854 16.1552 15.412 15.3639C14.9386 14.5726 14.6444 13.6872 14.55 12.7699V8.04995V7.98995V7.92995C14.6794 6.85375 15.083 5.82881 15.7221 4.95332C16.3612 4.07782 17.2144 3.38112 18.2 2.92995C20.6441 1.69197 23.3453 1.04688 26.085 1.04688C28.8247 1.04688 31.526 1.69197 33.97 2.92995C34.9594 3.37208 35.8148 4.06697 36.4503 4.9447C37.0857 5.82243 37.4789 6.85204 37.59 7.92995V7.99995V12.5799C37.4967 13.6962 37.1075 14.7674 36.4624 15.6832C35.8173 16.599 34.9397 17.3262 33.92 17.7899C31.4845 19.0133 28.7955 19.647 26.07 19.6399C23.7356 19.6421 21.4241 19.1798 19.27 18.2799V26.9999C19.1172 30.8004 17.7934 34.4608 15.48 37.4799C15.8288 38.0856 16.3215 38.596 16.9145 38.9658C17.5076 39.3356 18.1827 39.5534 18.88 39.5999H19C20.4688 39.8616 21.9677 39.9088 23.45 39.7399C23.4965 39.7346 23.5435 39.7346 23.59 39.7399L33.39 33.1299L33.52 33.0599L41.02 29.4999L40.96 29.2299L40.9467 29.1683L40.9467 29.1683L40.9466 29.1682C40.901 28.9573 40.8538 28.7395 40.79 28.5299C40.6645 27.8709 40.379 27.2527 39.9589 26.7296C39.5387 26.2066 38.9965 25.7946 38.38 25.5299L36.73 25.0499C36.68 25.0374 36.6317 25.0128 36.5838 24.9883C36.5166 24.954 36.45 24.9199 36.38 24.9199C36.6759 25.5078 37.0099 26.0757 37.38 26.6199C37.5248 26.8404 37.5765 27.1091 37.5241 27.3676C37.4717 27.626 37.3192 27.8533 37.1 27.9999C36.9541 28.1068 36.7805 28.1693 36.6 28.1799C36.4353 28.1791 36.2734 28.1376 36.1286 28.0591C35.9838 27.9806 35.8606 27.8675 35.77 27.7299C34.2293 25.3956 33.2914 22.7156 33.04 19.9299C33.0282 19.7986 33.0424 19.6663 33.0817 19.5404C33.121 19.4146 33.1848 19.2977 33.2693 19.1965C33.3538 19.0953 33.4574 19.0117 33.5742 18.9505C33.691 18.8893 33.8187 18.8518 33.95 18.8399C34.0814 18.8281 34.2137 18.8423 34.3396 18.8816C34.4654 18.921 34.5823 18.9847 34.6835 19.0692C34.7847 19.1537 34.8683 19.2573 34.9295 19.3741C34.9906 19.4909 35.0282 19.6186 35.04 19.7499C35.08 20.2299 35.15 20.6899 35.23 21.1599L36.39 20.6099C36.7235 20.442 37.0917 20.3545 37.465 20.3545C37.8384 20.3545 38.2066 20.442 38.54 20.6099L52.54 28.6099C52.7043 28.7265 52.8582 28.857 53 28.9999L53.09 29.0699C53.1987 29.1941 53.2958 29.328 53.38 29.4699C53.4094 29.5205 53.4328 29.5741 53.45 29.6299C53.4986 29.7263 53.5387 29.8267 53.57 29.9299C53.6075 30.0296 53.631 30.1339 53.64 30.2399C53.6447 30.2698 53.6447 30.3001 53.64 30.3299V30.3799C53.6448 30.4599 53.6448 30.54 53.64 30.6199L53.73 31.9099C54.0512 31.3874 54.2145 30.7831 54.2 30.1699V29.4999C54.1979 28.9506 54.3399 28.4103 54.6119 27.933C54.8839 27.4557 55.2763 27.0581 55.75 26.7799L63.2 22.4699C63.779 22.1403 64.4338 21.967 65.1 21.967C65.7663 21.967 66.4211 22.1403 67 22.4699L92.15 37.0699C92.5776 37.3244 92.939 37.6762 93.2048 38.0967ZM41.4977 25.3509C42.1324 26.1163 42.5693 27.026 42.77 27.9999C42.8618 28.2007 42.9386 28.4079 43 28.6199L46 27.1799L37.53 22.3299C37.4875 22.3185 37.4426 22.3185 37.4 22.3299C37.3408 22.3359 37.2831 22.3529 37.23 22.3799L36.47 22.7399C36.7392 22.8936 37.0242 23.0177 37.32 23.1099L39.03 23.6099H39.13C40.0499 23.9876 40.863 24.5854 41.4977 25.3509ZM17.3542 5.96787C16.9116 6.56439 16.628 7.26366 16.53 7.99995L16.58 12.6199C16.6537 13.2454 16.8662 13.8464 17.2018 14.3793C17.5374 14.9122 17.9878 15.3633 18.52 15.6999C18.7287 15.7363 18.919 15.842 19.06 15.9999C21.2336 17.0861 23.6302 17.6515 26.06 17.6515C28.4899 17.6515 30.8864 17.0861 33.06 15.9999C33.7605 15.6883 34.3646 15.1946 34.8096 14.5702C35.2545 13.9459 35.524 13.2138 35.59 12.4499V12.0199C35.0966 12.4819 34.5286 12.8572 33.91 13.1299C31.4816 14.3651 28.7945 15.006 26.07 14.9999C23.3621 15.0284 20.6847 14.4258 18.25 13.2399H18.13C17.9917 13.2176 17.8597 13.1664 17.7424 13.0897C17.6252 13.0131 17.5254 12.9126 17.4494 12.7949C17.3735 12.6772 17.3231 12.5448 17.3016 12.4064C17.2801 12.268 17.2879 12.1266 17.3245 11.9914C17.3611 11.8561 17.4257 11.7301 17.5142 11.6215C17.6026 11.5128 17.7129 11.424 17.8379 11.3607C17.9628 11.2974 18.0997 11.2611 18.2396 11.254C18.3795 11.247 18.5194 11.2695 18.65 11.3199H18.87L19.06 11.3999C21.2295 12.4999 23.6277 13.073 26.06 13.073C28.4924 13.073 30.8906 12.4999 33.06 11.3999C33.7411 11.1036 34.3323 10.6335 34.7746 10.0368C35.2168 9.44014 35.4946 8.73774 35.58 7.99995C35.5079 7.26352 35.2411 6.55956 34.807 5.9603C34.373 5.36104 33.7873 4.88808 33.11 4.58995C30.9329 3.4857 28.5262 2.91023 26.085 2.91023C23.6439 2.91023 21.2371 3.4857 19.06 4.58995C18.3838 4.89718 17.7968 5.37135 17.3542 5.96787ZM9.61933 38.8491C9.38864 39.276 9.24926 39.7463 9.21003 40.2299L8.96003 44.4599C9.26003 43.9099 9.60003 43.3699 9.96003 42.8499C10.0406 42.7346 10.1446 42.6376 10.2652 42.5653C10.3858 42.4929 10.5204 42.4468 10.66 42.4299C11.4308 42.3385 12.2122 42.4458 12.9299 42.7416C13.6475 43.0374 14.2775 43.5119 14.76 44.1199C15.8789 45.4339 16.8357 46.8776 17.61 48.4199L17.78 46.1299C17.86 45.3494 18.1045 44.5946 18.4975 43.9154C18.8905 43.2363 19.4231 42.6482 20.06 42.1899L20.65 41.7899C20.0094 41.7567 19.3715 41.6833 18.74 41.5699C17.7144 41.5058 16.7206 41.188 15.848 40.6452C14.9753 40.1024 14.251 39.3516 13.74 38.4599L13.692 38.3778C13.5724 38.1733 13.4684 37.9955 13.38 37.8099C13.2917 37.6363 13.256 37.4407 13.2773 37.247C13.2986 37.0534 13.376 36.8702 13.5 36.7199C13.9968 36.1212 14.448 35.4861 14.85 34.8199L10.55 37.7499C10.167 38.0478 9.85001 38.4221 9.61933 38.8491ZM11.27 44.3999C8.78331 48.2039 7.54578 52.6891 7.73003 57.2299V57.2599C8.02619 62.039 9.67725 66.6349 12.49 70.5099C12.7907 70.799 13.1839 70.9725 13.6 70.9999C14.8096 71.0787 16.0242 70.9912 17.21 70.7399L16.53 62.4099V62.2599L17.23 52.8299C17.1841 52.7565 17.144 52.6796 17.11 52.5999C16.3115 49.9521 14.9696 47.4999 13.17 45.3999C12.9424 45.1081 12.6552 44.8679 12.3276 44.6955C12 44.5231 11.6395 44.4224 11.27 44.3999ZM9.00003 68.6699L9.19003 70.9999C9.18916 71.0665 9.20307 71.1324 9.23073 71.1929C9.2584 71.2534 9.29914 71.3071 9.35003 71.3499L17.65 76.0899L17.38 72.7199C16.4605 72.8982 15.5266 72.9919 14.59 72.9999H13.46C12.5166 72.9141 11.6393 72.479 11 71.7799L10.91 71.6699C10.2074 70.7135 9.56932 69.7113 9.00003 68.6699ZM19.9 77.41L21.11 78.0999L20.14 66.4199V66.1099L20.05 64.9399L19.85 64.8199C19.622 64.6847 19.457 64.4643 19.3914 64.2074C19.3257 63.9505 19.3648 63.678 19.5 63.4499C19.6317 63.2298 19.8429 63.0687 20.09 62.9999V62.9199C20.0985 62.7303 20.1175 62.5389 20.1368 62.3457C20.1633 62.0804 20.19 61.8119 20.19 61.5399L21.19 48.1299C21.2703 47.3625 21.5069 46.6197 21.8853 45.9472C22.2637 45.2748 22.7758 44.6869 23.39 44.2199L33.13 37.6599C33.9318 37.0048 34.7662 36.3907 35.63 35.8199C35.5571 35.6283 35.5448 35.4189 35.5949 35.2201C35.645 35.0213 35.7549 34.8426 35.9099 34.7084C36.0649 34.5741 36.2574 34.4908 36.4613 34.4696C36.6653 34.4484 36.8708 34.4904 37.05 34.5899L37.36 34.7699C38.4428 34.1704 39.5815 33.678 40.76 33.2999L48.2 29.7799C48.3194 29.712 48.4515 29.6695 48.5881 29.6548C48.7246 29.6402 48.8627 29.6539 48.9938 29.695C49.1248 29.7361 49.246 29.8038 49.3497 29.8937C49.4535 29.9837 49.5376 30.0941 49.5968 30.2181C49.656 30.342 49.689 30.4768 49.6939 30.614C49.6987 30.7513 49.6752 30.8881 49.6248 31.0158C49.5745 31.1436 49.4983 31.2596 49.4012 31.3567C49.304 31.4537 49.1879 31.5297 49.06 31.5799L46.52 32.7799C47.1357 32.8887 47.7388 33.0596 48.32 33.2899C48.8709 33.5295 49.4635 33.658 50.0641 33.6683C50.6646 33.6786 51.2613 33.5704 51.82 33.3499L51.63 30.7299C51.647 30.661 51.647 30.5889 51.63 30.5199C51.6016 30.4703 51.5643 30.4262 51.52 30.3899L48.36 28.5899H48.23C48.1783 28.5601 48.1197 28.5444 48.06 28.5444C48.0004 28.5444 47.9417 28.5601 47.89 28.5899L34.53 34.9299L21.19 43.9299C20.7937 44.2203 20.462 44.5897 20.2159 45.0149C19.9697 45.4401 19.8145 45.9117 19.76 46.3999L18.57 62.3999L19.77 77.0399C19.7616 77.1075 19.769 77.176 19.7915 77.2402C19.8141 77.3044 19.8512 77.3625 19.9 77.41ZM23 51.1799C24.0744 48.7079 25.4157 46.3606 27 44.1799L24.58 45.8499C24.1973 46.1461 23.8785 46.5168 23.643 46.9396C23.4076 47.3624 23.2603 47.8286 23.21 48.3099L23 51.1799ZM82.5876 72.5783C82.8805 72.8016 83.126 73.0809 83.31 73.3999C83.471 73.6752 83.5826 73.9763 83.64 74.2899L87.3 72.1699C88.2652 62.1943 88.2886 52.15 87.37 42.1699C87.3464 41.9992 87.2847 41.836 87.1895 41.6923C87.0943 41.5487 86.968 41.4282 86.82 41.3399L61.92 26.8399C61.6059 26.6619 61.2554 26.5577 60.895 26.5352C60.5347 26.5127 60.1739 26.5724 59.84 26.7099L56.7 28.5299C56.526 28.6316 56.3823 28.7779 56.2838 28.9537C56.1854 29.1295 56.1357 29.3285 56.14 29.5299V30.1799C56.1642 31.1272 55.9315 32.0633 55.4667 32.889C55.0019 33.7147 54.3224 34.3992 53.5 34.8699C53.3462 34.9527 53.1747 34.9973 53 34.9999C52.1598 35.4074 51.2417 35.629 50.3081 35.6497C49.3746 35.6704 48.4475 35.4897 47.59 35.1199C45.6489 34.4337 43.5312 34.4337 41.59 35.1199L37.89 36.8699L34.3 39.2799C33.9 39.5699 33.5 39.9199 33.1 40.2799C28.014 44.9576 24.4412 51.048 22.84 57.7699C22.5654 58.9977 22.3584 60.2395 22.22 61.4899L22.07 63.4399V65.2499L22.17 66.4899C22.59 70.0099 24 72.6899 26.34 74.0099C26.443 74.0699 26.5345 74.1478 26.61 74.2399L48.85 86.8499C48.4289 85.887 48.1137 84.8811 47.91 83.8499L25.91 71.0299C25.7743 70.9517 25.6589 70.8426 25.573 70.7116C25.4872 70.5805 25.4333 70.4311 25.4158 70.2754C25.3983 70.1197 25.4176 69.9621 25.4722 69.8152C25.5268 69.6684 25.6151 69.5364 25.73 69.4299L27.15 68.1099C27.243 68.0162 27.3536 67.9418 27.4755 67.8911C27.5973 67.8403 27.728 67.8141 27.86 67.8141C27.992 67.8141 28.1228 67.8403 28.2446 67.8911C28.3665 67.9418 28.4771 68.0162 28.57 68.1099C28.7498 68.3038 28.8455 68.561 28.8361 68.8253C28.8267 69.0895 28.7131 69.3393 28.52 69.5199L28.08 69.9299L47.55 81.2999C47.5 80.384 47.5 79.4659 47.55 78.5499L25.91 65.91C25.7757 65.8316 25.6614 65.7231 25.5763 65.5929C25.4913 65.4627 25.4378 65.3145 25.42 65.16C25.4029 65.0055 25.422 64.8491 25.4758 64.7033C25.5296 64.5575 25.6166 64.4262 25.73 64.3199L27.15 62.9999C27.2459 62.91 27.3585 62.8398 27.4815 62.7934C27.6045 62.747 27.7355 62.7252 27.8669 62.7294C27.9982 62.7336 28.1275 62.7636 28.2473 62.8177C28.3671 62.8719 28.4751 62.9491 28.565 63.0449C28.655 63.1408 28.7252 63.2535 28.7716 63.3764C28.818 63.4994 28.8398 63.6304 28.8356 63.7618C28.8314 63.8932 28.8014 64.0224 28.7473 64.1422C28.6931 64.262 28.6159 64.37 28.52 64.4599L28.08 64.8699L47.75 76.3499C47.86 75.5099 48.02 74.6299 48.21 73.7399L26.4 61.0399C26.2657 60.9616 26.1514 60.8531 26.0663 60.7229C25.9813 60.5927 25.9278 60.4445 25.91 60.2899C25.8941 60.1347 25.9148 59.9778 25.9703 59.832C26.0259 59.6861 26.1148 59.5553 26.23 59.4499L27.65 58.1299C27.8468 57.9704 28.0968 57.8914 28.3496 57.9091C28.6023 57.9268 28.8389 58.0397 29.0116 58.2251C29.1843 58.4104 29.2802 58.6545 29.2799 58.9078C29.2796 59.1612 29.1831 59.405 29.01 59.5899L28.57 59.9999L49.36 72.1099C49.4131 72.1418 49.4605 72.1824 49.5 72.2299H49.58C49.8369 72.2917 50.0588 72.4525 50.1975 72.6774C50.3361 72.9022 50.3802 73.1727 50.32 73.4299C48.46 81.2799 49.77 87.3499 53.84 89.6699C56.6 91.2299 60.39 90.8099 64.39 88.4899C69.4022 85.3482 73.4777 80.9169 76.19 75.66C76.8949 74.3796 77.9311 73.3123 79.19 72.5699L79.48 72.3999C79.7965 72.2116 80.1472 72.088 80.5119 72.0363C80.8765 71.9847 81.2478 72.006 81.6041 72.099C81.9605 72.1921 82.2948 72.355 82.5876 72.5783ZM89.42 70.9199L91.64 69.6299C92.4917 59.6588 92.5084 49.6339 91.69 39.6599C91.6715 39.4837 91.6121 39.3142 91.5167 39.1649C91.4212 39.0157 91.2922 38.8907 91.14 38.7999L65.99 24.1999C65.7154 24.0448 65.4054 23.9633 65.09 23.9633C64.7747 23.9633 64.4646 24.0448 64.19 24.1999L62.8 24.9999L63 25.0899L87.83 39.5799C88.2485 39.8253 88.6044 40.1643 88.8698 40.5703C89.1353 40.9763 89.3031 41.4382 89.36 41.9199C90.2474 51.5654 90.2675 61.2709 89.42 70.9199ZM21.84 11.18C23.162 11.8424 24.6212 12.1849 26.1 12.18C26.7378 12.1866 27.3747 12.1262 28 12C28.1313 11.9738 28.2561 11.9219 28.3674 11.8474C28.4787 11.7728 28.5742 11.6771 28.6485 11.5657C28.7228 11.4543 28.7744 11.3293 28.8004 11.1979C28.8264 11.0665 28.8262 10.9313 28.8 10.8C28.7737 10.6687 28.7218 10.5438 28.6473 10.4326C28.5728 10.3213 28.4771 10.2258 28.3656 10.1515C28.2542 10.0772 28.1292 10.0256 27.9979 9.9996C27.8665 9.97361 27.7313 9.97375 27.6 10C25.941 10.3332 24.2182 10.0971 22.71 9.33001L22.58 9.27001C22.412 9.21569 22.2565 9.12847 22.1226 9.01344C21.9887 8.89841 21.879 8.75787 21.8 8.60001C21.7222 8.44644 21.6759 8.27884 21.6639 8.10709C21.6518 7.93535 21.6743 7.76294 21.73 7.60001C21.7947 7.403 21.9042 7.22369 22.05 7.07619C22.1957 6.92869 22.3737 6.81704 22.57 6.75001C22.619 6.73615 22.6661 6.71598 22.71 6.69001C23.7688 6.1548 24.9386 5.87595 26.125 5.87595C27.3114 5.87595 28.4812 6.1548 29.54 6.69001C29.8257 6.80809 30.0718 7.00548 30.249 7.25887C30.4261 7.51226 30.5271 7.81108 30.54 8.12001C30.5532 8.38523 30.6713 8.63432 30.8682 8.81248C31.0651 8.99064 31.3247 9.08327 31.59 9.07001C31.8552 9.05675 32.1043 8.93868 32.2824 8.74177C32.4606 8.54485 32.5532 8.28523 32.54 8.02001C32.5148 7.34963 32.3018 6.6998 31.9252 6.14463C31.5486 5.58945 31.0235 5.15126 30.41 4.88001C29.0872 4.219 27.6287 3.87488 26.15 3.87488C24.6712 3.87488 23.2127 4.219 21.89 4.88001C21.2404 5.10937 20.678 5.53452 20.2802 6.09689C19.8823 6.65926 19.6687 7.33116 19.6687 8.02001C19.6687 8.70887 19.8823 9.38077 20.2802 9.94314C20.678 10.5055 21.2404 10.9307 21.89 11.16L21.84 11.18ZM54.9101 64.66C60.3001 55.31 68.9201 50.53 74.5201 53.76C77.2801 55.36 78.8001 58.63 78.8001 63C78.6494 67.6592 77.303 72.2014 74.8901 76.19C70.6401 83.55 64.3801 88.09 59.1801 88.09C57.8145 88.1075 56.4687 87.7624 55.2801 87.09C49.6801 83.85 49.5201 74.01 54.9101 64.66ZM56.2801 85.36C60.7601 87.94 68.4901 83.29 73.1601 75.2C75.3813 71.5004 76.6173 67.2932 76.7501 62.98C76.7501 59.37 75.5901 56.72 73.4701 55.49C72.6054 55.0092 71.6294 54.7643 70.6401 54.78C66.2401 54.78 60.4301 59.08 56.6401 65.66C51.9701 73.75 51.8001 82.78 56.2801 85.36ZM66.4945 63.4553C67.2479 63.3972 68.0031 63.5439 68.68 63.88C69.3044 64.2929 69.8058 64.8666 70.1314 65.5407C70.457 66.2148 70.5947 66.9642 70.5299 67.71C70.4461 69.495 69.9368 71.234 69.0444 72.7822C68.152 74.3304 66.9025 75.6428 65.4 76.61C64.624 77.0936 63.7338 77.3627 62.82 77.39C62.2232 77.3951 61.6361 77.2396 61.1199 76.94C58.7599 75.6 58.6399 71.68 60.7599 68C61.6321 66.4483 62.8847 65.1441 64.4 64.21C65.0173 63.7742 65.741 63.5134 66.4945 63.4553ZM65.4 65.91C64.1878 66.6817 63.1876 67.7438 62.49 69C61.27 71.15 61 73.19 61.4599 74.34L66.5899 65.45C66.1692 65.5319 65.7663 65.6876 65.4 65.91ZM64.3899 74.88C65.6076 74.112 66.6119 73.0492 67.3099 71.79V71.82C68.0591 70.5759 68.4789 69.1614 68.5299 67.71C68.5383 67.2782 68.4706 66.8483 68.33 66.44L63.1899 75.34C63.6151 75.2627 64.0221 75.1067 64.3899 74.88ZM83.7299 46.1399V45.1399C83.7246 44.7067 83.6077 44.2822 83.3905 43.9073C83.1733 43.5325 82.8631 43.22 82.4899 42.9999L58.4899 29.1199C58.3758 29.0538 58.2497 29.0109 58.1189 28.9938C57.9882 28.9766 57.8553 28.9854 57.7279 29.0198C57.6006 29.0542 57.4813 29.1135 57.377 29.1941C57.2726 29.2748 57.1853 29.3754 57.1199 29.4899C56.9896 29.7196 56.9553 29.9914 57.0246 30.2462C57.0939 30.501 57.2612 30.718 57.4899 30.8499L81.4899 44.7299C81.5629 44.7732 81.6233 44.8346 81.6654 44.9083C81.7074 44.9819 81.7297 45.0652 81.7299 45.1499V46.1499C81.7299 46.7179 81.5801 47.2758 81.2957 47.7674C81.0113 48.2589 80.6023 48.6669 80.1099 48.9499C79.229 49.4338 78.2062 49.5931 77.2199 49.3999C77.1505 49.3175 77.0656 49.2495 76.9699 49.1999L53.6099 36.2399C53.4944 36.1766 53.3676 36.1367 53.2366 36.1225C53.1057 36.1083 52.9732 36.1202 52.8468 36.1573C52.7204 36.1945 52.6026 36.2563 52.5002 36.3391C52.3978 36.4219 52.3127 36.5241 52.2499 36.6399C52.1251 36.8722 52.0971 37.1444 52.1721 37.3973C52.247 37.6501 52.4187 37.8631 52.6499 37.9899L71.2199 48.2899C67.5399 48.5999 63.4299 50.6699 59.3999 54.3599C59.3015 54.4482 59.2215 54.5551 59.1646 54.6745C59.1078 54.7938 59.0751 54.9233 59.0686 55.0553C59.0621 55.1874 59.0819 55.3194 59.1267 55.4438C59.1716 55.5682 59.2406 55.6824 59.3299 55.7799C59.4243 55.8817 59.5388 55.9627 59.6662 56.0178C59.7937 56.0729 59.9311 56.1009 60.0699 56.0999C60.3178 56.0993 60.5565 56.0066 60.7399 55.8399C66.0899 50.9499 71.4099 49.1499 75.3199 50.8399C76.2261 51.2719 77.2221 51.4818 78.2255 51.4522C79.2289 51.4226 80.2108 51.1545 81.0899 50.6699C81.8864 50.2102 82.5489 49.5503 83.012 48.7558C83.475 47.9612 83.7225 47.0595 83.7299 46.1399ZM82.7316 50.9386C82.85 50.8811 82.9786 50.8476 83.11 50.84C83.3703 50.8317 83.6235 50.9253 83.8159 51.1008C84.0082 51.2764 84.1245 51.52 84.14 51.78C84.4784 58.0069 84.4317 64.2488 84 70.47C83.9823 70.7229 83.8691 70.9596 83.6835 71.1323C83.4978 71.3049 83.2535 71.4006 83 71.4C82.8626 71.4003 82.7266 71.3723 82.6004 71.3178C82.4743 71.2632 82.3608 71.1832 82.267 71.0828C82.1731 70.9824 82.101 70.8637 82.0551 70.7342C82.0091 70.6047 81.9904 70.4671 82 70.33C82.4416 64.1962 82.4984 58.0408 82.17 51.9C82.1619 51.7686 82.1798 51.6369 82.2227 51.5125C82.2656 51.388 82.3326 51.2733 82.4199 51.1748C82.5072 51.0763 82.6132 50.9961 82.7316 50.9386Z" fill="#28CDCD"/>
</svg>
