<svg width="1024" height="1024" viewBox="0 0 1024 1024" fill="none" xmlns="http://www.w3.org/2000/svg">
<path fill-rule="evenodd" clip-rule="evenodd" d="M837.12 431.309C837.07 431.614 837.07 431.925 837.12 432.23C837.12 432.538 837.222 433.05 837.222 433.05V764.826C837.229 766.63 836.76 768.404 835.861 769.969C834.962 771.533 833.665 772.832 832.102 773.734L567.296 926.208C565.227 927.313 562.841 927.675 560.538 927.232H559.104L557.158 926.413L508.314 898.15V922.726L513.741 919.552C514.903 918.871 516.189 918.426 517.524 918.242C518.859 918.059 520.217 918.141 521.52 918.483C522.824 918.825 524.047 919.422 525.119 920.238C526.191 921.054 527.092 922.074 527.77 923.238C528.451 924.401 528.896 925.687 529.079 927.022C529.263 928.357 529.181 929.715 528.838 931.018C528.496 932.321 527.9 933.544 527.084 934.616C526.268 935.689 525.248 936.59 524.083 937.267L503.603 949.35L502.067 949.965C500.925 950.417 499.711 950.659 498.483 950.681C497.599 950.782 496.705 950.782 495.821 950.681C495.106 950.497 494.417 950.222 493.773 949.862L373.965 880.64V946.278L414.925 922.317C416.093 921.64 417.385 921.201 418.724 921.025C420.063 920.849 421.424 920.939 422.728 921.291C424.032 921.644 425.253 922.25 426.322 923.076C427.39 923.903 428.285 924.932 428.954 926.106C430.289 928.457 430.639 931.241 429.93 933.85C429.22 936.459 427.507 938.681 425.165 940.032L368.538 972.902C368.044 973.151 367.53 973.356 367.002 973.517C365.854 973.951 364.643 974.193 363.418 974.234H362.496H360.858H360.038L358.4 973.517L192.307 877.261C190.744 876.359 189.448 875.059 188.549 873.495C187.65 871.931 187.18 870.156 187.187 868.352V680.141C187.04 679.294 187.04 678.428 187.187 677.581C187.491 676.484 187.976 675.446 188.621 674.509L189.235 673.792C189.979 672.858 190.88 672.061 191.898 671.437L218.419 656.077V424.448L191.898 409.088C190.35 408.194 189.063 406.912 188.165 405.367C187.267 403.822 186.788 402.069 186.778 400.282V212.173C186.77 210.368 187.24 208.594 188.139 207.03C189.038 205.465 190.335 204.166 191.898 203.264L455.578 50.4832C457.134 49.5844 458.9 49.1113 460.698 49.1113C462.495 49.1113 464.261 49.5844 465.818 50.4832L632.422 147.251L633.037 147.763H633.754C635.644 149.317 636.915 151.497 637.338 153.907V154.829V155.648V252.621L767.386 327.68H768C768.454 327.578 768.929 327.651 769.331 327.885C771.222 329.439 772.493 331.618 772.915 334.029C772.865 334.3 772.865 334.577 772.915 334.848V335.77V390.451L832.205 424.653H832.819L833.536 425.267C835.367 426.828 836.628 428.953 837.12 431.309ZM563.2 573.952L806.4 433.05L762.573 407.757L519.27 548.659L563.2 573.952ZM509.133 530.842L752.23 389.939L752.333 353.485L509.133 494.387V530.842ZM498.893 476.672L741.99 335.77L622.285 266.547C621.296 265.966 620.427 265.201 619.725 264.294L383.693 410.214L498.893 476.672ZM373.965 392.09L617.062 241.766L617.165 173.363L373.965 314.266V392.09ZM218.419 680.755V679.731L217.498 680.755H218.419ZM503.91 871.526L552.96 899.891V591.77L493.261 557.466L492.237 556.646L491.213 555.827C489.706 554.326 488.704 552.394 488.345 550.298V549.376V548.557V494.285L358.298 419.226L357.581 418.611C357.13 418.363 356.717 418.052 356.352 417.69C355.962 417.391 355.646 417.005 355.43 416.563L354.714 415.744C354.093 414.706 353.676 413.559 353.485 412.365C353.427 412.095 353.427 411.816 353.485 411.546C353.446 411.205 353.446 410.862 353.485 410.522V314.266L221.082 237.875C219.917 237.198 218.897 236.297 218.081 235.225C217.265 234.152 216.669 232.929 216.326 231.626C215.984 230.323 215.902 228.965 216.085 227.63C216.269 226.295 216.714 225.009 217.395 223.846C218.763 221.522 220.993 219.83 223.6 219.14C226.208 218.45 228.983 218.816 231.322 220.16L363.725 296.96L606.925 155.648L460.8 71.68L207.258 218.01V394.342L233.779 409.6C235.342 410.502 236.638 411.801 237.537 413.366C238.437 414.93 238.906 416.704 238.899 418.509V698.47C238.906 700.275 238.437 702.049 237.537 703.613C236.638 705.178 235.342 706.477 233.779 707.379C232.222 708.278 230.457 708.751 228.659 708.751C226.862 708.751 225.096 708.278 223.539 707.379L207.258 697.958V862.515L353.28 946.893V862.515C353.291 860.723 353.772 858.965 354.675 857.417C355.578 855.869 356.872 854.585 358.427 853.693C359.981 852.802 361.743 852.334 363.535 852.337C365.328 852.339 367.088 852.813 368.64 853.709L488.55 922.829V880.435C488.543 878.631 489.013 876.856 489.912 875.292C490.811 873.728 492.108 872.429 493.67 871.526C495.227 870.628 496.993 870.154 498.79 870.154C500.588 870.154 502.354 870.628 503.91 871.526ZM573.44 591.77V899.891L816.742 758.886V450.56L573.44 591.77ZM591.974 241.459C596.083 238.807 599.5 235.212 601.94 230.973C604.38 226.734 605.773 221.973 606.002 217.088C606.002 208.179 599.654 204.492 591.974 208.998C587.845 211.639 584.408 215.229 581.95 219.468C579.491 223.708 578.083 228.474 577.843 233.369C577.843 242.38 584.191 245.76 591.974 241.459ZM563.95 252.886C561.51 257.125 558.093 260.72 553.984 263.373C546.201 267.878 539.955 264.192 539.955 255.283C540.184 250.397 541.577 245.637 544.017 241.398C546.457 237.159 549.874 233.564 553.984 230.912C561.766 226.406 568.013 230.093 568.013 239.001C567.783 243.887 566.391 248.647 563.95 252.886ZM516.096 285.286C520.206 282.634 523.623 279.039 526.063 274.8C528.503 270.561 529.895 265.801 530.125 260.915C530.125 252.006 523.878 248.32 516.096 252.825C511.929 255.443 508.452 259.023 505.957 263.264C503.463 267.505 502.023 272.283 501.76 277.197C501.76 286.105 508.314 289.792 516.096 285.286ZM488.13 296.73C485.672 300.969 482.235 304.559 478.106 307.2C470.426 311.705 464.077 308.019 464.077 299.11C464.307 294.224 465.7 289.464 468.14 285.225C470.58 280.986 473.997 277.391 478.106 274.739C485.889 270.233 492.237 273.817 492.237 282.829C491.997 287.723 490.589 292.49 488.13 296.73ZM440.32 329.114C444.43 326.461 447.847 322.866 450.287 318.627C452.727 314.388 454.119 309.628 454.349 304.742C454.349 295.731 448.102 292.147 440.32 296.653C436.224 299.295 432.815 302.874 430.376 307.094C427.937 311.314 426.537 316.053 426.291 320.922C426.189 329.933 432.435 333.517 440.32 329.114ZM412.22 340.498C409.785 344.728 406.399 348.333 402.329 351.028C394.546 355.431 388.197 351.847 388.197 342.836C388.479 337.95 389.905 333.199 392.359 328.966C394.814 324.733 398.229 321.136 402.329 318.464C410.009 314.061 416.357 317.645 416.357 326.656C416.072 331.529 414.655 336.268 412.22 340.498ZM796.672 475.095C798.469 475.095 800.235 475.568 801.792 476.467C803.354 477.369 804.651 478.668 805.55 480.233C806.449 481.797 806.919 483.571 806.912 485.376V747.315C806.901 749.102 806.423 750.855 805.524 752.4C804.626 753.945 803.339 755.228 801.792 756.121L598.63 873.472C597.069 874.356 595.304 874.815 593.51 874.803C590.794 874.803 588.19 873.724 586.269 871.804C584.349 869.883 583.27 867.279 583.27 864.563V602.829C583.263 601.024 583.733 599.25 584.632 597.685C585.531 596.121 586.827 594.822 588.39 593.92L791.552 476.467C793.108 475.568 794.874 475.095 796.672 475.095ZM604.16 846.848L786.432 741.376V503.091L604.16 608.563V846.848Z" fill="#28CDCD"/>
</svg>
