<svg width="1024" height="1024" viewBox="0 0 1024 1024" fill="none" xmlns="http://www.w3.org/2000/svg">
<path d="M997.376 473.088C997.376 472.064 997.376 472.064 996.352 471.04L995.328 470.016L994.304 468.992L547.84 84.992C546.816 84.992 546.816 83.968 545.792 83.968L543.744 82.944H541.696C540.672 82.944 540.672 82.944 539.648 82.944H537.6L535.552 83.968L30.7201 374.784C29.6961 374.784 29.6961 375.808 29.6961 375.808L28.6721 376.832C28.6721 377.856 27.6481 377.856 27.6481 378.88C27.6481 378.88 26.6241 379.904 26.6241 380.928C26.6241 381.952 25.6001 381.952 25.6001 382.976C25.6001 384 25.6001 384 25.6001 385.024V386.048C25.6001 387.072 25.6001 388.096 26.6241 388.096C27.6481 389.12 27.6481 390.144 28.6721 390.144L100.352 450.56L108.544 549.888C108.544 552.96 110.592 556.032 113.664 558.08L277.504 663.552C279.552 664.576 280.576 665.6 282.624 665.6C283.648 665.6 284.672 665.6 284.672 665.6L339.968 652.288L343.04 655.36V791.552L254.976 839.68C251.904 841.728 249.856 844.8 249.856 848.896C249.856 852.992 251.904 856.064 254.976 858.112L395.264 940.032C396.288 941.056 398.336 942.08 400.384 943.104C402.432 943.104 403.456 943.104 405.504 942.08L544.768 860.16C547.84 858.112 549.888 855.04 549.888 850.944C549.888 846.848 547.84 843.776 544.768 841.728L480.256 805.888C475.136 802.816 468.992 804.864 465.92 809.984C462.848 815.104 464.896 821.248 470.016 824.32L519.168 851.968L399.36 919.552L279.552 848.896L342.016 815.104V848.896C342.016 852.992 344.064 856.064 347.136 858.112L395.264 886.784H396.288H397.312C398.336 886.784 399.36 887.808 400.384 887.808C401.408 887.808 402.432 887.808 403.456 886.784H404.48H405.504L450.56 858.112C453.632 856.064 455.68 852.992 455.68 849.92V764.928C455.68 758.784 451.584 754.688 445.44 754.688C439.296 754.688 435.2 758.784 435.2 764.928V844.8L410.624 860.16L409.6 713.728L489.472 781.312C490.496 781.312 490.496 782.336 491.52 782.336H492.544C493.568 782.336 494.592 782.336 495.616 782.336C496.64 782.336 498.688 782.336 499.712 781.312H501.76L636.928 700.416L723.968 751.616C726.016 752.64 727.04 752.64 729.088 752.64C731.136 752.64 732.16 752.64 734.208 751.616L874.496 670.72C879.616 667.648 880.64 661.504 878.592 656.384C877.568 654.336 876.544 653.312 874.496 652.288L809.984 616.448C804.864 613.376 798.72 615.424 795.648 620.544C792.576 625.664 794.624 631.808 799.744 634.88L847.872 662.528L729.088 731.136L656.384 689.152L683.008 672.768L724.992 697.344H727.04C728.064 697.344 729.088 698.368 730.112 698.368C731.136 698.368 732.16 698.368 733.184 697.344H734.208H735.232L780.288 668.672C783.36 666.624 785.408 663.552 785.408 659.456V610.304L993.28 485.376L994.304 484.352C994.304 484.352 995.328 484.352 995.328 483.328C995.328 482.304 996.352 482.304 996.352 481.28C996.352 480.256 997.376 480.256 997.376 479.232C997.376 478.208 997.376 478.208 997.376 477.184C997.376 476.16 997.376 476.16 997.376 475.136C998.4 474.112 998.4 473.088 997.376 473.088ZM881.664 397.312L801.792 445.44L728.064 382.976L808.96 334.848L881.664 397.312ZM537.6 364.544L618.496 317.44L692.224 379.904L611.328 428.032L537.6 364.544ZM592.896 438.272L512 486.4L438.272 422.912L519.168 375.808L592.896 438.272ZM521.216 350.208L447.488 287.744L529.408 240.64L603.136 303.104L521.216 350.208ZM502.784 361.472L421.888 409.6L347.136 346.112L429.056 299.008L502.784 361.472ZM402.432 419.84L321.536 467.968L245.76 404.48L327.68 357.376L402.432 419.84ZM302.08 478.208L221.184 526.336L145.408 462.848L227.328 415.744L302.08 478.208ZM319.488 492.544L394.24 556.032L313.344 604.16L237.568 540.672L319.488 492.544ZM337.92 481.28L418.816 433.152L493.568 496.64L412.672 544.768L337.92 481.28ZM509.952 510.976L584.704 574.464L504.832 622.592L430.08 559.104L509.952 510.976ZM529.408 499.712L610.304 451.584L684.032 515.072L604.16 563.2L529.408 499.712ZM628.736 441.344L709.632 393.216L783.36 455.68L703.488 503.808L628.736 441.344ZM791.552 320.512L711.68 368.64L637.952 306.176L718.848 258.048L791.552 320.512ZM702.464 243.712L621.568 290.816L547.84 228.352L629.76 181.248L702.464 243.712ZM539.648 105.472L612.352 167.936L530.432 215.04L456.704 152.576L539.648 105.472ZM438.272 163.84L512 226.304L430.08 273.408L356.352 210.944L438.272 163.84ZM337.92 221.184L411.648 284.672L329.728 331.776L256 268.288L337.92 221.184ZM236.544 279.552L311.296 343.04L229.376 390.144L153.6 326.656L236.544 279.552ZM53.2481 385.024L135.168 337.92L209.92 401.408L128 448.512L115.712 438.272L53.2481 385.024ZM283.648 645.12L129.024 544.768L122.88 470.016L320.512 635.904L283.648 645.12ZM363.52 842.752V671.744L390.144 694.272L391.168 858.112L363.52 842.752ZM405.504 680.96L329.728 617.472L410.624 569.344L486.4 632.832L405.504 680.96ZM498.688 758.784L422.912 695.296L502.784 647.168L578.56 710.656L498.688 758.784ZM596.992 699.392L522.24 635.904L602.112 587.776L676.864 651.264L596.992 699.392ZM720.896 668.672L704.512 658.432L720.896 648.192V668.672ZM765.952 652.288L740.352 667.648V635.904L765.952 620.544V652.288ZM695.296 640L620.544 576.512L700.416 528.384L774.144 591.872L695.296 640ZM793.6 581.632L719.872 518.144L799.744 470.016L873.472 532.48L793.6 581.632ZM891.904 522.24L818.176 459.776L898.048 411.648L970.752 474.112L891.904 522.24Z" fill="#28CDCD"/>
</svg>
