<svg width="1024" height="1024" viewBox="0 0 1024 1024" fill="none" xmlns="http://www.w3.org/2000/svg">
<path fill-rule="evenodd" clip-rule="evenodd" d="M736.153 16.7937L807.833 59.8017C827.186 71.6801 838.246 96.5633 838.246 128.922V614.503L835.174 681.882C834.976 690.582 832.874 699.134 829.018 706.935C825.161 714.737 819.643 721.599 812.85 727.04L758.681 766.157L757.759 766.771L626.994 842.445V978.637C626.994 981.353 625.916 983.957 623.995 985.878C622.075 987.798 619.47 988.877 616.754 988.877C614.039 988.877 611.434 987.798 609.514 985.878C607.593 983.957 606.514 981.353 606.514 978.637V854.221L587.058 865.485V954.573C587.058 957.289 585.98 959.893 584.059 961.814C582.139 963.734 579.534 964.813 576.818 964.813C574.103 964.813 571.498 963.734 569.578 961.814C567.657 959.893 566.578 957.289 566.578 954.573V877.261L348.159 1003.52C337.743 1010 325.809 1013.64 313.548 1014.07C304.721 1014.07 296.055 1011.7 288.46 1007.21L216.78 964.199C197.119 952.627 186.06 927.437 186.06 895.079V409.498C186.06 350.106 221.286 283.239 266.239 257.229L675.839 20.4801C697.958 7.88494 719.257 6.65614 736.153 16.7937ZM598.118 835.379L747.519 749.261L772.812 730.112L762.572 599.962C762.265 596.48 761.036 593.818 759.807 593.101C758.578 592.384 755.609 592.487 751.308 595.047L627.711 666.727C621.775 670.746 616.779 676.003 613.066 682.137C609.354 688.271 607.014 695.136 606.207 702.259L598.118 835.379ZM811.053 697.425C813.434 692.434 814.744 687 814.898 681.472L817.97 614.4V128.819C817.97 104.243 810.495 85.4017 797.49 77.6193L725.81 34.7137C721.395 32.0476 716.325 30.6647 711.167 30.7201C702.312 30.997 693.676 33.5351 686.079 38.0929L276.377 275.149C237.874 296.96 206.438 357.683 206.438 409.6V895.488C206.438 920.064 213.913 938.906 226.918 946.688L298.598 989.594C304.874 992.587 311.844 993.825 318.767 993.176C325.69 992.527 332.309 990.015 337.919 985.907L577.023 847.974L586.034 701.747C587.068 691.272 590.45 681.165 595.928 672.177C601.406 663.188 608.84 655.55 617.676 649.831L741.273 578.151C745.412 575.377 750.194 573.713 755.161 573.318C760.128 572.924 765.113 573.812 769.638 575.898C773.746 578.282 777.156 581.702 779.528 585.817C781.9 589.932 783.151 594.598 783.154 599.347L792.166 717.005L801.075 710.451C805.273 706.853 808.672 702.415 811.053 697.425ZM762.642 77.5383C761.812 78.6098 760.779 79.5073 759.602 80.1797L757.759 80.9989L348.262 317.952C309.657 339.866 278.322 400.589 278.322 452.506V938.087C278.322 940.087 278.458 942.005 278.589 943.87C278.713 945.635 278.834 947.351 278.834 949.044C279.091 951.746 278.265 954.439 276.537 956.532C274.808 958.625 272.32 959.946 269.618 960.205H268.594C266.031 960.216 263.557 959.264 261.661 957.539C259.765 955.814 258.585 953.44 258.354 950.887C257.945 946.791 257.74 942.49 257.74 937.984V452.506C257.74 393.012 292.966 326.144 337.919 300.237L749.362 62.2597C750.539 61.5873 751.837 61.1533 753.181 60.9824C754.525 60.8115 755.89 60.9071 757.198 61.2636C758.505 61.6202 759.73 62.2308 760.801 63.0606C761.872 63.8904 762.77 64.9231 763.442 66.0997C764.115 67.2763 764.549 68.5739 764.72 69.9183C764.891 71.2627 764.795 72.6275 764.439 73.935C764.082 75.2424 763.471 76.4669 762.642 77.5383ZM732.775 638.874C738.43 638.874 743.015 643.458 743.015 649.114V698.061C743.015 703.716 738.43 708.301 732.775 708.301C727.12 708.301 722.535 703.716 722.535 698.061V649.114C722.535 643.458 727.12 638.874 732.775 638.874ZM701.03 673.587C701.03 667.932 696.445 663.347 690.79 663.347C685.135 663.347 680.55 667.932 680.55 673.587V722.432C680.55 728.088 685.135 732.672 690.79 732.672C696.445 732.672 701.03 728.088 701.03 722.432V673.587ZM658.945 698.061C658.945 692.406 654.36 687.821 648.705 687.821C643.05 687.821 638.465 692.406 638.465 698.061V746.906C638.465 752.562 643.05 757.146 648.705 757.146C654.36 757.146 658.945 752.562 658.945 746.906V698.061ZM796.57 163.225L397.21 393.728C389.451 399.028 383.09 406.127 378.668 414.418C374.246 422.71 371.895 431.947 371.815 441.344V939.11C371.815 941.826 372.894 944.43 374.814 946.351C376.735 948.271 379.339 949.35 382.055 949.35C384.771 949.35 387.375 948.271 389.296 946.351C391.216 944.43 392.295 941.826 392.295 939.11V441.344C392.411 435.541 393.834 429.839 396.458 424.662C399.082 419.486 402.839 414.967 407.45 411.443L806.81 180.94C807.984 180.271 809.013 179.377 809.839 178.308C810.665 177.24 811.272 176.018 811.624 174.715C811.977 173.411 812.067 172.05 811.891 170.711C811.715 169.371 811.276 168.08 810.599 166.912C809.922 165.747 809.021 164.727 807.948 163.911C806.876 163.095 805.653 162.499 804.35 162.156C803.047 161.814 801.689 161.732 800.354 161.915C799.019 162.099 797.733 162.544 796.57 163.225Z" fill="#28CDCD"/>
</svg>
