<svg width="100" height="100" viewBox="0 0 100 100" fill="none" xmlns="http://www.w3.org/2000/svg">
<path d="M49.6597 85.8772C45.2297 87.1972 41.1897 86.9272 37.9297 85.0472C37.8297 84.9872 37.7397 84.9272 37.6497 84.8672C38.1297 85.1372 38.2997 85.7472 38.0297 86.2272C37.8497 86.5572 37.5097 86.7372 37.1597 86.7372C36.9897 86.7372 36.8197 86.6972 36.6697 86.6072C36.6697 86.6072 36.6697 86.6072 36.6597 86.6072C36.7497 86.6672 36.8397 86.7272 36.9397 86.7772C39.1597 88.0572 41.6697 88.6972 44.3797 88.6972C48.2097 88.6972 52.4297 87.4272 56.7897 84.9072C56.8497 84.8772 56.8797 84.8272 56.9297 84.7872C54.8297 85.5572 52.7897 85.9472 50.8797 85.9472C50.4697 85.9472 50.0697 85.9072 49.6697 85.8772H49.6597Z" fill="#2FCACA"/>
<path d="M75.6297 19.7672C75.5597 19.7272 75.4797 19.6972 75.4097 19.6572C75.7097 19.8372 75.9297 19.9672 76.0397 20.0272C75.8997 19.9372 75.7697 19.8472 75.6297 19.7672Z" fill="#2FCACA"/>
<path d="M83.94 37.8871C83.94 29.5571 81.16 23.2671 76.12 20.0771C76.58 20.3671 76.74 20.9671 76.46 21.4371C76.18 21.9071 75.56 22.0671 75.09 21.7771C75.09 21.7771 75.07 21.7671 75.04 21.7471C79.16 24.3571 81.57 29.4271 81.9 36.1671C82.79 38.4771 83.26 41.2171 83.28 44.2771C83.28 44.2371 83.31 44.2071 83.32 44.1771C83.75 41.1371 83.94 38.0771 83.95 37.8871H83.94Z" fill="#2FCACA"/>
<path d="M30.6299 68.6671C30.6299 52.0171 42.3599 31.6971 56.7799 23.3671C63.4699 19.4971 69.7199 18.8071 74.4099 21.3871C73.2899 20.7171 70.8999 19.3071 68.3699 17.8571C64.4899 17.8171 60.2099 19.0771 55.7799 21.6271C40.8099 30.2671 28.6299 51.3671 28.6299 68.6571C28.6299 73.7771 29.6799 78.1171 31.6599 81.4571C34.6899 83.1971 37.5997 84.8372 37.6497 84.8672C33.1197 82.0772 30.6199 76.3471 30.6199 68.6571L30.6299 68.6671Z" fill="#2FCACA"/>
<path d="M82.1799 45.0272C81.6299 44.9472 81.2499 44.4472 81.3299 43.8972C81.7499 40.9372 81.9399 37.8572 81.9399 37.8272C81.9399 37.2672 81.92 36.7171 81.9 36.1671C80.75 33.1871 78.8999 30.8972 76.4199 29.4672C71.9999 26.9172 66.1899 27.4572 60.0699 30.9872C47.8299 38.0572 37.8599 55.3072 37.8599 69.4472C37.8599 76.5172 40.2999 81.8072 44.7199 84.3672C46.2199 85.2372 47.8797 85.7272 49.6597 85.8772C51.6297 85.2872 53.6899 84.3972 55.7799 83.1872C56.2599 82.9072 56.8699 83.0772 57.1499 83.5572C57.3899 83.9772 57.2799 84.4972 56.9199 84.7972C58.2799 84.3072 59.6599 83.6572 61.0699 82.8472C73.3099 75.7772 83.2799 58.5272 83.2799 44.3872C83.2799 44.3472 83.28 44.3171 83.28 44.2771C83.16 44.7571 82.6999 45.0972 82.1899 45.0272H82.1799ZM60.0699 81.1172C54.5899 84.2772 49.4999 84.8172 45.7199 82.6372C41.9399 80.4572 39.8599 75.7772 39.8599 69.4472C39.8599 55.9472 49.3699 39.4672 61.0699 32.7172C64.3299 30.8372 67.4599 29.8772 70.2599 29.8772C72.1499 29.8772 73.8899 30.3172 75.4199 31.1972C79.1999 33.3772 81.2799 38.0572 81.2799 44.3872C81.2799 57.8872 71.7699 74.3672 60.0699 81.1172Z" fill="#2FCACA"/>
<path d="M57.1499 83.5572C56.8699 83.0772 56.2599 82.9172 55.7799 83.1872C53.6799 84.3972 51.6297 85.2972 49.6597 85.8772C50.0597 85.9172 50.4597 85.9472 50.8697 85.9472C52.7797 85.9472 54.8197 85.5572 56.9197 84.7872C57.2797 84.4772 57.3897 83.9672 57.1497 83.5472L57.1499 83.5572Z" fill="#2FCACA"/>
<path d="M81.9399 37.8272C81.9399 37.8272 81.7399 40.9372 81.3299 43.8972C81.2499 44.4472 81.6299 44.9472 82.1799 45.0272C82.6999 45.0972 83.15 44.7672 83.27 44.2772C83.26 41.2072 82.79 38.4772 81.89 36.1672C81.92 36.7072 81.93 37.2572 81.93 37.8272L81.9399 37.8272Z" fill="#2FCACA"/>
<path d="M62.9201 42.5871C62.7001 42.3071 62.3401 42.1571 61.9901 42.2071C61.6301 42.2571 61.3301 42.4872 61.2001 42.8272L54.3801 59.6072C53.5701 61.6172 53.1401 63.6372 53.1401 65.4672C53.1401 68.3072 54.1501 70.4472 55.9801 71.5072C56.7601 71.9572 57.6301 72.1772 58.5601 72.1772C59.8301 72.1772 61.2101 71.7671 62.6301 70.9471C67.3901 68.1971 71.1201 61.7472 71.1201 56.2472C71.1201 54.3272 70.6401 52.6872 69.7401 51.5072L62.9301 42.5871H62.9201ZM61.6201 69.2071C59.8101 70.2571 58.1601 70.4472 56.9701 69.7672C55.7801 69.0872 55.1301 67.5572 55.1301 65.4672C55.1301 63.8972 55.5101 62.1272 56.2301 60.3572L62.3901 45.1972L68.1401 52.7272C68.7701 53.5572 69.1001 54.7672 69.1001 56.2572C69.1001 61.0272 65.7401 66.8372 61.6101 69.2172L61.6201 69.2071Z" fill="#2FCACA"/>
<path d="M58.9999 63.2271C58.9999 62.4771 59.1799 61.6271 59.5299 60.7771L59.7299 60.2771C59.9399 59.7671 59.6899 59.1871 59.1799 58.9771C58.6699 58.7671 58.0899 59.0171 57.8799 59.5271L57.6799 60.0271C57.2399 61.1171 56.9999 62.2271 56.9999 63.2371C56.9999 64.6471 57.4699 65.8071 58.3199 66.4971C58.5099 66.6471 58.7299 66.7171 58.9499 66.7171C59.2399 66.7171 59.5299 66.5871 59.7299 66.3471C60.0799 65.9171 60.0099 65.2871 59.5799 64.9371C59.2099 64.6371 58.9999 64.0271 58.9999 63.2271Z" fill="#2FCACA"/>
<path d="M61.7898 52.5471C61.2798 52.3371 60.6998 52.5871 60.4898 53.0971L59.7498 54.9171C59.5398 55.4271 59.7898 56.0071 60.2998 56.2171C60.4198 56.2671 60.5498 56.2871 60.6798 56.2871C61.0698 56.2871 61.4498 56.0471 61.6098 55.6671L62.3498 53.8471C62.5598 53.3371 62.3098 52.7571 61.7998 52.5471H61.7898Z" fill="#2FCACA"/>
<path d="M31.66 81.4671C29.37 80.1571 27.02 78.7871 25.78 78.0271C25.08 77.5971 24.38 77.0171 23.65 76.2471C20.62 73.0671 19.01 68.1271 19.01 61.9671C19.01 45.3171 30.74 24.9971 45.16 16.6671C51.39 13.0671 57 12.0771 60.94 13.8571C62.56 14.5871 65.55 16.2471 68.36 17.8571C70.91 17.8871 73.29 18.4771 75.4 19.6471C72.98 18.2071 64.97 13.4871 61.76 12.0371C57.21 9.97715 50.95 11.0071 44.15 14.9371C29.18 23.5771 17 44.6771 17 61.9671C17 68.6571 18.79 74.0771 22.19 77.6271C23.04 78.5171 23.87 79.2071 24.72 79.7271C27.62 81.5071 36.21 86.3571 36.65 86.6071C34.61 85.3671 32.94 83.6271 31.65 81.4571L31.66 81.4671Z" fill="#2FCACA"/>
<path d="M76.11 20.0672C76.11 20.0672 76.0697 20.0472 76.0397 20.0272C76.0697 20.0472 76.09 20.0571 76.12 20.0771L76.11 20.0672Z" fill="#2FCACA"/>
<path d="M74.4199 21.3872C74.7299 21.5772 74.9499 21.6972 75.0399 21.7572C74.9099 21.6772 74.7799 21.5772 74.6399 21.5072C74.5699 21.4672 74.4899 21.4372 74.4199 21.3972V21.3872Z" fill="#2FCACA"/>
<path d="M37.1699 86.7472C37.5199 86.7472 37.8599 86.5672 38.0399 86.2372C38.3099 85.7572 38.1399 85.1472 37.6599 84.8772C37.6099 84.8472 34.6899 83.1972 31.6699 81.4672C32.9499 83.6372 34.6299 85.3772 36.6699 86.6172H36.6799C36.8399 86.7072 36.9999 86.7472 37.1699 86.7472Z" fill="#2FCACA"/>
<path d="M74.4199 21.3872C74.4899 21.4272 74.5696 21.4572 74.6396 21.4972C74.7796 21.5772 74.91 21.6671 75.04 21.7471C75.07 21.7671 75.09 21.7771 75.09 21.7771C75.56 22.0571 76.18 21.9071 76.46 21.4371C76.74 20.9671 76.59 20.3571 76.12 20.0771C76.09 20.0571 76.0697 20.0472 76.0397 20.0272C75.9297 19.9572 75.7097 19.8272 75.4097 19.6572C73.2897 18.4872 70.9196 17.8872 68.3696 17.8672C70.8996 19.3172 73.2896 20.7272 74.4096 21.3972L74.4199 21.3872Z" fill="#2FCACA"/>
</svg>
