<svg width="1024" height="1024" viewBox="0 0 1024 1024" fill="none" xmlns="http://www.w3.org/2000/svg">
<path d="M668.672 614.4C663.552 614.4 658.432 618.496 658.432 624.64L645.12 886.784C644.096 904.192 630.784 921.6 608.256 934.912C555.008 965.632 468.992 965.632 415.744 934.912C393.216 921.6 379.904 905.216 378.88 886.784L359.424 481.28C364.544 484.352 370.688 486.4 375.808 489.472L386.048 753.664C386.048 758.784 391.168 763.904 396.288 763.904C402.432 763.904 406.528 758.784 406.528 753.664L396.288 498.688C412.672 504.832 430.08 508.928 448.512 512L452.608 774.144C452.608 779.264 457.728 784.384 462.848 784.384C468.992 784.384 473.088 779.264 473.088 774.144L468.992 515.072C482.304 516.096 496.64 517.12 510.976 517.12C523.264 517.12 535.552 516.096 547.84 515.072C552.96 514.048 558.08 509.952 557.056 503.808C556.032 498.688 551.936 493.568 545.792 494.592C480.256 500.736 413.696 488.448 366.592 461.824C361.472 458.752 355.328 460.8 352.256 465.92C351.232 466.944 351.232 467.968 351.232 468.992C350.208 468.992 349.184 467.968 348.16 468.992C342.016 468.992 337.92 474.112 337.92 479.232L358.4 887.808C359.424 912.384 375.808 935.936 405.504 952.32C435.2 969.728 473.088 977.92 512 977.92C550.912 977.92 588.8 969.728 618.496 952.32C647.168 935.936 664.576 912.384 665.6 887.808L677.888 625.664C677.888 619.52 673.792 615.424 668.672 614.4Z" fill="#28CDCD"/>
<path d="M697.344 291.84C701.44 287.744 702.464 281.6 698.368 277.504C694.272 273.408 688.128 272.384 684.032 276.48C676.864 282.624 668.672 288.768 658.432 293.888C577.536 340.992 445.44 340.992 363.52 293.888C355.328 288.768 347.136 283.648 340.992 278.528C336.896 274.432 329.728 275.456 326.656 279.552C322.56 283.648 323.584 290.816 327.68 293.888C334.848 300.032 344.064 306.176 353.28 311.296C396.288 335.872 453.632 349.184 510.976 349.184C568.32 349.184 624.64 336.896 668.672 311.296C679.936 306.176 689.152 299.008 697.344 291.84Z" fill="#28CDCD"/>
<path d="M378.88 192.512C386.048 198.656 393.216 204.8 402.432 209.92C432.128 227.328 472.064 235.52 512 235.52C551.936 235.52 590.848 227.328 621.568 209.92C631.808 203.776 641.024 197.632 647.168 190.464C651.264 186.368 651.264 180.224 647.168 176.128C643.072 172.032 636.928 172.032 632.832 176.128C626.688 182.272 619.52 187.392 611.328 192.512C557.056 224.256 467.968 224.256 413.696 192.512C405.504 188.416 399.36 183.296 394.24 178.176C390.144 174.08 384 174.08 379.904 178.176C374.784 182.272 374.784 189.44 378.88 192.512Z" fill="#28CDCD"/>
<path d="M389.12 434.176C398.336 429.056 404.48 417.792 404.48 403.456C404.48 377.856 387.072 348.16 365.568 335.872C353.28 328.704 340.992 327.68 330.752 333.824L307.2 346.112V209.92C307.2 184.32 323.584 158.72 353.28 138.24L337.92 190.464C327.68 226.304 346.112 262.144 389.12 286.72C422.912 306.176 467.968 316.416 513.024 316.416C558.08 316.416 602.112 306.176 636.928 286.72C679.936 262.144 698.368 226.304 688.128 190.464L668.672 123.904C662.528 104.448 647.168 86.016 622.592 72.704C562.176 37.888 463.872 37.888 404.48 72.704C387.072 82.944 374.784 94.208 366.592 107.52C363.52 109.568 359.424 110.592 356.352 112.64C312.32 138.24 287.744 172.032 287.744 209.92V358.4L184.32 416.768C175.104 421.888 168.96 433.152 168.96 447.488C168.96 449.536 168.96 452.608 168.96 454.656V455.68C174.08 503.808 215.04 518.144 217.088 519.168C221.184 520.192 224.256 521.216 227.328 521.216C231.424 521.216 235.52 520.192 238.592 518.144C239.616 518.144 240.64 517.12 240.64 517.12L389.12 434.176ZM412.672 90.112C440.32 74.752 476.16 66.56 512 66.56C547.84 66.56 583.68 74.752 611.328 90.112C630.784 101.376 643.072 114.688 647.168 130.048L666.624 196.608C674.816 223.232 659.456 249.856 624.64 269.312C562.176 305.152 460.8 305.152 398.336 269.312C363.52 249.856 348.16 223.232 356.352 196.608L375.808 130.048C380.928 114.688 393.216 101.376 412.672 90.112ZM340.992 350.208C344.064 348.16 349.184 349.184 355.328 352.256C370.688 361.472 384 384 384 402.432C384 408.576 381.952 413.696 378.88 415.744L258.048 485.376C257.024 460.8 240.64 432.128 220.16 419.84L340.992 350.208ZM190.464 454.656V452.608C190.464 450.56 190.464 449.536 190.464 447.488C190.464 441.344 192.512 436.224 195.584 434.176C196.608 433.152 197.632 433.152 199.68 433.152C202.752 433.152 205.824 434.176 209.92 436.224C225.28 445.44 238.592 467.968 238.592 486.4C238.592 492.544 236.544 497.664 233.472 499.712C231.424 500.736 227.328 500.736 225.28 499.712C224.256 500.736 194.56 490.496 190.464 454.656Z" fill="#28CDCD"/>
<path d="M815.104 74.7521C802.816 67.5841 790.528 66.5601 780.288 72.7041L686.08 126.976C683.008 126.976 679.936 128 677.888 131.072C674.816 135.168 674.816 142.336 679.936 145.408L680.96 146.432C703.488 164.864 715.776 187.392 715.776 209.92V348.16C715.776 354.304 719.872 358.4 726.016 358.4C732.16 358.4 736.256 354.304 736.256 348.16V209.92C736.256 185.344 724.992 160.768 704.512 140.288L790.528 91.1361C793.6 89.0881 798.72 90.1121 804.864 93.1841C820.224 102.4 833.536 124.928 833.536 143.36C833.536 149.504 831.488 154.624 828.416 156.672L750.592 200.704C745.472 203.776 744.448 209.92 746.496 215.04C748.544 218.112 751.616 220.16 755.712 220.16C757.76 220.16 758.784 220.16 760.832 219.136L839.68 174.08C848.896 168.96 855.04 157.696 855.04 143.36C854.016 117.76 837.632 88.0641 815.104 74.7521Z" fill="#28CDCD"/>
<path d="M626.688 762.88C631.808 762.88 636.928 758.784 636.928 752.64L641.024 643.072C641.024 636.928 636.928 632.832 630.784 632.832C624.64 632.832 620.544 636.928 620.544 643.072L616.448 752.64C616.448 757.76 620.544 762.88 626.688 762.88Z" fill="#28CDCD"/>
<path d="M563.2 565.248C558.08 565.248 552.96 569.344 552.96 575.488L549.888 773.12C549.888 779.264 553.984 783.36 560.128 783.36C565.248 783.36 570.368 779.264 570.368 773.12L573.44 576.512C573.44 570.368 569.344 566.272 563.2 565.248Z" fill="#28CDCD"/>
<path d="M684.032 348.16C679.936 342.016 670.72 342.016 666.624 348.16L601.088 455.68C592.896 468.992 588.8 485.376 588.8 500.736C588.8 548.864 627.712 587.776 675.84 587.776C723.968 587.776 762.88 548.864 762.88 500.736C762.88 484.352 758.784 468.992 750.592 455.68L684.032 348.16ZM675.84 567.296C638.976 567.296 609.28 537.6 609.28 500.736C609.28 488.448 612.352 476.16 619.52 465.92L676.864 372.736L734.208 465.92C740.352 476.16 744.448 488.448 744.448 500.736C742.4 537.6 712.704 567.296 675.84 567.296Z" fill="#28CDCD"/>
<path d="M646.144 500.736C646.144 495.616 647.168 489.472 650.24 485.376L652.288 482.304C655.36 477.184 653.312 471.04 649.216 467.968C644.096 464.896 637.952 466.944 634.88 471.04L632.832 474.112C627.712 482.304 625.664 490.496 625.664 499.712C625.664 510.976 629.76 522.24 636.928 531.456C638.976 533.504 642.048 535.552 645.12 535.552C647.168 535.552 650.24 534.528 651.264 533.504C655.36 529.408 656.384 523.264 652.288 519.168C648.192 514.048 646.144 507.904 646.144 500.736Z" fill="#28CDCD"/>
<path d="M673.792 427.008C668.672 423.936 662.528 425.984 659.456 430.08L652.288 441.344C649.216 446.464 651.264 452.608 655.36 455.68C657.408 456.704 658.432 456.704 660.48 456.704C663.552 456.704 667.648 454.656 669.696 451.584L676.864 440.32C680.96 436.224 678.912 430.08 673.792 427.008Z" fill="#28CDCD"/>
</svg>
