<svg width="100" height="100" viewBox="0 0 100 100" fill="none" xmlns="http://www.w3.org/2000/svg">
<path d="M65.3 60C64.8 60 64.3 60.4 64.3 61L63 86.6C62.9 88.3 61.6 90 59.4 91.3C54.2 94.3 45.8 94.3 40.6 91.3C38.4 90 37.1 88.4 37 86.6L35.1 47C35.6 47.3 36.2 47.5 36.7 47.8L37.7 73.6C37.7 74.1 38.2 74.6 38.7 74.6C39.3 74.6 39.7 74.1 39.7 73.6L38.7 48.7C40.3 49.3 42 49.7 43.8 50L44.2 75.6C44.2 76.1 44.7 76.6 45.2 76.6C45.8 76.6 46.2 76.1 46.2 75.6L45.8 50.3C47.1 50.4 48.5 50.5 49.9 50.5C51.1 50.5 52.3 50.4 53.5 50.3C54 50.2 54.5 49.8 54.4 49.2C54.3 48.7 53.9 48.2 53.3 48.3C46.9 48.9 40.4 47.7 35.8 45.1C35.3 44.8 34.7 45 34.4 45.5C34.3 45.6 34.3 45.7 34.3 45.8C34.2 45.8 34.1 45.7 34 45.8C33.4 45.8 33 46.3 33 46.8L35 86.7C35.1 89.1 36.7 91.4 39.6 93C42.5 94.7 46.2 95.5 50 95.5C53.8 95.5 57.5 94.7 60.4 93C63.2 91.4 64.9 89.1 65 86.7L66.2 61.1C66.2 60.5 65.8 60.1 65.3 60Z" fill="#28CDCD"/>
<path d="M68.1 28.5C68.5 28.1 68.6 27.5 68.2 27.1C67.8 26.7 67.2 26.6 66.8 27C66.1 27.6 65.3 28.2 64.3 28.7C56.4 33.3 43.5 33.3 35.5 28.7C34.7 28.2 33.9 27.7 33.3 27.2C32.9 26.8 32.2 26.9 31.9 27.3C31.5 27.7 31.6 28.4 32 28.7C32.7 29.3 33.6 29.9 34.5 30.4C38.7 32.8 44.3 34.1 49.9 34.1C55.5 34.1 61 32.9 65.3 30.4C66.4 29.9 67.3 29.2 68.1 28.5Z" fill="#28CDCD"/>
<path d="M37 18.8C37.7 19.4 38.4 20 39.3 20.5C42.2 22.2 46.1 23 50 23C53.9 23 57.7 22.2 60.7 20.5C61.7 19.9 62.6 19.3 63.2 18.6C63.6 18.2 63.6 17.6 63.2 17.2C62.8 16.8 62.2 16.8 61.8 17.2C61.2 17.8 60.5 18.3 59.7 18.8C54.4 21.9 45.7 21.9 40.4 18.8C39.6 18.4 39 17.9 38.5 17.4C38.1 17 37.5 17 37.1 17.4C36.6 17.8 36.6 18.5 37 18.8Z" fill="#28CDCD"/>
<path d="M38 42.4C38.9 41.9 39.5 40.8 39.5 39.4C39.5 36.9 37.8 34 35.7 32.8C34.5 32.1 33.3 32 32.3 32.6L30 33.8V20.5C30 18 31.6 15.5 34.5 13.5L33 18.6C32 22.1 33.8 25.6 38 28C41.3 29.9 45.7 30.9 50.1 30.9C54.5 30.9 58.8 29.9 62.2 28C66.4 25.6 68.2 22.1 67.2 18.6L65.3 12.1C64.7 10.2 63.2 8.4 60.8 7.1C54.9 3.7 45.3 3.7 39.5 7.1C37.8 8.1 36.6 9.2 35.8 10.5C35.5 10.7 35.1 10.8 34.8 11C30.5 13.5 28.1 16.8 28.1 20.5V35L18 40.7C17.1 41.2 16.5 42.3 16.5 43.7C16.5 43.9 16.5 44.2 16.5 44.4V44.5C17 49.2 21 50.6 21.2 50.7C21.6 50.8 21.9 50.9 22.2 50.9C22.6 50.9 23 50.8 23.3 50.6C23.4 50.6 23.5 50.5 23.5 50.5L38 42.4ZM40.3 8.8C43 7.3 46.5 6.5 50 6.5C53.5 6.5 57 7.3 59.7 8.8C61.6 9.9 62.8 11.2 63.2 12.7L65.1 19.2C65.9 21.8 64.4 24.4 61 26.3C54.9 29.8 45 29.8 38.9 26.3C35.5 24.4 34 21.8 34.8 19.2L36.7 12.7C37.2 11.2 38.4 9.9 40.3 8.8ZM33.3 34.2C33.6 34 34.1 34.1 34.7 34.4C36.2 35.3 37.5 37.5 37.5 39.3C37.5 39.9 37.3 40.4 37 40.6L25.2 47.4C25.1 45 23.5 42.2 21.5 41L33.3 34.2ZM18.6 44.4V44.2C18.6 44 18.6 43.9 18.6 43.7C18.6 43.1 18.8 42.6 19.1 42.4C19.2 42.3 19.3 42.3 19.5 42.3C19.8 42.3 20.1 42.4 20.5 42.6C22 43.5 23.3 45.7 23.3 47.5C23.3 48.1 23.1 48.6 22.8 48.8C22.6 48.9 22.2 48.9 22 48.8C21.9 48.9 19 47.9 18.6 44.4Z" fill="#28CDCD"/>
<path d="M79.6 7.30001C78.4 6.60001 77.2 6.50001 76.2 7.10001L67 12.4C66.7 12.4 66.4 12.5 66.2 12.8C65.9 13.2 65.9 13.9 66.4 14.2L66.5 14.3C68.7 16.1 69.9 18.3 69.9 20.5V34C69.9 34.6 70.3 35 70.9 35C71.5 35 71.9 34.6 71.9 34V20.5C71.9 18.1 70.8 15.7 68.8 13.7L77.2 8.90001C77.5 8.70001 78 8.80001 78.6 9.10001C80.1 10 81.4 12.2 81.4 14C81.4 14.6 81.2 15.1 80.9 15.3L73.3 19.6C72.8 19.9 72.7 20.5 72.9 21C73.1 21.3 73.4 21.5 73.8 21.5C74 21.5 74.1 21.5 74.3 21.4L82 17C82.9 16.5 83.5 15.4 83.5 14C83.4 11.5 81.8 8.60001 79.6 7.30001Z" fill="#28CDCD"/>
<path d="M61.2 74.5C61.7 74.5 62.2 74.1 62.2 73.5L62.6 62.8C62.6 62.2 62.2 61.8 61.6 61.8C61 61.8 60.6 62.2 60.6 62.8L60.2 73.5C60.2 74 60.6 74.5 61.2 74.5Z" fill="#28CDCD"/>
<path d="M55 55.2C54.5 55.2 54 55.6 54 56.2L53.7 75.5C53.7 76.1 54.1 76.5 54.7 76.5C55.2 76.5 55.7 76.1 55.7 75.5L56 56.3C56 55.7 55.6 55.3 55 55.2Z" fill="#28CDCD"/>
<path d="M66.8 34C66.4 33.4 65.5 33.4 65.1 34L58.7 44.5C57.9 45.8 57.5 47.4 57.5 48.9C57.5 53.6 61.3 57.4 66 57.4C70.7 57.4 74.5 53.6 74.5 48.9C74.5 47.3 74.1 45.8 73.3 44.5L66.8 34ZM66 55.4C62.4 55.4 59.5 52.5 59.5 48.9C59.5 47.7 59.8 46.5 60.5 45.5L66.1 36.4L71.7 45.5C72.3 46.5 72.7 47.7 72.7 48.9C72.5 52.5 69.6 55.4 66 55.4Z" fill="#28CDCD"/>
<path d="M63.1 48.9C63.1 48.4 63.2 47.8 63.5 47.4L63.7 47.1C64 46.6 63.8 46 63.4 45.7C62.9 45.4 62.3 45.6 62 46L61.8 46.3C61.3 47.1 61.1 47.9 61.1 48.8C61.1 49.9 61.5 51 62.2 51.9C62.4 52.1 62.7 52.3 63 52.3C63.2 52.3 63.5 52.2 63.6 52.1C64 51.7 64.1 51.1 63.7 50.7C63.3 50.2 63.1 49.6 63.1 48.9Z" fill="#28CDCD"/>
<path d="M65.8 41.7C65.3 41.4 64.7 41.6 64.4 42L63.7 43.1C63.4 43.6 63.6 44.2 64 44.5C64.2 44.6 64.3 44.6 64.5 44.6C64.8 44.6 65.2 44.4 65.4 44.1L66.1 43C66.5 42.6 66.3 42 65.8 41.7Z" fill="#28CDCD"/>
</svg>
